<?xml version="1.0" encoding="UTF-8"?>
<svg id="Design_Convert" xmlns="http://www.w3.org/2000/svg" version="1.1" viewBox="0 0 64 64">
  <!-- Generator: Adobe Illustrator 29.1.0, SVG Export Plug-In . SVG Version: 2.1.0 Build 142)  -->
  <defs>
    <style>
      .st0 {
        fill: #08241a;
        fill-rule: evenodd;
      }
    </style>
  </defs>
  <path class="st0" d="M8,57c-.5,0-1-.4-1-1s.4-1,1-1h4.4v-5h-.1c-3-.5-5.3-3.3-5.3-6.3s.4-2.5,1-3.5h0s0,0,0,0c0-.3,0-.6,0-.9,0-.8.2-1.7.6-2.4h0s0,0,0,0c0-.3,0-.6,0-.9,0-2.7,2.2-4.9,4.9-4.9s4.9,2.2,4.9,4.9,0,.6,0,.9h0s0,0,0,0c.4.7.6,1.6.6,2.4s0,.6,0,.9h0s0,0,0,0c.6.9.9,2,1,3h.2V12.4h-.1c-.5,0-.9-.5-.9-1v-3.4c0-.5.4-1,1-1h24c.5,0,1,.4,1,1v3.4c0,.5-.4.9-.9,1h-.1v30.8h.2c0-1.1.4-2.1,1-3h0s0,0,0,0c0-.3,0-.6,0-.9,0-.8.2-1.7.6-2.4h0s0,0,0,0c0-.3,0-.6,0-.9,0-2.7,2.2-4.9,4.9-4.9s4.9,2.2,4.9,4.9,0,.6,0,.9h0s0,0,0,0c.4.7.6,1.6.6,2.4s0,.6,0,.9h0s0,0,0,0c.7,1,1,2.2,1,3.5,0,3.1-2.3,5.8-5.3,6.3h-.1v5h4.2c.5,0,1,.4,1,1s-.4,1-1,1H8ZM44,44.1v7.5h0c.4.2.7.5.7,1v2.5h4.9v-5h-.1c-2.9-.5-5.1-3-5.3-5.9h-.2ZM21.2,55h21.5v-1.5h-21.5v1.5ZM19.7,44.1c-.2,2.9-2.4,5.4-5.3,5.9h-.1v5h4.9v-2.5c0-.4.3-.8.7-.9h0v-7.5h-.2ZM35.9,39.5c.5,0,1,.4,1,1v11.1h5.1V12.4h-20.1v39.2h5.1v-11.1c0-.5.4-1,1-1h7.8ZM29.1,51.6h5.9v-10.1h-5.9v10.1ZM50.6,32.9c-1.6,0-2.9,1.3-2.9,3s0,.6.1.8c0,.3,0,.6-.1.8-.3.5-.5,1.2-.5,1.8s0,.6.1.9c0,.3,0,.6-.2.8-.6.8-.9,1.7-.9,2.7,0,2.4,2,4.4,4.4,4.4s4.4-2,4.4-4.4-.3-1.9-.9-2.7c-.2-.2-.2-.6-.2-.8,0-.3.1-.6.1-.9,0-.6-.2-1.3-.5-1.8-.1-.2-.2-.5-.1-.8,0-.3.1-.6.1-.8,0-1.6-1.3-3-2.9-3ZM13.4,32.9c-1.6,0-2.9,1.3-2.9,3s0,.6.1.8c0,.3,0,.6-.1.8-.3.5-.5,1.2-.5,1.8s0,.6.1.9c0,.3,0,.6-.2.8-.6.8-.9,1.7-.9,2.7,0,2.4,2,4.4,4.4,4.4s4.4-2,4.4-4.4-.3-1.9-.9-2.7c-.2-.2-.2-.6-.2-.8,0-.3.1-.6.1-.9,0-.6-.2-1.3-.5-1.8-.1-.2-.2-.5-.1-.8,0-.3.1-.6.1-.8,0-1.6-1.3-3-2.9-3ZM21,10.4h22v-1.5h-22v1.5ZM34.2,37.5c-.5,0-1-.4-1-1v-4.2c0-.5.4-1,1-1h4.4c.5,0,1,.4,1,1v4.2c0,.5-.4,1-1,1h-4.4ZM35.2,35.6h2.4v-2.2h-2.4v2.2ZM25.4,37.5c-.5,0-1-.4-1-1v-4.2c0-.5.4-1,1-1h4.4c.5,0,1,.4,1,1v4.2c0,.5-.4,1-1,1h-4.4ZM26.4,35.6h2.4v-2.2h-2.4v2.2ZM34.2,29.7c-.5,0-1-.4-1-1v-4.2c0-.5.4-1,1-1h4.4c.5,0,1,.4,1,1v4.2c0,.5-.4,1-1,1h-4.4ZM35.2,27.7h2.4v-2.2h-2.4v2.2ZM25.4,29.7c-.5,0-1-.4-1-1v-4.2c0-.5.4-1,1-1h4.4c.5,0,1,.4,1,1v4.2c0,.5-.4,1-1,1h-4.4ZM26.4,27.7h2.4v-2.2h-2.4v2.2ZM34.2,22c-.5,0-1-.4-1-1v-4.2c0-.5.4-1,1-1h4.4c.5,0,1,.4,1,1v4.2c0,.5-.4,1-1,1h-4.4ZM35.2,20.1h2.4v-2.2h-2.4v2.2ZM25.4,22c-.5,0-1-.4-1-1v-4.2c0-.5.4-1,1-1h4.4c.5,0,1,.4,1,1v4.2c0,.5-.4,1-1,1h-4.4ZM26.4,20.1h2.4v-2.2h-2.4v2.2Z"/>
</svg>