<?xml version="1.0" encoding="UTF-8"?>
<svg id="Design_Convert" xmlns="http://www.w3.org/2000/svg" version="1.1" viewBox="0 0 64 64">
  <!-- Generator: Adobe Illustrator 29.1.0, SVG Export Plug-In . SVG Version: 2.1.0 Build 142)  -->
  <defs>
    <style>
      .st0 {
        fill: #08241a;
      }
    </style>
  </defs>
  <path class="st0" d="M28.7,56.9c-.2,0-.4,0-.6,0-11.5-.3-21-10-21-21.6S16.6,13.9,28.2,13.6c.3,0,.8,0,1.2,0,.5,0,.8.5.8,1,0,.5-.5.8-1,.8-.2,0-.3,0-.4,0-.2,0-.3,0-.4,0-10.7.3-19.4,9.2-19.4,19.8s8.7,19.6,19.3,19.8c.2,0,.4,0,.5,0,.2,0,.3,0,.4,0,9-.2,16.7-6.5,18.8-15.2,0-.4.4-.7.9-.7s.9.4.9.9,0,.2,0,.2c-2.3,9.5-10.7,16.3-20.4,16.6-.1,0-.3,0-.6,0Z"/>
  <path class="st0" d="M28.7,56.9c-.2,0-.4,0-.6,0-6-.6-10.6-9.9-10.6-21.6s4.6-21,10.6-21.6c.4,0,.8,0,1.3,0h.3c.4,0,2.4.2,4.2.9.5.2.7.7.5,1.2-.2.5-.7.7-1.2.5-1.7-.7-3.7-.7-3.7-.7,0,0-.1,0-.2,0h-.3c0,0-.2,0-.3,0-.2,0-.3,0-.4,0-5,.5-9,9.4-9,19.8s4,19.3,9,19.8c.2,0,.3,0,.5,0s.3,0,.4,0c4.3-.4,8-7.2,8.8-16.2,0,0,.5-4.6.1-6.6,0-.5.2-1,.7-1,.5,0,1,.2,1,.7.4,2.3,0,6.9-.1,7.1-.9,9.9-5.2,17.2-10.4,17.8-.2,0-.4,0-.6,0Z"/>
  <path class="st0" d="M28.8,56.9c-.5,0-.9-.4-.9-.9V14.5c0-.5.4-.9.9-.9s.9.4.9.9v41.5c0,.5-.4.9-.9.9Z"/>
  <path class="st0" d="M41.1,36.1H8c-.5,0-.9-.4-.9-.9s.4-.9.9-.9h33.1c.5,0,.9.4.9.9s-.4.9-.9.9Z"/>
  <path class="st0" d="M46.5,46.5H10.8c-.5,0-.9-.4-.9-.9s.4-.9.9-.9h35.7c.5,0,.9.4.9.9s-.4.9-.9.9Z"/>
  <path class="st0" d="M33.9,25.8H11.6c-.5,0-.9-.4-.9-.9s.4-.9.9-.9h22.3c.5,0,.9.4.9.9s-.4.9-.9.9Z"/>
  <path class="st0" d="M44.3,25.8c-3.4,0-6.1-2.7-6.1-6.1s2.7-6.1,6.1-6.1,6.1,2.7,6.1,6.1-2.7,6.1-6.1,6.1ZM44.3,15.4c-2.4,0-4.3,1.9-4.3,4.3s1.9,4.3,4.3,4.3,4.3-1.9,4.3-4.3-1.9-4.3-4.3-4.3Z"/>
  <path class="st0" d="M44.6,40h0c-.3,0-.6-.1-.7-.4l-9.2-13s0,0-.1-.1c-1.5-2.1-2.2-4.6-2.2-7.1,0-6.8,5.5-12.3,12.2-12.3s12.2,5.5,12.2,12.3-.8,5-2.2,7.1c0,0,0,0,0,0l-9.3,13.1c-.2.2-.4.4-.7.4ZM36,25.4s0,0,.1.1l8.5,12.1,8.4-12c0,0,0-.2.2-.2,1.2-1.8,1.8-3.8,1.8-6,0-5.8-4.7-10.5-10.4-10.5s-10.4,4.7-10.4,10.5.6,4.2,1.8,6Z"/>
  <path class="st0" d="M48.7,41.7c0,0-.2,0-.2,0-.5-.1-.8-.6-.6-1.1,0,0,1.1-3.8,1.4-8.6,0-.5.5-.9,1-.8.5,0,.9.5.8,1-.4,5.1-1.5,8.8-1.5,9-.1.4-.5.7-.9.7Z"/>
</svg>