<?xml version="1.0" encoding="UTF-8"?>
<svg id="Design_Convert" xmlns="http://www.w3.org/2000/svg" version="1.1" viewBox="0 0 64 64">
  <!-- Generator: Adobe Illustrator 29.1.0, SVG Export Plug-In . SVG Version: 2.1.0 Build 142)  -->
  <defs>
    <style>
      .st0 {
        fill: #08241a;
      }
    </style>
  </defs>
  <path class="st0" d="M47,57h-30c-2.8,0-5-2.2-5-5v-15h-1.2c-1.5,0-2.8-1-3.3-2.4-.8-1.9-.6-4,.8-5.6L25.3,10.1c3.1-3.7,8.7-4.2,12.4-1,.4.3.7.7,1,1l17.1,18.9h0c1.3,1.6,1.6,3.7.8,5.6-.5,1.4-1.8,2.3-3.3,2.4h-1.2v15c0,2.8-2.2,5-5,5ZM32,9c-2,0-3.9.9-5.2,2.5L9.7,30.4c-.8,1-.9,2.3-.4,3.4.2.6.8,1.1,1.5,1.2h2.2c.6,0,1,.4,1,1v16c0,1.7,1.3,3,3,3h30c1.7,0,3-1.3,3-3v-16c0-.6.4-1,1-1h2.2c.7,0,1.2-.5,1.5-1.2.5-1.1.3-2.5-.4-3.4h0l-17.1-18.9c-1.3-1.5-3.2-2.4-5.2-2.5Z"/>
  <path class="st0" d="M38,44h-12c-.6,0-1-.4-1-1v-16c0-3.9,3.1-7,7-7s7,3.1,7,7v16c0,.6-.4,1-1,1ZM27,42h10v-15c0-2.8-2.2-5-5-5s-5,2.2-5,5v15Z"/>
</svg>