<?xml version="1.0" encoding="UTF-8"?>
<svg id="Design_Convert" xmlns="http://www.w3.org/2000/svg" version="1.1" viewBox="0 0 64 64">
  <!-- Generator: Adobe Illustrator 29.1.0, SVG Export Plug-In . SVG Version: 2.1.0 Build 142)  -->
  <defs>
    <style>
      .st0 {
        fill: #08241a;
      }
    </style>
  </defs>
  <path class="st0" d="M36.1,29.8c-.3,0-.6,0-.8-.2l-3.2-1.9-3.2,1.9c-.6.3-1.3.3-1.8,0-.6-.4-.8-1.1-.7-1.7l.8-3.5-2.8-2.4c-.5-.4-.7-1.2-.5-1.8.2-.6.8-1,1.4-1.1l3.7-.3,1.5-3.3c.3-.6.9-1,1.5-1s1.3.4,1.5,1l1.5,3.3,3.7.3c.6,0,1.2.5,1.4,1.1.2.6,0,1.3-.5,1.7l-2.8,2.4.8,3.5c.2.7-.1,1.3-.7,1.7-.3.2-.6.3-.9.3ZM28,28.2h0s0,0,0,0ZM25.8,20.8l2.9,2.5c.3.2.4.6.3.9l-.9,3.7,3.4-2c.3-.2.6-.2.9,0l3.4,2-.9-3.7c0-.3,0-.7.3-.9l2.9-2.5-3.9-.3c-.3,0-.6-.2-.7-.5l-1.6-3.5-1.6,3.5c-.1.3-.4.5-.7.5l-3.9.3ZM38.5,20.8s0,0,0,0h0ZM25.4,20.8h0s0,0,0,0ZM31.9,16.1s0,0,0,0h0ZM31.3,15.7h0,0Z"/>
  <path class="st0" d="M42.4,56.9h-20.9c-.5,0-.9-.4-.9-.9,0-3.4,2.7-6.1,6.1-6.1h10.4c3.4,0,6.1,2.7,6.1,6.1s-.4.9-.9.9ZM42.4,56h0,0ZM22.6,55.1h18.9c-.4-2-2.2-3.4-4.2-3.4h-10.4c-2.1,0-3.8,1.5-4.2,3.4Z"/>
  <path class="st0" d="M27.8,51.7c-.5,0-.9-.4-.9-.9v-2c0-3.2-1.1-6.3-3.2-8.8-4.7-5.6-7.3-12.7-7.3-20v-11.9c0-.5.4-.9.9-.9h29.2c.5,0,.9.4.9.9v11.9c0,7.3-2.6,14.4-7.3,20-2,2.5-3.2,5.6-3.2,8.8v2c0,.5-.4.9-.9.9s-.9-.4-.9-.9v-2c0-3.6,1.3-7.2,3.6-9.9,4.4-5.3,6.8-12,6.8-18.9v-11h-27.4v11c0,6.9,2.4,13.6,6.8,18.9,2.3,2.8,3.6,6.3,3.6,9.9v2c0,.5-.4.9-.9.9Z"/>
  <path class="st0" d="M41.4,38.1c-.3,0-.6-.2-.8-.4-.3-.4-.1-1,.3-1.2,8.1-5,13.1-14,13.1-23.5v-.9h-7.4c-.5,0-.9-.4-.9-.9s.4-.9.9-.9h8.3c.5,0,.9.4.9.9v1.8c0,10.1-5.4,19.7-14,25-.1,0-.3.1-.5.1Z"/>
  <path class="st0" d="M22.6,38.1c-.2,0-.3,0-.5-.1-8.6-5.3-14-14.9-14-25v-1.8c0-.5.4-.9.9-.9h8.3c.5,0,.9.4.9.9s-.4.9-.9.9h-7.4v.9c0,9.5,5,18.5,13.1,23.5.4.3.6.8.3,1.2-.2.3-.5.4-.8.4Z"/>
</svg>