<?xml version="1.0" encoding="UTF-8"?>
<svg id="Design_Convert" xmlns="http://www.w3.org/2000/svg" version="1.1" viewBox="0 0 70 64">
  <!-- Generator: Adobe Illustrator 29.1.0, SVG Export Plug-In . SVG Version: 2.1.0 Build 142)  -->
  <path d="M31.4,43.8c-.9,1.5-2.3,1.3-3.6,1.3-8.2,0-16.4,0-24.5,0-.3,0-.7,0-1,0-.3-.1-.5-.5-.7-.7.3-.2.5-.6.8-.6,1,0,2,0,3,0,.1,0,.2,0,.4,0v-11.2c-.3.3-.5.4-.6.6-.9.9-2.1,1-2.9.1-.8-.8-.8-2.1,0-3,2.4-2.6,4.7-5.1,7.1-7.7,2.6-2.8,5.2-5.6,7.7-8.4,1.1-1.1,2-1.1,3,0,1.4,1.5,2.8,3,4.2,4.6.1.1.2.2.5.4,0-.6,0-1.1,0-1.5,0-.6.3-1,.9-1,.7,0,1.3,0,2,0,.8,0,1.1.3,1.1,1.2,0,1.7,0,3.4,0,5.1,0,.4.2.9.4,1.1,1.9,2.1,3.8,4.1,5.7,6.2.8.9.8,2.1,0,2.9-.8.8-2,.9-2.9,0-.2-.2-.3-.4-.5-.7,0,0-.1,0-.2.1v5c.2-.1.3-.2.4-.4,2-2.2,4.1-4.4,6.1-6.6.3-.3.4-.8.5-1.2,0-.9,0-1.7,0-2.8-.3.3-.4.4-.6.5-1,1-2.2,1.1-3,.2-.8-.9-.8-2.1.2-3.2,2.8-3,5.5-5.9,8.3-8.9,2.2-2.3,4.3-4.6,6.5-7,1.1-1.2,2-1.2,3.1,0,1.5,1.6,3,3.3,4.7,5.1,0-.7,0-1.1,0-1.5,0-.7.3-1,1-1,.6,0,1.3,0,1.9,0,.8,0,1.1.3,1.1,1.2,0,1.7,0,3.4,0,5,0,.5.2.9.5,1.3,1.9,2,3.8,4,5.6,6.1.6.6.8,1.4.5,2.2-.3.8-.8,1.3-1.6,1.3-.5,0-1.1-.2-1.6-.5-.3-.1-.4-.5-.8-.7,0,.3,0,.5,0,.8,0,3.1,0,6.1,0,9.2,0,1.8-.8,2.5-2.5,2.5-.9,0-1.8,0-2.8,0,.7.8,1.3,1.4,1.8,2,1,1,1,2.3.2,3.2-.9.9-2.1.8-3.1-.2-.1-.1-.3-.2-.5-.5v11.2c1,0,2,0,3,0,.2,0,.5,0,.7,0,.2.1.5.4.5.6,0,.2-.3.5-.5.7-.2.1-.5,0-.8,0-10.5,0-21.1,0-31.6,0-.5,0-1.2.2-1.3-.7,0-.9.7-.7,1.3-.7,1,0,1.9,0,2.9,0v-11.1c0,0-.1-.1-.2-.2ZM44.5,29.9c-.1,0-.2.1-.3.2-3.7,4-7.3,7.9-10.9,11.9-.2.2-.3.6-.3.9,0,1.7,0,3.4,0,5,0,2,0,4.1,0,6.1,0,.5,0,1,.6,1,.9,0,1.9,0,2.9,0,0-.4,0-.7,0-.9,0-2.4,0-4.7,0-7.1,0-1,.5-1.5,1.5-1.5,1.3,0,2.6,0,3.9,0,1.2,0,1.7.5,1.7,1.7,0,2.3,0,4.6,0,7,0,.3,0,.6,0,.9.3,0,.6,0,.8,0,3.5,0,7,0,10.5,0,1,0,1.2-.2,1.2-1.3,0-3.6,0-7.2,0-10.8,0-.4-.2-.9-.4-1.1-2.3-2.6-4.7-5.1-7-7.6-1.3-1.5-2.7-2.9-4-4.4ZM27.5,43.7c-.3-1.2.3-1.9,1-2.6.4-.4.8-.8,1.2-1.3.2-.3.4-.8.5-1.2,0-2.2,0-4.5,0-6.7,0-.6-.2-1.1-.6-1.5-3.5-3.7-6.9-7.5-10.3-11.2-.2-.2-.2-.5-.4-.8-4,4.3-7.7,8.3-11.4,12.4-.2.2-.3.5-.3.8,0,1.4,0,2.8,0,4.2,0,2.3,0,4.7,0,7,0,.5,0,1,.7,1,.9,0,1.8,0,2.8,0,0-.4,0-.6,0-.9,0-2.3,0-4.7,0-7,0-1.1.5-1.6,1.5-1.6,1.3,0,2.6,0,3.9,0,1.1,0,1.6.5,1.6,1.6,0,2.3,0,4.7,0,7,0,.3,0,.6,0,.9h9.9ZM50.8,30v.3c-.1-.4-.1-.8-.1-1.2,0-.8.3-1.2,1.2-1.2.6,0,1.2,0,1.8,0,.8,0,1.1.4,1.1,1.2,0,1,.1,1.9,0,2.9-.3,2.1.4,3.7,2,5,.6.5,1.2,1,2.1.9,1,0,2,0,3,0,1,0,1.1-.1,1.1-1.2,0-3.7,0-7.3,0-11,0-.4-.2-.8-.4-1.1-3.5-3.8-7-7.6-10.5-11.5-.2-.2-.2-.5-.3-.7-4,4.3-7.7,8.3-11.4,12.3-.1.1-.3.3-.3.4,0,1.1,0,2.1,0,3,1-.9,2-1.9,3-2.9,1.2-1.2,2-1.2,3.2,0,1.6,1.5,3.2,3,4.8,4.5ZM2.9,31.7c.1.2.2.5.4.6.2,0,.5,0,.7,0,.3-.2.5-.4.7-.7,4.3-4.7,8.6-9.3,12.9-14,.8-.9,1.3-.9,2.1,0,2.1,2.3,4.2,4.6,6.4,6.9,2.3,2.5,4.6,5,7,7.5.3.4.7.6,1.1.2.4-.4.2-.8-.1-1.1,0,0,0,0-.1-.1-4.9-5.3-9.8-10.6-14.7-15.9-.4-.4-.7-.4-1.1,0-4.9,5.3-9.8,10.6-14.8,16-.2.2-.3.4-.4.7ZM36.3,26.8c.3-.3.6-.5.8-.7,4.4-4.7,8.7-9.5,13.1-14.2.9-1,1.3-1,2.2,0,4.3,4.7,8.6,9.3,12.9,14,.4.4.7,1.2,1.4.5.7-.6,0-1.1-.4-1.4-4.8-5.2-9.6-10.3-14.3-15.5q-.7-.7-1.3,0c-4.2,4.6-8.5,9.2-12.7,13.8-.7.7-1.4,1.4-2,2.2-.2.2-.2.6-.2.8,0,.2.3.3.5.5ZM44.4,28.1c.4.3.8.5,1,.8,4.4,4.7,8.8,9.5,13.1,14.2.2.2.3.4.5.5.2,0,.6,0,.8,0,.1-.2.1-.5,0-.8,0-.2-.2-.3-.4-.5-4.8-5.2-9.7-10.4-14.5-15.7-.5-.5-.8-.6-1.3,0-3.2,3.5-6.4,7-9.6,10.4-1.7,1.8-3.3,3.6-5,5.4-.3.4-.7.7-.2,1.2.5.5.8.1,1.2-.3.3-.4.7-.7,1-1.1,4.1-4.4,8.2-8.9,12.3-13.3.3-.3.6-.5,1-.9ZM16.2,43.7v-8.1h-4.1v8.1h4.1ZM42,55v-8.1h-4.1v8.1h4.1ZM52.2,29.4c-.4,2,0,3.1,1.2,3.8v-3.8h-1.2ZM27.5,18.1h-1.2c-.3,2.2,0,3.2,1.2,3.7v-3.7ZM59.1,12.3c-.5,1.8-.2,2.9,1.2,3.8v-3.8h-1.2Z"/>
  <path d="M46.6,48.7c0-.6,0-1.2,0-1.9,0-.9.5-1.4,1.3-1.4,1.2,0,2.4,0,3.6,0,.9,0,1.3.5,1.4,1.4,0,1.3,0,2.5,0,3.8,0,.9-.5,1.4-1.4,1.4-1.2,0-2.3,0-3.5,0-.9,0-1.4-.5-1.4-1.5,0-.6,0-1.2,0-1.9ZM48,46.9v3.7h3.5v-3.7h-3.5Z"/>
  <path d="M44.5,34.8c1.8,0,3.2,1.5,3.2,3.3,0,1.8-1.4,3.3-3.1,3.3-1.8,0-3.2-1.5-3.2-3.3,0-1.8,1.4-3.3,3.2-3.3ZM44.5,40c1,0,1.8-.9,1.8-1.9,0-1-.9-1.8-1.8-1.8-1,0-1.8.9-1.8,1.9,0,1,.8,1.9,1.8,1.9Z"/>
  <path d="M27.1,37.4c0,.6,0,1.3,0,1.9,0,.8-.4,1.3-1.2,1.4-1.3,0-2.6,0-3.9,0-.8,0-1.2-.6-1.2-1.4,0-1.3,0-2.5,0-3.8,0-.9.5-1.4,1.3-1.4,1.2,0,2.4,0,3.6,0,.9,0,1.4.5,1.4,1.4,0,.6,0,1.2,0,1.9ZM25.7,35.6h-3.6v3.7h3.6v-3.7Z"/>
  <path d="M15.5,26.7c0-1.8,1.4-3.3,3.2-3.3,1.8,0,3.2,1.5,3.2,3.3,0,1.8-1.4,3.3-3.2,3.3-1.8,0-3.2-1.5-3.1-3.3ZM20.5,26.7c0-1-.8-1.9-1.8-1.9-1,0-1.8.8-1.8,1.9,0,1.1.8,1.9,1.9,1.9,1,0,1.8-.9,1.8-1.9Z"/>
  <path d="M51.4,24.3c-1.8,0-3.2-1.4-3.2-3.3,0-1.9,1.4-3.4,3.2-3.3,1.8,0,3.2,1.5,3.1,3.3,0,1.8-1.4,3.3-3.2,3.3ZM51.4,22.9c1,0,1.8-.9,1.8-1.9,0-1-.8-1.8-1.8-1.8-1,0-1.8.8-1.8,1.9,0,1,.8,1.9,1.8,1.9Z"/>
</svg>