<?xml version="1.0" encoding="UTF-8"?>
<svg id="Design_Convert" xmlns="http://www.w3.org/2000/svg" version="1.1" viewBox="0 0 64 64">
  <!-- Generator: Adobe Illustrator 29.1.0, SVG Export Plug-In . SVG Version: 2.1.0 Build 142)  -->
  <path d="M30.6,29.2c-1,0-1.9.1-2.9.2-2.7,0-5.4-.2-7.9-1.3-4-1.8-6.3-4.9-7.5-9-.9-3.2-1.1-6.4-.7-9.7,0-.9.2-1,1.1-1.1,4.5-.5,9-.1,13.1,2.1,2.9,1.6,5,4,6.1,7.1,0,.1,0,.3.1.4,0,0,0,0,0,0,0,0,0-.1.1-.2,1.6-4.7,5-7.5,9.6-8.8,3.2-.9,6.5-1.1,9.9-.7.4,0,.7.2.8.7.5,4.6.2,9.1-2,13.3-2,3.9-5.3,6-9.5,6.9-2.4.5-4.8.4-7.2.1,0,0-.2,0-.4,0,.2,2.5.4,5,.7,7.7,1.1-.7,2-1.2,2.9-1.8,2.6-1.7,5.3-3,8.4-3.4,2.2-.3,4.2,0,6.2,1.1,1.8,1,3.5,2,5.3,2.9.4.2.6.6.6,1.1,0,4.7,0,9.3,0,14,0,.8-.3,1.1-1.1,1-4.3-.5-8.4.3-12.3,2.2-3.7,1.8-7.6,2.4-11.7,2.1-4.2-.3-7.9-1.7-11.4-4-4.1-2.7-8.3-5.2-12.5-7.8-2.1-1.3-2.5-3.7-.9-5.6.6-.6,1.3-1,2-1.5.2-.1.4-.3.5-.5.9-1.3,2.1-2.1,3.6-2.3.2,0,.5-.1.7-.3,1.8-1.5,4-1.7,6-.5,2.6,1.5,5.2,3,7.8,4.6,1.2.7,1.5.8,1.7-.7.2-2.6.5-5.3.7-7.9,0-.1,0-.2,0-.3ZM55.9,50c0-.2,0-.3,0-.4,0-4.1,0-8.2,0-12.3,0-.3-.1-.5-.4-.6-1.6-.9-3.1-1.7-4.7-2.6-1.7-1-3.5-1.2-5.4-.9-2.6.4-5,1.5-7.2,2.8-1.6,1-3.2,2-4.8,2.8-2.4,1.2-4.9,1.7-7.5,2-1.8.2-3.2,1-3.9,2.8-.7,1.6.3,3.1,2,3.3.4,0,.7,0,1.1,0,2.3-.1,4.6-.5,6.8-1.2,1.8-.5,3.6-1.2,5.4-1.8.7-.2,1.4.1,1.2.8,0,.3-.4.5-.6.6-2.5,1-5.1,1.8-7.8,2.3-2,.4-4.1.8-6.2.7-1.1,0-2.1-.5-2.8-1.4-.9-1.1-1.1-2.4-.6-3.8,0-.2.2-.4-.1-.6-2.2-1.3-4.4-2.7-6.7-4-1.7-1-3.8-.5-5,1-1,1.2-.8,2.4.6,3.3,4.1,2.6,8.3,5.1,12.4,7.7,3.3,2.1,6.8,3.5,10.7,3.8,3.8.3,7.5-.3,11-2,2.8-1.4,5.9-2.2,9-2.4,1.1,0,2.3,0,3.5,0ZM13.1,9.6c0,0,0,.1,0,.1,0,.1,0,.2,0,.4-.2,3.1,0,6.2,1,9.2,1.3,3.9,3.9,6.6,7.9,7.8,2.3.7,4.7.8,7.2.6.3,0,.5,0,.9,0-.2-.2-.3-.4-.5-.5-3.5-3.5-7-7-10.5-10.6-.1-.1-.2-.2-.3-.3-.3-.4-.3-.8,0-1.1.3-.3.7-.3,1.1,0,.1.1.2.2.3.3,3.5,3.5,7.1,7.1,10.6,10.6.1.1.1.3.2.5l.2-.2c0-.1,0-.2,0-.4.2-1.8.2-3.7,0-5.5-.7-4.6-3.1-7.9-7.5-9.7-3.3-1.4-6.8-1.6-10.4-1.3ZM34,27.6c.2,0,.2,0,.3.1,2.1.2,4.3.2,6.4-.2,4-.8,6.9-2.9,8.7-6.6,1.6-3.3,1.9-6.9,1.7-10.5,0-.2,0-.5,0-.7-3.2-.3-6.3-.1-9.4.9-3.9,1.3-6.7,3.7-8,7.7-.8,2.3-.9,4.8-.7,7.2,0,.4,0,.7.1,1.1,0,0,.1,0,.2,0,.1-.2.2-.3.4-.5,3.8-3.8,7.6-7.6,11.4-11.4.1-.1.2-.3.4-.4.3-.2.7-.2.9.1.2.2.1.6.1.9,0,.1-.2.2-.3.4-3.1,3.1-6.1,6.2-9.2,9.2-.9.9-1.8,1.7-2.7,2.7ZM12.4,36.4c.9.4,1.8.7,2.6,1.1,1.1.6,2.2,1.3,3.3,2,1.1.6,2.1,1.3,3.2,1.9.5-.4.9-.8,1.4-1.2-2.4-1.4-4.7-2.8-7.1-4.1-1.2-.6-2.4-.4-3.4.3ZM16.4,34.6c0,0,0,.1,0,.1,2.6,1.5,5.2,3,7.8,4.5.1,0,.3.2.4.2.7,0,1.3-.2,2.1-.4-2.6-1.5-5.1-3-7.6-4.4-.9-.5-1.9-.4-2.8,0ZM31.4,38c.2,0,.4-.2.6-.2.5-.1.6-.4.5-.9-.1-.8-.2-1.6-.3-2.4,0-.5-.1-.9-.2-1.4,0,0,0,0,0,0-.2,1.6-.4,3.2-.6,4.9Z"/>
</svg>