<?xml version="1.0" encoding="UTF-8"?>
<svg id="Layer_1" xmlns="http://www.w3.org/2000/svg" version="1.1" viewBox="0 0 250 250">
  <!-- Generator: Adobe Illustrator 29.7.1, SVG Export Plug-In . SVG Version: 2.1.1 Build 8)  -->
  <path d="M157.71,192.9c-2.57-.52-5.3-1.25-7.92-1.41-10.12-.63-19.7,2.3-29.89.63-14.43-2.37-28.16-13.73-37.86-24.12-3.36-3.59-8.74-9.61-10.59-14.06-.73-1.75-.27-3.43-2.54-3.68-5.13-.57-10.12.7-15.32-1.27-5.18-1.96-8.79-8.07-8.05-13.57.55-4.07,5.47-2.1,8.15-2.21,4.12-.16,3.15-2.86,3.61-5.85,1.53-9.88,5.43-21.15,11.21-29.34,9.81-13.91,26.22-22.05,42.45-25.98.68-.67-.51-4.3-.48-5.54.24-11.73,19.54-13.65,19.62.69,0,1.02-.77,3.86.11,4.47.62.43,5.5,1,6.78,1.28,25.12,5.54,44.77,25.38,49.46,50.77.52,2.8.68,5.64,1.25,8.42.19.27.39.53.68.7,1.33.79,4.67-.12,6.32-.12,2.7,0,4.63,1.46,4.49,4.28-.17,3.34-1.9,5.99-4.03,8.42-6.4,7.31-12.09,4.01-20.51,4.84-.64.06-1.63.2-1.5,1.02l9.69,10.85c.66.3,1.72-1,2.52-1.4,1.76-.87,3.24-1,5.13-.5,3.33.88,12.31,8.16,13.55,11.33s.06,5.6-1.75,8.17c-7.52,8.09-13.89,17.56-21.41,25.6-2.88,3.08-5.26,5.88-9.92,4.39-2.77-.89-8.69-6.02-10.94-8.19-2.8-2.7-2.29-4.95-2.32-8.62ZM119.65,62.75c-1.27.24-3.18,2.01-3.38,3.3-.29,1.9,1.16,4.48,3.09,4.71,7.43.89,5.96-9.07.29-8.02ZM119.66,76.82c-17.49.95-36.96,10.88-46.91,25.44-4.89,7.14-9.81,19.87-10.18,28.54-.03.76-.02,1.41.56,1.97l44.5.22c22.15-.85,44.66,1.34,66.8.21,2.35-.12,4.72-.03,7.05-.55.77-.53.07-4.92-.08-5.94-1.12-7.45-3.74-13.67-7.58-20.07-11.64-19.39-31.1-31.07-54.15-29.81ZM51.75,138.97c-1.04,1.09,3.15,4.2,3.99,4.64,2.15,1.14,4.37.72,6.71,1.13,33.1.02,66.24.04,99.31-.25,7.45-.07,16.02.59,23.29.02,2.55-.2,5.1-1.15,6.65-3.25,1.46-1.98,1.12-2.73-1.36-2.85-9.54-.45-20.07.11-29.73.11-13.4,0-26.89.25-40.3-.02-21.21.81-43.18-1.04-64.31,0-1.35.07-2.88.37-4.25.48ZM136.07,150.72c-.99-1.07-16.14-.37-18.54-.94h-19.38c-.86.28-8.17.34-8.17,1.05,2.45,2.54,9.51,7.64,10.08,11.11.22,1.33-.5,2.55-1.91,2.61-3.42.14-9.68-7.1-12.32-9.35-1.26-1.07-7.27-5.83-8.73-4.92-.49,1.51.9,3.49,1.72,4.79,6.46,10.19,21.97,24.02,33.12,28.63,15.43,6.39,26.98.78,42.17,2.76,1.94.25,5.35,1.38,6.95,1.37,2.33-.01,4.29-3.81,5.65-5.43,1.55-1.86,12.59-14.4,12.59-15.44-5.14-6.49-11.51-15.69-20.55-16.47-7.87-.68-16.96,4.61-24.76,6.34-6.35,1.41-12.63,1.17-18.94,2.26-3.41.59-10.51,2.09-4.18,5.64,5.25,2.95,12.73,2.96,18.63,2.82,4.15-.1,13.27-1.49,16.58,1.14,1.32,1.05,1.53,2.74.1,3.79-2,1.46-5.4.27-7.71.13-9.16-.54-17.59,2.33-26.73-1.15-6.02-2.29-13.48-8.46-6.33-14.41,8.18-6.81,20.43-2.64,29.5-5.53.22-.07,1.57-.35,1.15-.8ZM188.54,165.73c-1.02.21-5.38,5.59-6.38,6.76-5.09,5.95-10.38,12.28-15.21,18.43-.77.98-3.09,3.71-3.36,4.71-.12.44-.2.7.01,1.15.14.29,2.22,2.27,2.64,2.66,1.06.97,6.4,5.28,7.62,4.83.16-.06,1.67-1.64,1.95-1.95,5.88-6.27,11.95-13.9,17.39-20.63,1.85-2.3,3.71-4.61,5.43-7.01.49-1.29-.65-2.34-1.5-3.12-1.21-1.1-5.57-4.66-6.84-5.37-.6-.34-1.01-.62-1.75-.46Z"/>
  <path d="M77.01,40.65c2.71,2.59-2.04,5.54-2.59,8.2-.83,4.08,6.02,7.57,5.43,13.03-.55,5.07-8.13,7.38-5.19,12.79,1.08,1.99,5.17,4.37,2.2,6.8-2.62,2.14-5.58-1.62-7.01-3.6-3.44-4.78-2.57-7.7.79-12.07.98-1.27,3.08-3,3.23-4.61s-1.96-3.7-2.87-5.2c-2.06-3.4-3.01-6.06-1.52-10.01.9-2.4,4.54-8.19,7.53-5.33Z"/>
  <path d="M53.52,39.94c1.79-.36,3.59.96,3.53,2.82-.06,1.9-3.04,3.76-3.41,6.05-.73,4.52,6.43,7.81,5.37,13.44-.87,4.6-7.83,7.31-5.32,12.21,1.04,2.03,5.1,4.18,2.67,6.79s-5.22-.78-6.68-2.55c-3.62-4.37-3.67-7.8-.33-12.3,1.14-1.55,4.02-3.85,3.78-5.87-.12-1-2.5-3.73-3.18-4.91-1.75-3.06-2.6-5.85-1.38-9.35.56-1.61,3.27-5.99,4.96-6.34Z"/>
  <path d="M64.12,39.93c1.6-.27,3.26.96,3.3,2.6.06,2.09-2.51,3.53-3.19,5.58-1.48,4.45,4.95,7.92,5.26,12.38.38,5.52-6.54,8.08-5.98,12.43.41,3.19,5.87,5.13,3.21,8.32-2.16,2.58-5.26-.83-6.68-2.54-2.86-3.46-3.73-6.57-1.43-10.63,1.06-1.87,4.73-5.17,4.89-6.87.16-1.76-1.81-3.41-2.73-4.88-1.67-2.67-2.73-5.18-2.29-8.42.29-2.13,3.44-7.59,5.64-7.96Z"/>
  <path d="M112.75,85.81c2.36-.2,7.19-.86,7.19,2.58,0,3.54-4.17,2.67-6.34,2.88-17.56,1.76-31.65,16.35-35.3,33.13-.41,1.87-.03,4.42-2.72,4.67-4.18.38-3.04-4.39-2.54-6.93,3.49-17.9,21.38-34.78,39.71-36.33Z"/>
</svg>