<svg width="31" height="32" viewBox="0 0 31 32" fill="none" xmlns="http://www.w3.org/2000/svg">
<path d="M15.5 31.5C24.0604 31.5 31 24.5604 31 16C31 7.43959 24.0604 0.5 15.5 0.5C6.93959 0.5 0 7.43959 0 16C0 24.5604 6.93959 31.5 15.5 31.5Z" fill="#DDDDDD"/>
<path d="M8.20035 18.5C8.60035 18.5 9.00035 18.7 9.00035 19.1C9.00035 19.9 8.90035 21.1 9.00035 21.9C9.10035 22.7 9.00035 22 9.00035 22.1C9.10035 22.3 9.30035 22.4 9.60035 22.4H21.4003C21.7003 22.4 21.8003 22.1 21.9003 21.9C22.0003 21.1 21.9003 20 21.9003 19.2C21.9003 18.4 23.0003 18.3 23.2003 19.2C23.1003 20.9 23.8003 23.4 21.5003 23.8H9.40035C7.00035 23.5 7.70035 20.9 7.60035 19.2C7.60035 18.9 7.90035 18.7 8.10035 18.7L8.20035 18.5Z" fill="#0D251C"/>
<path d="M16.2 17.9008L16.5 17.7008C17.1 17.3008 17.8 16.5008 18.4 16.2008C19 15.9008 19.9 16.6008 19.2 17.3008C18.5 18.0008 17.1 19.1008 16.1 19.7008C15.1 20.3008 15.6 20.1008 15.1 19.8008L11.9 17.2008C11.4 16.7008 11.9 15.9008 12.5 16.1008C12.9 16.4008 13.3 16.7008 13.7 17.0008C14.1 17.3008 14.9 17.0008 14.9 16.5008V8.80078C14.9 8.50078 15.3 8.30078 15.6 8.30078C15.9 8.30078 16.2 8.60078 16.2 8.80078V18.0008V17.9008Z" fill="#0D251C"/>
</svg>
