<svg width="16" height="16" viewBox="0 0 16 16" fill="none" xmlns="http://www.w3.org/2000/svg">
<path d="M8 14.5C10.5 11 12.5 8 12.5 6C12.5 4.80653 12.0259 3.66193 11.182 2.81802C10.3381 1.97411 9.19347 1.5 8 1.5C6.80653 1.5 5.66193 1.97411 4.81802 2.81802C3.97411 3.66193 3.5 4.80653 3.5 6C3.5 8 5.5 11 8 14.5Z" stroke="#FFFDFC"/>
<path d="M10 6C10 6.53043 9.78929 7.03914 9.41421 7.41421C9.03914 7.78929 8.53043 8 8 8C7.46957 8 6.96086 7.78929 6.58579 7.41421C6.21071 7.03914 6 6.53043 6 6C6 5.46957 6.21071 4.96086 6.58579 4.58579C6.96086 4.21071 7.46957 4 8 4C8.53043 4 9.03914 4.21071 9.41421 4.58579C9.78929 4.96086 10 5.46957 10 6Z" stroke="#FFFDFC"/>
</svg>
