<?xml version="1.0" encoding="utf-8"?>
<!-- Generator: Adobe Illustrator 27.3.1, SVG Export Plug-In . SVG Version: 6.00 Build 0)  -->
<svg version="1.1" id="Layer_1" xmlns="http://www.w3.org/2000/svg" xmlns:xlink="http://www.w3.org/1999/xlink" x="0px" y="0px"
	 viewBox="0 0 3170.5 529.93" style="enable-background:new 0 0 3170.5 529.93;" xml:space="preserve">
<style type="text/css">
	.st0{fill:#FFFFFF;}
</style>
<path class="st0" d="M658.52,281.88c24.07-57.77,22.01-102.65-6.22-134.76c-28.19-31.95-81.45-48.04-159.65-48.04H227.77
	l-23.92,57.9h182.36c93.03,0,119.98,46.46,87.88,123.39c-18.55,44.51-34.96,85.43-73.66,103.67
	c-35.41,16.7-72.01,21.59-137.14,21.59l-84.34-0.15l62.98-149.8h-79.44L72.98,468.92h240.05c67.31,0,120.45-6.25,159.65-18.68
	c42.88-13.8,81.35-36.5,115.3-68.05C619.62,352.09,643.12,318.67,658.52,281.88 M2313.99,98.72l0.06,0.27h-98.37l-377.86,354.35
	l147.69-354.27h-161.96l-195.68,153.62l-100.72,82.92h-4.58l47.4-120.78l-57.77-115.76h-162.75l-147.89,354.93l-85.26-354.93H937.97
	L544.14,468.92h98.41l100.67-96.68h248.12l19.77,96.68h263.68l95.31-228.57c4.79-11.46,9.38-24.66,13.87-39.42
	c0.44,11.9,3.68,24.59,9.55,37.95l83.83,190.66h14.16l239.85-189.98c9.01-7.14,22.6-20.01,40.79-38.63
	c-9.31,17.22-15.78,30.34-19.57,39.42l-95.31,228.57h174.07l0.04-0.11h183.52l99.54-97.15h257.73l20.67,97.15h90.59l-88.28-370.09
	H2313.99z M795.15,321.45L952.19,170.9l28.34,150.55H795.15z M2166.54,320.89l161.25-157.3l33.5,157.3H2166.54z M3099.07,98.39
	h-267.25c-78.28,0-144.97,16.11-199.82,48.15c-54.9,32.06-94.45,77.08-118.6,134.86c-15.37,36.75-19.72,70.35-13.14,100.28
	c7.8,31.72,27.21,54.46,58.7,68.24c28.62,12.38,76.75,18.67,144.06,18.67h239.55l23.94-58.71h-134.98
	c-65.02,0-108.37-8.43-129.97-25.19c-23.56-18.15-20.92-60.16-2.53-104.78c32.23-77.08,99.51-125.07,192.53-125.07h104.63
	l-23.97,57.97h79.38L3099.07,98.39z"/>
</svg>
