<?xml version="1.0" encoding="UTF-8"?>
<svg id="Layer_1" xmlns="http://www.w3.org/2000/svg" xmlns:xlink="http://www.w3.org/1999/xlink" version="1.1" viewBox="0 0 1568.7 1114.8">
  <!-- Generator: Adobe Illustrator 29.1.0, SVG Export Plug-In . SVG Version: 2.1.0 Build 142)  -->
  <defs>
    <style>
      .st0 {
        fill: url(#linear-gradient);
      }

      .st1 {
        fill: #fff;
      }
    </style>
    <linearGradient id="linear-gradient" x1="-170.6" y1="1514.3" x2="-170.6" y2="1498.2" gradientTransform="translate(12565.3 63737.6) scale(69.1 -41.8)" gradientUnits="userSpaceOnUse">
      <stop offset="0" stop-color="#b89d5a"/>
      <stop offset=".7" stop-color="#e5c78f"/>
      <stop offset="1" stop-color="#fadaa7"/>
    </linearGradient>
  </defs>
  <g id="Group_138">
    <path id="Path_95" class="st1" d="M254.3,51.1c37.9,0,63.7,7.8,77.4,23.3,13.7,15.5,14.7,37.2,3,65.2-7.9,18.4-19.5,34.9-34.2,48.5h0c-16,15-35.1,26.3-56,33-25.2,6.8-51.3,9.8-77.4,9H50.7l43.4-103.2h38.6l-30.6,72.5h40.9c22.7,1.8,45.5-1.8,66.5-10.4,18.8-8.8,26.8-28.6,35.7-50.2,15.6-37.2,2.5-59.7-42.7-59.7h-88.5l11.6-28h128.6Z"/>
    <path id="Path_96" class="st1" d="M1517.6,51.1l-.6,1.6h1l-22.4,53.8h-38.6l11.7-28h-50.7c-40.8-1.8-78.3,22.5-93.3,60.4-9,21.6-10.3,41.9,1.2,50.7,10.4,8,31.4,12,63,12h65.4l-11.6,28.5h-116.1c-23.6,1.3-47.3-1.7-69.9-9-14.3-5.6-25-18-28.4-33-3-16.4-.8-33.4,6.3-48.6,11.4-27.5,31.6-50.5,57.5-65.2,29.7-16.2,63.1-24.3,96.9-23.3h128.5,0Z"/>
    <path id="Path_97" class="st1" d="M1177.4,51h-39.3v.2h-47.7l-183.4,171.6,71.7-171.5h-78.5l-95,74.4-48.9,40.1h-2.2l23-58.5-28-56h-78.9l-71.7,171.8-41.3-171.8h-86.6l-191.1,179.1h47.8l48.9-46.7h120.4l9.7,46.7h127.9l46.2-110.7c2.6-6.2,4.8-12.6,6.8-19.1.4,6.4,2,12.6,4.7,18.4l40.6,92.3h6.9l116.4-92c6.9-5.9,13.6-12.1,19.8-18.7-4.5,8.3-7.6,14.7-9.5,19.1l-46.2,110.7h173.5l48.4-47h125.1l10,47h44l-43.2-179.2ZM401.1,158.8l76.2-72.9,13.7,72.9h-89.9ZM1066.4,158.5l78.2-76.2,16.3,76.2h-94.5Z"/>
  </g>
  <path id="Union_6" class="st0" d="M737.6,1022.2c-42.1-21.4-80.1-50-112.5-84.4-27.5-30-50.3-64.1-67.7-100.9-1.4.3-2.8.5-4.3.5-10.5,0-19-8.5-19-19s8.5-19,19-19c10.5,0,19,8.5,19,19h0c0,8.5-5.7,16-13.9,18.3,18.8,35.7,42.8,68.3,71.3,96.9,33,32.2,71.4,58.5,113.3,77.7,84,37.5,178.7,43.2,266.6,16.1,86.4-26.8,160.2-83.8,208-160.6,23.5-37.6,39.8-79.3,48.1-122.8,4.1-21.6,6.2-43.5,6.4-65.5,1.1-20-3.8-39.8-14.2-56.9l.3-.2-3-8.2c-108,125.7-154.4,97.2-157.1,82.6-9.2-48.1,64.7-163.6,149-186.3,11.6-3.2,23.6-4.8,35.7-4.8,34.6.5,58.3,9.7,58.3,24.9,0,5.7-2.4,11.2-6.6,15.2-3.7,2-8.1,2.2-11.9.5-7.6-2.7-6-11.9-15.1-17.3-7.9-3.5-16.8-3.7-24.8-.5-61.5,15.1-108.5,95.6-114.4,116.1-6.4,22.6,8.7,32.9,79.4-44.8,3.7-4.3,12.9-16.7,21-26,12.4-14,21.6-21.6,38.9-14,10.8,5.8,17,17.6,15.6,29.8,2.2,30.4,1.4,60.9-2.2,91.2-2.5,24.8-7.1,49.4-13.8,73.4-11.3,47.8-31.3,93.1-59.1,133.5-55,80.8-137.3,139.1-231.8,164.1-32.7,8.8-66.4,13.2-100.3,13.2-61.8,0-122.8-14.3-178.2-41.7ZM758.2,714.3c-18.4-10.3-25.4-35.1-20-63.8,4.3-17.8,11.2-34.9,20.5-50.7,16.3-27.9,33.9-54.9,52.9-81,4.4-6.9,12.3-10.9,20.5-10.3,10.7,0,20.7,5.4,26.4,14.5,3.6,11.8.5,24.7-8.1,33.6-16.8,24.3-82,122-80.5,153.9.3,4-2.7,5.1-5.7,5.1-2.1,0-4.3-.5-6.2-1.5h0ZM448.1,714.3c-18-10.1-25.1-34.2-20.3-62.1-4.5,3.2-9.3,5.9-14.4,8.1-42.2,20.2-86.6,35.5-132.3,45.4-12.5,3-25.7,1.7-37.3-3.8-8.3-5.9-13.9-14.8-15.6-24.9-4.3-31.8,58.3-119.8,79.9-149.6,8.1-10.8,75.6-99.9,109.1-127.9,13-9.7,29.9-12.5,45.4-7.6,9.7,2.7,21,10.2,13.4,17.3-38.7,37-73.8,77.7-104.8,121.5-12.9,17.3-80.5,113.9-74.5,134.4,4.3,14.5,96.1-15.6,110.1-20.5,10.6-3.6,21-6.6,23.4-2.5,4.3-14.8,10.5-29.1,18.3-42.3,16.3-27.9,33.9-54.9,52.9-81,4.4-6.9,12.3-10.9,20.6-10.3,10.7,0,20.7,5.4,26.5,14.5,3.6,11.8.5,24.7-8.1,33.6-16.8,24.3-82.1,122-80.5,153.9.3,4-2.7,5.1-5.7,5.1-2.1,0-4.3-.5-6.2-1.4h0ZM568.5,586.8c10.3-31.8,25.4-77.7,59.9-77.7s30.3,9.2,23.8,23.8c-12.5,27.6-38.9,95.6-38.9,125.3s6.4,7.6,28.6-16.1c35-38.5,64.1-82,86.4-129.1,6.4-15.1,29.2-6.4,28.1,9.7-2.7,36.2-84.2,122.5-109,147.4-14.5,14.5-45.9,41.6-72.9,41.6-41.6,0-14-100-6-124.8h0ZM1015.3,706.7c-42.7-15.1-24.3-76.1,20-142,13.5-20-4.8-12.4-14.5-6.4-24.9,15-47.6,33.3-67.5,54.5-25.8,27.6-49.1,57.4-69.6,89.1-5.4,8.1-20,6.4-31.3,1.1-15.1-7.6-16.7-28.6,6.4-64.8,11.9-18.4,27.5-43.2,43.2-68.1,17.3-27,26-39.9,37.8-55.6,4.1-6.9,12-10.7,20-9.7,7.2.3,14.1,3.1,19.3,8.1,14.1,11.9,4.4,28.6-4.3,42.7-8.1,12.9-19.4,29.2-38.4,54.5,34-38.3,82.6-85.3,134.4-99.9,12.3-5.1,26.4-4.1,37.8,2.7,11,9.9,11.9,26.9,2,37.9-.5.5-1,1-1.5,1.5-15.7,24.3-21.1,32.4-41.6,64.3-16.1,25.4-38.3,63.7-37.8,85.9,0,4.2-3.3,5.5-7.2,5.5-2.5,0-5-.5-7.4-1.3h0ZM541.5,488c-8.1-12.9-4.8-29.9,7.5-38.9,12.3-8.2,28.8-5.1,37.3,7,8.3,12.5,4.9,29.4-7.6,37.8h0c-4.6,3.2-10,4.9-15.6,4.8-8.5,0-16.6-4-21.7-10.8h0ZM851.6,488c-8.1-12.9-4.8-29.9,7.6-38.9,12.4-8.2,29.1-4.8,37.3,7.6,8.2,12.4,4.8,29-7.5,37.2,0,0,0,0,0,0-4.6,3.2-10,4.9-15.5,4.8-8.5,0-16.6-4-21.7-10.8h0Z"/>
</svg>