<svg width="252" height="119" viewBox="0 0 252 119" fill="none" xmlns="http://www.w3.org/2000/svg">
<path d="M103.802 57.9336H87.7932V100.638H46.7815L70.4783 86.6684V43.964L87.7158 43.9887L103.802 57.9336Z" fill="white"/>
<path d="M49.9202 13.7649L12.0829 43.0426H29.4081V57.0042L67.2356 27.7409L49.9202 13.7649Z" fill="white"/>
<mask id="mask0_675_2079" style="mask-type:luminance" maskUnits="userSpaceOnUse" x="70" y="43" width="18" height="58">
<path d="M83.7447 43.985L87.6962 46.1724V44.4455L86.8372 43.985H83.7447ZM74.5246 43.985L87.6962 51.3532V48.7628L79.1061 43.985H74.5246ZM70.4586 46.8632L87.6962 56.4764V53.9436L70.4014 44.2728L70.4586 46.8632ZM70.4586 51.9864L87.6962 61.5996V59.5273V59.0668L70.4586 49.4536V51.9864ZM70.4586 57.1672L87.6962 66.7803V64.19L70.4586 54.5768V57.1672ZM70.4586 62.2903L87.6962 71.9035V69.3707L70.4586 59.7575V62.2903ZM70.5159 67.4711L87.6962 77.0267V74.4939L70.4586 64.8807L70.5159 67.4711ZM70.5159 86.5824L87.6962 100.628V79.6171L70.5159 70.0615V86.5824Z" fill="white"/>
</mask>
<g mask="url(#mask0_675_2079)">
<path d="M396.312 -56.9823V808.671H-119.097V-56.9823H396.312Z" fill="white"/>
</g>
<path fill-rule="evenodd" clip-rule="evenodd" d="M46.8094 96.7925V99.6914V100.413L29.4905 86.7367V83.117L46.8094 96.7925Z" fill="white"/>
<path fill-rule="evenodd" clip-rule="evenodd" d="M46.8094 89.4884V93.1138L29.4905 79.4337V75.8129L46.8094 89.4884Z" fill="white"/>
<path fill-rule="evenodd" clip-rule="evenodd" d="M46.8094 82.1844V85.8098L29.4905 72.1338V68.5084L46.8094 82.1844Z" fill="white"/>
<path fill-rule="evenodd" clip-rule="evenodd" d="M46.8094 57.0933V78.5054L29.4905 64.8293V57.0933H46.8094Z" fill="white"/>
<path d="M131.917 99.6454C131.755 99.4646 131.483 98.9529 131.483 97.5644V73.7674C131.483 72.379 131.755 71.8678 131.917 71.6865C132.193 71.378 132.624 71.2283 133.234 71.2283H133.806V69.9901H124.612V71.2283H125.185C125.795 71.2283 126.226 71.3785 126.503 71.6865C126.665 71.8678 126.937 72.379 126.937 73.7674V84.7012H117.881V73.7674C117.881 72.3732 118.144 71.8603 118.301 71.6784C118.558 71.3797 119.006 71.2283 119.633 71.2283H120.205V69.9901H110.968V71.2283H111.54C112.166 71.2283 112.614 71.3797 112.872 71.6784C113.029 71.8603 113.292 72.3744 113.292 73.7674V97.5644C113.292 98.9575 113.029 99.4715 112.872 99.6534C112.615 99.9522 112.166 100.104 111.54 100.104H110.968V101.341H120.205V100.104H119.633C119.006 100.104 118.558 99.9522 118.3 99.6534C118.144 99.4715 117.881 98.9586 117.881 97.5644V86.6313H126.937V97.5644C126.937 98.9529 126.665 99.4646 126.503 99.6454C126.226 99.9539 125.795 100.104 125.185 100.104H124.612V101.341H133.806V100.104H133.234C132.623 100.104 132.193 99.9539 131.917 99.6454Z" fill="white"/>
<path d="M143.127 72.6027C142.295 73.1012 141.617 73.8219 141.111 74.7447C140.615 75.6478 140.302 76.749 140.182 78.0172C140.061 79.2784 140.211 80.7089 140.629 82.2683L140.777 82.8174L145.151 81.688L144.895 81.0738C144.398 79.8799 144.07 78.796 143.921 77.8525C143.773 76.924 143.752 76.1268 143.856 75.4826C143.952 74.8886 144.131 74.4402 144.387 74.1495C144.678 73.819 144.932 73.7805 145.099 73.7805C145.407 73.7805 145.763 73.9629 146.154 74.3221C146.596 74.728 147.02 75.3911 147.416 76.2931C147.827 77.2309 148.176 78.4691 148.453 79.9732C148.732 81.4912 148.874 83.3338 148.874 85.4498C148.874 87.3765 148.745 89.2335 148.493 90.9691C148.241 92.6949 147.861 94.233 147.362 95.5414C146.875 96.8199 146.271 97.8474 145.565 98.5963C144.912 99.2905 144.167 99.6279 143.291 99.6279C142.412 99.6279 141.66 99.2888 140.991 98.5923C140.275 97.8457 139.664 96.8193 139.177 95.5414C138.678 94.2312 138.297 92.6925 138.047 90.9691C137.794 89.2324 137.666 87.3754 137.666 85.4498C137.666 83.5307 137.815 81.7082 138.108 80.0336C138.399 78.3821 138.859 76.9298 139.475 75.7175C140.078 74.5328 140.84 73.5876 141.741 72.9089C142.622 72.2435 143.637 71.9206 144.841 71.9206H144.951C144.318 72.0271 143.707 72.255 143.127 72.6027ZM178.024 99.6492C177.824 99.4857 177.461 98.9814 177.261 97.4468L173.601 69.3889L167.641 71.1757V72.2665H168.214C168.574 72.2665 168.884 72.2919 169.133 72.3414C169.31 72.3776 169.377 72.4502 169.415 72.5066C169.462 72.5774 169.542 72.7541 169.557 73.1392C169.568 73.4926 169.508 73.9831 169.374 74.6031L165.366 94.0165L159.45 69.9905H144.841C143.006 69.9905 141.323 70.3836 139.841 71.1584C138.363 71.9321 137.094 73.0379 136.071 74.4448C135.06 75.8344 134.277 77.4974 133.744 79.3872C133.216 81.2615 132.948 83.3597 132.948 85.6231C132.948 87.761 133.162 89.812 133.585 91.7186C134.012 93.6418 134.656 95.3434 135.503 96.7767C136.362 98.2314 137.45 99.4005 138.736 100.251C140.045 101.118 141.592 101.558 143.334 101.558C145.049 101.558 146.575 101.118 147.87 100.25C149.143 99.397 150.217 98.2193 151.061 96.7485C151.891 95.3042 152.52 93.5882 152.933 91.6489C153.342 89.728 153.549 87.6419 153.549 85.4498C153.549 83.1058 153.325 81.0617 152.884 79.3763C152.44 77.6804 151.85 76.2621 151.13 75.1603C150.395 74.0366 149.547 73.1956 148.61 72.6614C147.941 72.2803 147.27 72.0328 146.605 71.9206H153.923C154.521 71.9206 155.009 72.0104 155.374 72.1871C155.602 72.2988 155.718 72.6119 155.719 73.073L153.783 97.3823C153.728 97.9798 153.648 98.4772 153.543 98.86C153.454 99.1858 153.325 99.4396 153.161 99.614C153.003 99.7833 152.8 99.9007 152.542 99.9738C152.236 100.06 151.818 100.103 151.297 100.103H150.725V101.342H158.24V100.103H157.668C157.108 100.103 156.671 100.044 156.367 99.9255C156.133 99.8357 155.981 99.6969 155.886 99.488C155.763 99.2192 155.701 98.8266 155.701 98.3217C155.701 97.7536 155.743 97.0375 155.828 96.1832L157.18 79.4914L162.556 101.342H165.839L170.321 79.5409L172.638 97.5907C172.665 97.814 172.686 98.0092 172.7 98.1755C172.714 98.3321 172.72 98.4892 172.72 98.6458C172.72 99.5122 172.51 99.7574 172.42 99.823C172.162 100.009 171.761 100.103 171.226 100.103H170.654V101.342H180.15V100.103H179.577C178.913 100.103 178.391 99.9508 178.024 99.6492Z" fill="white"/>
<path d="M215.11 90.2468C214.367 88.947 213.425 87.7722 212.308 86.7539C211.213 85.7569 210.014 84.841 208.743 84.0334C207.508 83.2482 206.345 82.455 205.289 81.6756C204.258 80.9163 203.39 80.0931 202.709 79.2291C202.068 78.418 201.757 77.5091 201.757 76.4505C201.757 74.8646 202.118 73.6195 202.831 72.7491C203.526 71.9 204.325 71.4879 205.273 71.4879C205.856 71.4879 206.484 71.6801 207.139 72.0601C207.813 72.4504 208.471 73.0755 209.097 73.9165C209.738 74.7823 210.328 75.9151 210.85 77.2834C211.377 78.6667 211.787 80.3499 212.067 82.2869L212.181 82.7802H213.249V72.9621L213.075 72.7923C211.934 71.6767 210.69 70.8489 209.377 70.3326C206.99 69.396 204.457 69.3079 202.263 70.0885C201.264 70.4437 200.369 70.9681 199.601 71.6479C198.824 72.3352 198.203 73.1872 197.756 74.1796C197.308 75.1737 197.082 76.3164 197.082 77.5753C197.082 79.2395 197.475 80.6855 198.252 81.8719C198.997 83.0122 199.935 84.046 201.039 84.9446C202.118 85.8254 203.316 86.6502 204.598 87.3968C205.829 88.1141 206.979 88.8993 208.014 89.7282C209.026 90.5398 209.884 91.4649 210.566 92.478C211.215 93.4445 211.544 94.6603 211.544 96.093C211.544 97.4452 211.315 98.6391 210.864 99.6413C210.41 100.645 209.806 101.49 209.067 102.153C208.323 102.82 207.462 103.328 206.505 103.662C205.537 103.999 204.515 104.17 203.465 104.17C202.005 104.17 200.572 103.853 199.205 103.228C198.216 102.775 197.328 102.157 196.556 101.385H202.915L203.82 90.6907L203.831 90.0661H202.709L202.64 90.5623C202.471 91.7775 202.257 92.9385 202.004 94.0133C201.76 95.0523 201.409 95.9848 200.964 96.7855C200.536 97.5552 199.993 98.1751 199.349 98.6287C198.721 99.0708 197.89 99.3351 196.922 99.411H195.051C194.672 98.7514 194.373 98.0163 194.161 97.2202C193.917 96.3078 193.793 95.2733 193.793 94.1462C193.793 93.1423 193.936 92.1741 194.219 91.268C194.502 90.3643 194.893 89.5613 195.385 88.8809C195.866 88.2131 196.453 87.6691 197.13 87.2639C197.782 86.8724 198.51 86.6738 199.29 86.6738H199.862V85.6049L200.066 85.5226H199.862V84.7011L194.677 84.7023C193.483 84.6269 192.68 84.2337 192.22 83.4986C191.722 82.7031 191.469 81.3797 191.469 79.5653V78.9896H190.237V92.4291H191.469V91.8535C191.469 89.9625 191.739 88.6091 192.272 87.8315C192.77 87.1038 193.665 86.7251 194.985 86.6738H195.019C194.928 86.7487 194.839 86.8252 194.752 86.9047C194.124 87.4746 193.58 88.1458 193.137 88.8987C192.696 89.6465 192.351 90.4725 192.109 91.3532C191.867 92.2351 191.744 93.174 191.744 94.1462C191.744 95.3424 191.874 96.4597 192.127 97.4677C192.299 98.1492 192.512 98.7991 192.762 99.411H188.671V71.9639H198.098V70.0338H182.331L181.758 70.077V71.2283H182.331C182.962 71.2283 183.395 71.3802 183.656 71.6934C183.815 71.8845 184.082 72.4135 184.082 73.8106V97.5212C184.082 98.334 183.967 99.0236 183.739 99.5699C183.68 99.7127 183.499 100.147 182.331 100.147H181.758V101.385H193.814C194.993 103.153 196.539 104.515 198.415 105.437C200.364 106.394 202.425 106.879 204.541 106.879C206.032 106.879 207.493 106.636 208.881 106.156C210.282 105.671 211.543 104.926 212.63 103.94C213.717 102.954 214.604 101.695 215.266 100.199C215.927 98.7024 216.263 96.9421 216.263 94.9682C216.263 93.1734 215.875 91.5852 215.11 90.2468Z" fill="white"/>
<path d="M104.613 35.5078L103.606 46.7834H104.817L104.886 46.2872C105.055 45.0686 105.269 43.9075 105.522 42.8357C105.766 41.7995 106.115 40.8751 106.559 40.0887C106.99 39.3283 107.536 38.7055 108.183 38.2381C108.81 37.7839 109.639 37.5139 110.602 37.4379H111.493L111.494 63.0677C111.46 64.4688 111.189 64.9869 111.031 65.1705C110.773 65.4693 110.325 65.6213 109.699 65.6213H109.126V66.8589H118.364V65.6213H117.791C117.159 65.6213 116.725 65.4693 116.465 65.1556C116.306 64.9656 116.039 64.4377 116.039 63.0384V37.4373L116.843 37.4362C117.853 37.5145 118.691 37.785 119.333 38.2415C119.992 38.7089 120.544 39.3306 120.974 40.0887C121.416 40.8716 121.758 41.7938 121.988 42.8282C122.229 43.911 122.436 45.0749 122.605 46.2872L122.673 46.7834H123.884L122.877 35.5078H104.613Z" fill="white"/>
<path d="M131.403 37.438H133.499C134.228 37.438 134.865 37.5882 135.393 37.8841C135.934 38.1875 136.393 38.5979 136.758 39.1033C137.133 39.6237 137.422 40.2402 137.618 40.935C137.818 41.6448 137.919 42.4144 137.919 43.222C137.919 43.9755 137.824 44.7193 137.637 45.4336C137.454 46.1279 137.172 46.7496 136.797 47.2815C136.434 47.7972 135.971 48.2123 135.419 48.5145C134.876 48.8127 134.23 48.964 133.499 48.964H131.403V37.438ZM159.33 62.8491C158.289 63.4823 157.266 63.9416 156.288 64.2145C153.388 65.0244 150.576 64.6278 148.019 63.0857C146.294 62.046 144.661 60.5574 143.163 58.6624L138.535 52.4605C138.027 51.711 137.608 51.1382 137.254 50.7082C137.181 50.6196 137.101 50.5355 137.015 50.4567C138.567 50.018 139.818 49.2749 140.746 48.237C142.001 46.8359 142.637 45.1487 142.637 43.222C142.637 42.1721 142.45 41.1681 142.08 40.2402C141.705 39.2979 141.128 38.4632 140.363 37.7581C139.606 37.0587 138.641 36.502 137.495 36.1025C136.363 35.7082 135.018 35.5079 133.499 35.5079H125.062L124.489 35.5511V36.7023H125.062C125.692 36.7023 126.127 36.8543 126.388 37.1669C126.547 37.358 126.814 37.887 126.814 39.2852V63.0816C126.814 64.4752 126.551 64.9893 126.395 65.1706C126.136 65.4694 125.688 65.6208 125.062 65.6208H124.489V66.859H133.727V65.6208H133.154C132.522 65.6208 132.089 65.4694 131.828 65.1557C131.669 64.9657 131.403 64.4378 131.403 63.0384V50.9373H133.714C133.969 50.9373 134.158 50.9874 134.242 51.0784C134.344 51.1883 134.389 51.2942 134.389 51.4215C134.389 51.4687 134.389 51.6131 134.19 51.8388C134.056 51.9902 133.828 52.0875 133.514 52.1266L132.514 52.2515L134.932 55.3767C135.422 56.0433 135.961 56.7536 136.534 57.4876C137.09 58.2002 137.606 58.8662 138.081 59.4833C138.164 59.6612 138.278 59.8131 138.421 59.9369C138.583 60.1528 138.732 60.3439 138.87 60.5085C139.011 60.6777 139.137 60.8343 139.22 60.9345C139.342 61.1187 139.449 61.2724 139.554 61.4111C141.318 63.5991 143.22 65.2224 145.206 66.2338C147.2 67.2516 149.214 67.7673 151.189 67.7673C152.841 67.7673 154.448 67.4231 155.964 66.7444C157.471 66.0686 158.869 65.09 160.117 63.8346L160.523 63.4259L159.712 62.6159L159.33 62.8491Z" fill="white"/>
<path d="M162.504 36.7155V35.4779H154.989V36.7155H155.561C156.295 36.7155 156.692 36.803 156.896 36.8767C157.129 36.9607 157.3 37.1075 157.434 37.3378C157.59 37.6083 157.688 37.9911 157.723 38.477C157.766 39.0319 157.787 39.7739 157.787 40.6828V53.8189C157.787 54.6346 157.663 55.3553 157.42 55.9615C157.177 56.563 156.858 57.0667 156.47 57.457C156.079 57.849 155.635 58.1489 155.15 58.3486C154.174 58.751 153.076 58.7504 152.072 58.3463C151.574 58.1466 151.124 57.8473 150.737 57.457C150.348 57.0673 150.029 56.5641 149.786 55.9615C149.542 55.3553 149.419 54.6346 149.419 53.8189V39.2552C149.419 37.9318 149.658 37.3769 149.859 37.1455C150.135 36.8266 150.565 36.6718 151.171 36.6718L151.744 36.6292V35.4779H143.079L142.507 35.5205V36.6718H143.079C143.714 36.6718 144.157 36.8266 144.433 37.1449C144.634 37.3769 144.873 37.9318 144.873 39.2552V53.8189C144.873 55.0514 145.093 56.1647 145.527 57.1271C145.959 58.0902 146.534 58.903 147.234 59.5442C147.933 60.1849 148.744 60.6754 149.642 61.0018C150.533 61.3258 151.452 61.4905 152.376 61.4905C153.3 61.4905 154.205 61.3333 155.065 61.0242C155.939 60.7105 156.73 60.2258 157.415 59.5834C158.102 58.9398 158.661 58.1259 159.078 57.164C159.495 56.2015 159.707 55.0761 159.707 53.8189V40.6828C159.707 39.7762 159.728 39.0342 159.77 38.4764C159.806 37.9894 159.903 37.6066 160.059 37.3383C160.192 37.1098 160.368 36.9636 160.613 36.8784C160.924 36.7702 161.368 36.7155 161.932 36.7155H162.504Z" fill="white"/>
<path d="M198.63 35.5078H180.365L179.359 46.7834H180.569L180.638 46.2878C180.809 45.0634 181.023 43.9018 181.275 42.8351C181.519 41.7984 181.867 40.8745 182.313 40.0887C182.743 39.3283 183.289 38.7061 183.936 38.2381C184.562 37.7839 185.391 37.5139 186.356 37.4379H187.246V63.0677C187.213 64.47 186.942 64.9869 186.783 65.1711C186.526 65.4693 186.078 65.6213 185.451 65.6213H184.879V66.8589H194.116V65.6213H193.544C192.913 65.6213 192.479 65.4687 192.218 65.1561C192.059 64.9656 191.793 64.4372 191.793 63.0384V37.4373L192.595 37.4362C193.605 37.5145 194.443 37.785 195.087 38.2415C195.746 38.7089 196.298 39.3306 196.727 40.0887C197.17 40.8739 197.512 41.7955 197.741 42.8282C197.982 43.9156 198.189 45.079 198.357 46.2872L198.426 46.7834H199.636L198.63 35.5078Z" fill="white"/>
<path d="M233.878 38.5022C233.914 38.0152 234.011 37.6329 234.167 37.3647C234.3 37.1362 234.476 36.9905 234.72 36.9053C235.032 36.7971 235.476 36.7418 236.04 36.7418H236.613V35.5042H229.097V36.7418H229.67C230.259 36.7418 230.708 36.7965 231.003 36.903C231.234 36.9859 231.41 37.1373 231.543 37.3653C231.698 37.6335 231.795 38.0157 231.832 38.5022C231.873 39.0674 231.894 39.81 231.894 40.7092V60.3523L219.546 35.4933L212.714 35.4777V36.6866H213.287C213.672 36.6866 214.015 36.7188 214.305 36.7816C214.547 36.8345 214.755 36.937 214.943 37.0947C215.159 37.2749 215.382 37.5391 215.609 37.8805C215.849 38.2425 216.126 38.6806 216.432 39.2942L218.219 43.0359C217.381 43.01 216.651 43.3087 216.067 43.8953C215.499 44.4664 215.211 45.2141 215.211 46.1202V60.6142C215.211 61.4875 215.19 63.2593 215.148 63.8372C215.112 64.3357 215.015 64.726 214.86 64.9937C214.725 65.2251 214.553 65.3725 214.32 65.4565C214.117 65.5302 213.721 65.6171 212.986 65.6171L210.294 65.6211C209.666 65.6211 209.218 65.4697 208.961 65.1704C208.804 64.9891 208.541 64.4762 208.541 63.082V39.285C208.541 37.8908 208.804 37.3774 208.962 37.1954C209.218 36.8967 209.667 36.7459 210.294 36.7459H210.866V35.5077H201.629V36.7459H202.201C202.827 36.7459 203.275 36.8973 203.532 37.1949C203.69 37.3779 203.953 37.8925 203.953 39.285V63.082C203.953 64.4745 203.69 64.9891 203.533 65.1704C203.275 65.4697 202.827 65.6211 202.201 65.6211H201.629V66.8588H212.607L212.606 66.8553H219.929V65.6171H219.356C218.791 65.6171 218.347 65.5624 218.037 65.4548C217.791 65.369 217.616 65.2228 217.483 64.9937C217.328 64.7272 217.231 64.3375 217.194 63.8355C217.152 63.2668 217.131 61.4949 217.131 60.6142L217.13 46.1916C217.152 45.7541 217.261 45.4237 217.455 45.2089C217.838 44.7858 218.369 44.84 218.955 45.2665C219.293 45.5123 219.618 45.9446 219.919 46.5479L230.02 66.8265L236.182 66.8064V65.6154H234.468C234.268 65.6154 234.206 65.5486 234.179 65.5198C234.135 65.4715 234.023 65.3086 233.934 64.8486C233.855 64.4388 233.815 63.8136 233.815 62.9893V40.7092C233.815 39.7806 233.836 39.0594 233.878 38.5022Z" fill="white"/>
<path d="M178.291 54.4514C177.692 53.3686 176.941 52.3848 176.058 51.5266C175.191 50.6856 174.232 49.9004 173.207 49.1946C172.222 48.516 171.307 47.8027 170.486 47.074C169.683 46.3636 169.001 45.5744 168.457 44.7277C167.947 43.9327 167.688 42.9892 167.688 41.9243C167.688 40.4213 167.965 39.1883 168.512 38.2592C169.009 37.4153 169.749 37.0049 170.774 37.0049C171.362 37.0049 171.935 37.177 172.526 37.5299C173.122 37.8873 173.697 38.4826 174.235 39.3C174.793 40.149 175.315 41.2773 175.785 42.6519C176.181 43.8118 176.539 45.2066 176.859 46.7873H178.234V38.4411L178.066 38.2724C176.985 37.1851 175.785 36.3648 174.5 35.8323C173.216 35.301 171.861 35.0322 170.473 35.0322C168.292 35.0322 166.478 35.7195 165.082 37.0757C163.681 38.4377 162.97 40.4478 162.97 43.0497C162.97 44.5861 163.285 45.9256 163.905 47.0308C164.504 48.1009 165.256 49.0709 166.14 49.9136C167.006 50.7402 167.965 51.5104 168.991 52.2018C169.97 52.8626 170.884 53.5678 171.708 54.2977C172.511 55.0092 173.193 55.799 173.736 56.6434C174.247 57.4407 174.506 58.413 174.506 59.5343C174.506 61.431 174.16 62.9265 173.479 63.9794C172.84 64.9678 171.913 65.4479 170.645 65.4479C169.887 65.4479 169.155 65.2539 168.47 64.8716C167.771 64.4813 167.1 63.8579 166.477 63.0186C165.839 62.1604 165.265 61.0241 164.771 59.6419C164.356 58.4849 164.008 57.1166 163.724 55.5837H162.368V63.9305L162.541 64.0997C163.618 65.1537 164.784 65.9573 166.006 66.4875C167.236 67.0211 168.681 67.2916 170.3 67.2916C171.586 67.2916 172.789 67.1149 173.875 66.7666C174.984 66.4109 175.947 65.8594 176.736 65.1278C177.528 64.3944 178.149 63.4561 178.582 62.3382C179.008 61.2388 179.224 59.9165 179.224 58.4089C179.224 56.9042 178.91 55.5727 178.291 54.4514Z" fill="white"/>
</svg>
