<svg xmlns="http://www.w3.org/2000/svg" xmlns:xlink="http://www.w3.org/1999/xlink" width="41.768" height="44.68" viewBox="0 0 41.768 44.68">
  <defs>
    <clipPath id="clip-path">
      <rect id="Rectangle_12954" data-name="Rectangle 12954" width="41.768" height="44.68" fill="none" stroke="#707070" stroke-width="1.5"/>
    </clipPath>
  </defs>
  <g id="Group_69968" data-name="Group 69968" transform="translate(0 -0.001)">
    <g id="Group_69967" data-name="Group 69967" transform="translate(0 0.001)" clip-path="url(#clip-path)">
      <path id="Path_97141" data-name="Path 97141" d="M25.273,4.1l2.944-1.472s2,4.543,9.214,12.785a11.324,11.324,0,0,1,3.114,9.044l.039,19.056-5.73.058-.013-1.76-3.533-.031v1.648l-9.4-.121A22.471,22.471,0,0,1,4.96,29.8V24.85L1.6,20.932a12.1,12.1,0,0,1,4.977-7.269c5.37-3.552,12.449-5.75,17.528-11.263Z" transform="translate(-0.165 -0.246)" fill="none" stroke="#6a6a6a" stroke-miterlimit="10" stroke-width="1.5"/>
      <path id="Path_97142" data-name="Path 97142" d="M36.171,12.961a31.588,31.588,0,0,1-10.223,1.961c-5.266,0-10.532,8.055-7.744,13.01s11.255,5.576,14.663,1.859,5.369-4.647,8.363-4.853" transform="translate(-1.791 -1.331)" fill="none" stroke="#6a6a6a" stroke-miterlimit="10" stroke-width="1.5"/>
    </g>
  </g>
</svg>
