<?xml version="1.0" encoding="UTF-8"?>
<svg id="Layer_1" xmlns="http://www.w3.org/2000/svg" version="1.1" viewBox="0 0 42.3 65.7">
  <!-- Generator: Adobe Illustrator 29.0.1, SVG Export Plug-In . SVG Version: 2.1.0 Build 192)  -->
  <defs>
    <style>
      .st0 {
        fill: #fff;
      }
    </style>
  </defs>
  <path class="st0" d="M36.7,27.3c-4.1-1.1-8.2-1.7-12.4-1.7,3.3-.6,6.6-1.2,10-1.7,1.4-.3,2.9-.5,4.1-1.4,1.1-.9,1.8-2.7.9-3.9-1.1-1.6-3.6-1.1-5.4-.3-3.4,1.5-6.7,3.3-9.8,5.4,2.7-2.8,5.1-5.9,7.1-9.3.6-1,1.2-2.1,1.1-3.3-.1-1.2-1.2-2.4-2.4-2.1-.5.1-.9.5-1.3.8-3.6,3.5-6.1,8.2-7,13,.9-6.6.9-13.4,0-20-.1-1-.5-2.2-1.5-2.3-1.1,0-1.7,1.4-1.8,2.5-.6,6.6,1.1,13.1,2.7,19.5-1.6-2.9-3.2-5.8-5.3-8.2-2.1-2.5-4.8-4.6-8-5.5-.3,0-.5-.1-.8,0-.5.2-.4,1-.2,1.5.9,1.8,2.3,3.2,3.8,4.6,2.9,2.9,5.9,5.7,8.9,8.5-5.5-2.1-11.3-4.3-17.1-3.3-.3,0-.6.1-.7.3-.3.3-.1.8,0,1.2,1,1.7,3,2.3,4.9,2.6,4.1.8,8.2.9,12.4,1-1.6,2-4.1,2.8-6.2,4.2-2.9,2-4.9,5.3-5.4,8.8,0,.6,0,1.4.5,1.7.7.4,1.4-.3,1.9-.9,3.2-4.3,6.5-8.6,9.7-12.9-1.1,3.5-2.1,6.9-3.2,10.4-.5,1.5-.9,3.3,0,4.6.2.3.4.5.7.6.9.3,1.5-.8,1.7-1.7,1.4-4.7,2.4-9.5,3.1-14.3,0,6.8,0,13.7,1.5,20.4,0,.3.2.6.5.7.2,0,.4,0,.5-.2,1.8-1.4,1.9-4,1.7-6.3-.4-5-1.5-9.9-3.5-14.5,2.1,1.8,4.6,2.9,7.1,3.9,2.3,1,4.5,1.9,6.8,2.9,1.3.5,2.8,1,3.9.2,1.1-.8.9-2.6,0-3.6-.9-1-2.3-1.5-3.6-1.8"/>
  <path class="st0" d="M36.9,55.1c-1.2-6.2-2.8-12.3-5.6-17.9s-6.8-10.7-11.9-14.3c6.8,7.6,10.5,15.1,12.7,23,1.5,5.7,2.2,11.6,2.4,17.5,0,1,.8,1.8,1.8,1.8s1.9-.9,1.8-2c-.3-2.7-.7-5.4-1.1-8.1"/>
</svg>