<?xml version="1.0" encoding="UTF-8"?>
<svg id="Layer_1" xmlns="http://www.w3.org/2000/svg" version="1.1" viewBox="0 0 65.5 64.7">
  <!-- Generator: Adobe Illustrator 29.0.1, SVG Export Plug-In . SVG Version: 2.1.0 Build 192)  -->
  <defs>
    <style>
      .st0 {
        fill: #fff;
      }
    </style>
  </defs>
  <path class="st0" d="M38.5,8c-2.8,2.1-5.9,4.3-7.3,7.6-.7,1.7-.9,3.5-.9,5.4,0,4,1.2,8,3.2,11.4-.9-2.5-1-4.7-.9-6.9.2-2.6.7-5.2,2.3-7.3,1.4-1.9,3.5-3.1,5.4-4.6,2-1.6,3.7-3.7,4.6-6.1,1-2.4,1.1-5.2.3-7.6-1,3.4-3.9,5.9-6.7,8"/>
  <path class="st0" d="M55.4,19.9c-2.9-.6-5.7-1.7-8.6-1.6-3.4.2-6.6,2.1-8.8,4.8-2.2,2.7-3.5,6-4.4,9.3,2.4-4.5,6.3-7.7,10.8-8.4,2.9-.5,5.9,0,8.8,0,2.9,0,6.1-.5,8.2-2.7.9-1,1.6-2.2,2.2-3.5-1.9,2.2-5.3,2.5-8.1,1.9"/>
  <path class="st0" d="M34.3,39.4c-.2,2.6-.8,5.2-2.4,7.3-1.5,1.9-3.6,3-5.4,4.5-2,1.6-3.7,3.6-4.7,6-1,2.4-1.2,5.1-.4,7.6,1-3.4,4-5.8,6.8-7.9,2.9-2.1,5.9-4.2,7.4-7.5.7-1.7,1-3.5,1-5.3,0-4-1-8-3-11.5.9,2.5,1,4.8.8,6.9"/>
  <path class="st0" d="M23.4,41.7c-2.9.7-5.8.4-8.8.6-2.9.2-6.1,1-8,3.3-.9,1.1-1.4,2.3-1.9,3.6,1.7-2.4,5.1-2.8,8-2.5,2.9.3,5.8,1.3,8.7.9,3.4-.4,6.4-2.6,8.4-5.5s3.1-6.2,3.7-9.6c-2,4.6-5.8,8.1-10.2,9.2"/>
  <path class="st0" d="M50.1,30.2c-1.7-.7-3.5-1-5.3-1-4,0-7.9,1.1-11.3,3.2,2.4-.9,4.7-1,6.8-.8,2.6.2,5.2.8,7.2,2.4,1.9,1.5,3,3.6,4.5,5.5,1.6,2,3.6,3.7,6,4.7,2.4,1,5.1,1.2,7.5.3-3.4-1-5.8-4-7.9-6.9-2.1-2.9-4.3-6-7.5-7.4"/>
  <path class="st0" d="M19.5,33.5c-2.1-1.1-3.6-3-5.4-4.6-1.9-1.7-4.2-3-6.7-3.6-2.5-.5-5.2-.3-7.4,1,3.5.4,6.4,2.9,9,5.3,2.6,2.5,5.2,5.1,8.7,5.9,1.8.4,3.6.3,5.4,0,3.9-.7,7.6-2.5,10.6-5.1-2.2,1.4-4.4,1.8-6.6,2-2.5.2-5.2.2-7.5-1"/>
  <path class="st0" d="M23.9,22.7c-.8-2.9-.7-5.9-1.1-8.8-.4-3-1.3-6.1-3.7-7.8-1.1-.8-2.4-1.3-3.7-1.8,2.4,1.6,3.1,5,2.9,7.9-.2,3-.9,5.9-.4,8.8.6,3.4,3,6.4,5.9,8.2,2.9,1.9,6.3,2.7,9.7,3.2-4.7-1.8-8.4-5.4-9.7-9.7"/>
  <path class="st0" d="M33.6,32.5c4.5,2.3,7.8,6.2,8.6,10.7.5,2.9.1,5.9.2,8.9,0,3,.7,6.2,2.8,8.2,1,.9,2.2,1.5,3.5,2.1-2.3-1.9-2.6-5.3-2.1-8.2.5-2.9,1.5-5.8,1.3-8.7-.2-3.5-2.3-6.6-5-8.8-2.7-2.2-6-3.4-9.3-4.3"/>
</svg>