<?xml version="1.0" encoding="UTF-8"?>
<svg id="Layer_1" xmlns="http://www.w3.org/2000/svg" version="1.1" viewBox="0 0 791.9 622.1">
  <!-- Generator: Adobe Illustrator 29.0.1, SVG Export Plug-In . SVG Version: 2.1.0 Build 192)  -->
  <defs>
    <style>
      .st0 {
        fill: #fff;
      }

      .st1 {
        opacity: .8;
      }

      .st2 {
        fill: #00a9c1;
      }
    </style>
  </defs>
  <g class="st1">
    <path class="st0" d="M539.5,141.6c18.8,2.9,36.2,28.9,40.3,35.4l13.1,1.9c4-5.9,14.7-20.6,22.7-22.1,1.7-.3,3.4.7,4,2.3l3.3,10,42.3-30.6c1.6-2.7,9.4-16.7,12.8-42.2,0-.2,0-.4.2-.7l11.2-32.9s0-.2,0-.3c0-.3,3.5-8.1,8.1-16.3,7.8-14,12.6-17.8,15.6-19.1l13.5-14.6c-2-2.8-4.4-5.5-6.7-7.4-6.6-5.1-11.6-4.8-16.5-4-14.5,2.2-97.5,36.8-196.2,95.1l32.3,45.5h0Z"/>
    <path class="st0" d="M637.8,243.6l-10.4-38.4-13.2-40.4c-5,3.6-12.4,13-16.7,19.6-.7,1.1-2.1,1.7-3.4,1.5l-16-2.3c-29.8,10.4-26.8,39.8-26.6,41,0,1.3-.4,2.5-1.5,3.3l-49,33.7c-.1,0-.2.1-.3.2l-51.8,27.9-29.1,29.1c1.8,3.1,5.5,9.2,10.9,15.9,7,8.7,18.4,20.1,32.5,25.2,21.2,7.7,58.9,27.4,78.2,37.8,7.4-8.2,18.8-12.6,29.4-15.4,3.3-1.1,7.4-2.5,9.7-4.6,9.8-11.6,20.3-24.2,58.3-54.8,9.3-7.4,18.2-14.4,27-21-7-8-13.3-18.3-18.7-30.9-6.3-14.4-9.2-26.3-9.4-27.5"/>
    <path class="st0" d="M265.6,362.4c.3.1.6.3.9.5l55.2,38.3c3.9-.6,17.5-4.2,28.9-25.9,6.2-11.7,18.7-25.4,37.2-40.6,12.6-10.4,23.6-17.8,25.5-19.1l31.1-31.1c.2-.2.5-.4.8-.6l52-28,47.2-32.5c0-3.3,0-10.1,2.5-17.6,2.9-9,9.8-20.7,25.6-27.4-6.9-10.4-21.9-29.1-35.2-30.1-1,0-2-.6-2.5-1.4l-33.5-47.2c-92.8,55.4-198.5,131.3-274,220.8-1.4,1.6-2.7,3-3.9,4.4,18.7,17.8,38.8,36.1,42.3,37.6"/>
    <path class="st0" d="M533.9,415.1c.5-4.4,1.7-8.2,3.6-11.6-19.5-10.4-56.3-29.6-76.5-36.9-24.7-8.9-41.2-34-46.6-43.2-10.7,7.4-45.8,33-57.6,55.2-13.2,24.8-29.7,28.9-34.5,29.6h-.6c-1.4.7-9.5,5.6-35.8,33.2-16.8,17.6-37.8,41.3-54.7,60.3-19.3,21.7-24.4,27.5-26.7,29.1-2,2.1-11.4,14.8-22.4,29.8,3.1,1.5,5.9,3.2,8.5,4.8,6.8,4.6,11.2,9.1,18.7,10.9,22,4.9,52.9,11.4,84.3,27.4,15.3,8.2,33.3,17.6,50.4,17.8,12.3.5,23.9-5.1,34.1-11.9,8.3-5.2,17.2-10.9,25.3-16.1,40.1-26.3,81.8-38.7,122.9-105.1,5.8-10.5,10.6-21.5,10.9-33.4.7-14-5.2-26.7-3.3-40.1"/>
    <path class="st0" d="M169.6,557c1.9.2,3.7.6,5.6,1.1,6.5-8.9,11.8-16.1,15.7-21.4,6.7-8.9,8.7-11.4,10-12,2.6-2.4,13.5-14.7,24.9-27.6,16.9-19,38-42.7,54.9-60.5,18.2-19.2,28.2-28,33.7-32l-51.6-35.9c-6.5-3.2-30.8-26-44.1-38.7-5.4,6.1-9.7,11.1-14.9,18-4.6,6.1-8.7,14.3-12.4,20.4-33.8,38.8-155.5,159.9-190.2,199.3-1.6,2.7-1.6,4.8.8,6.2h0c1.9,1.6,11.3,2.6,17.9,2.3,7.6,0,15-.3,24-.4,17.9-.3,36.4-.6,54.2-1,13.9,0,21.9-1.7,33.1-7.1,11.7-5.5,25.3-11.8,38.4-10.7"/>
    <path class="st0" d="M791.5,114.4c-1.5-5.4-5-10.3-8.1-15.3-13-19.7-37.8-57.9-52.8-80.7l-12.9,14c-.4.5-1,.8-1.6,1-3.5.9-12.2,13.3-20.2,31.6l-11.1,32.5c-4.1,29.9-13.7,44.7-14.2,45.3-.2.3-.5.6-.9.9l-44.6,32.3,8.9,27.3v.2l10.4,38.6h0c0,.5,8.1,34.3,27,55.8,21.8-16.3,43.4-31.4,69.1-48.9,9.6-6.9,20.6-13.1,26.3-23.4,1.9-3.6,3.3-7.8,4.4-12.1,5-21,12.4-54.7,17.4-76.1,1.5-7.6,4.2-15.6,2.8-22.9"/>
  </g>
  <g>
    <path class="st2" d="M351.4,499.9c1.4-1.9,3.9-3.1,6.3-3.5,1.2-.2,2.5-.2,3.7-.2s2.4.3,3.6.6c2.3.6,4.5,1.4,6.7,2,1.1.3,2.1.6,3.2.8,1,.2,2.1.4,3.1.4,2,0,3.8-.4,5.8-1.3,1-.4,2-1,3.2-1.4.6-.2,1.1-.5,1.8-.7.6-.2,1.2-.3,1.9-.5,2.5-.4,5.1-.3,7.4.5s4.5,2,6.1,3.8c-4.2-2.1-8.8-2.5-12.8-1.2-2,.6-3.8,1.8-5.9,2.9-1.1.6-2.3,1.1-3.6,1.4-1.3.3-2.6.5-3.9.4-2.6,0-5-.8-7.3-1.6-2.2-.8-4.3-1.8-6.4-2.6-2.1-.8-4.1-1.4-6.3-1.5-2.2-.1-4.4.3-6.4,1.5"/>
    <path class="st2" d="M351.4,485.4c1.4-1.9,3.9-3.1,6.3-3.5,1.2-.2,2.5-.2,3.7-.1,1.2,0,2.4.3,3.6.6,2.3.6,4.5,1.4,6.7,2,1.1.3,2.1.6,3.2.8,1,.2,2.1.4,3.1.4,2,0,3.8-.4,5.8-1.3,1-.4,2-1,3.2-1.4.6-.2,1.1-.5,1.8-.7.6-.2,1.2-.3,1.9-.5,2.5-.4,5.1-.3,7.4.5s4.5,2,6.1,3.8c-4.2-2.1-8.8-2.5-12.8-1.2-2,.6-3.8,1.8-5.9,2.9-1.1.6-2.3,1.1-3.6,1.4-1.3.3-2.6.5-3.9.4-2.6,0-5-.8-7.3-1.6-2.2-.8-4.3-1.8-6.4-2.6-2.1-.8-4.1-1.4-6.3-1.5-2.2-.1-4.4.3-6.4,1.5"/>
  </g>
  <g>
    <path class="st2" d="M165.1,454.1h-.2c-1.3.6-2.1,2.8-2.1,4.7,0,4.2,3,9.5,6.2,13.5-.6-1.6-1.1-3.3-1.5-5-.9-3.7-1.7-8.9-.4-13-.5-.2-.9-.3-1.3-.3s-.5,0-.7.1"/>
    <path class="st2" d="M157.4,463.5c1.9,5.4,7.5,9,10.4,10.5-1.5-1.9-2.9-3.9-4-5.9-2-3.5-3-6.7-3-9.3v-.9c-.4,0-.8-.1-1.1-.1-.7,0-1.3.2-1.8.5h-.2c-1.1,1.1-1.1,3.4-.5,5.2"/>
    <path class="st2" d="M183.6,458.8c0-1.9-.8-4.1-2.1-4.6h-.2c-.5-.3-1.2-.2-2,.1,1.3,4.1.5,9.3-.4,13-.4,1.7-.9,3.4-1.5,5,3.1-4,6.2-9.3,6.2-13.5"/>
    <path class="st2" d="M178.6,474c2.9-1.6,8.5-5.2,10.4-10.5.6-1.8.6-4.2-.5-5.1h-.2c-.6-.7-1.7-.8-2.9-.5v.9c0,2.7-1,5.8-3,9.3-1.1,2-2.5,4-4,5.9"/>
    <path class="st2" d="M169.4,466.8c.6,2.5,1.5,5.3,2.4,7.4h2.6c2.2-5,4.7-14.2,2.7-19.6-.7-1.9-2.3-3.9-3.9-3.9h-.2c-1.5,0-3.2,2-3.9,3.9-.8,2.3-.9,5.5-.3,9.3,0,.6.2,1.2.3,1.8l.2,1.1h-.3.4Z"/>
    <path class="st2" d="M178,477.6c0-.6-2-1.4-4.9-1.4s-4.9.9-4.9,1.4,2,1.4,4.9,1.4,4.9-.9,4.9-1.4"/>
  </g>
  <g>
    <path class="st2" d="M398.8,248.2c-3-.8-6-1.2-9.1-1.3,2.4-.4,4.9-.9,7.3-1.3,1.1-.2,2.2-.4,3-1.1.8-.7,1.3-2,.7-2.8-.8-1.2-2.6-.8-3.9-.2-2.5,1.1-4.9,2.4-7.2,4,2-2.1,3.7-4.4,5.2-6.8.4-.8.9-1.6.8-2.4,0-.9-.9-1.7-1.7-1.5-.4,0-.7.4-.9.6-2.6,2.6-4.4,6-5.1,9.5.7-4.9.6-9.8,0-14.7-.1-.7-.4-1.6-1.1-1.7-.8,0-1.2,1-1.3,1.8-.4,4.8.8,9.6,2,14.3-1.2-2.1-2.3-4.2-3.9-6s-3.5-3.4-5.9-4h-.6c-.4.2-.3.8-.1,1.1.6,1.3,1.7,2.4,2.8,3.4,2.2,2.1,4.3,4.2,6.5,6.2-4-1.6-8.3-3.1-12.5-2.4-.2,0-.4,0-.5.2-.2.2,0,.6,0,.8.7,1.2,2.2,1.7,3.6,1.9,3,.6,6,.7,9.1.8-1.2,1.4-3,2.1-4.6,3.1-2.2,1.5-3.6,3.9-4,6.5,0,.5,0,1,.4,1.2.5.3,1-.2,1.4-.7,2.4-3.1,4.7-6.3,7.1-9.4-.8,2.5-1.6,5.1-2.3,7.6-.3,1.1-.7,2.4,0,3.4.1.2.3.4.5.5.6.2,1.1-.6,1.3-1.2,1-3.4,1.8-7,2.3-10.5,0,5,0,10.1,1.1,14.9,0,.2.1.5.4.5s.3,0,.4-.1c1.3-1,1.4-2.9,1.3-4.6-.3-3.6-1.1-7.3-2.5-10.6,1.5,1.3,3.4,2.1,5.2,2.9,1.7.7,3.3,1.4,5,2.1.9.4,2.1.8,2.9.1.8-.6.7-1.9,0-2.7-.6-.8-1.6-1.1-2.6-1.3"/>
    <path class="st2" d="M398.9,268.6c-.8-4.5-2.1-9-4.1-13.1-2.1-4.1-5-7.8-8.7-10.5,5,5.6,7.7,11.1,9.3,16.8,1.1,4.2,1.6,8.5,1.7,12.8,0,.7.6,1.3,1.4,1.3s1.4-.7,1.3-1.5c-.2-2-.5-4-.8-5.9"/>
  </g>
  <g>
    <path class="st2" d="M555.1,288.8c-1.7,1.3-3.5,2.6-4.4,4.5-.4,1-.6,2.1-.5,3.2,0,2.4.7,4.7,1.9,6.7-.6-1.5-.6-2.8-.5-4.1,0-1.5.4-3.1,1.4-4.3.9-1.1,2.1-1.8,3.2-2.7,1.2-1,2.2-2.2,2.8-3.6s.7-3,.2-4.5c-.6,2-2.3,3.5-4,4.8"/>
    <path class="st2" d="M565.3,295.8c-1.7-.3-3.4-1-5.2-.9-2.1,0-4,1.3-5.3,2.8-1.3,1.6-2.1,3.5-2.7,5.5,1.4-2.7,3.8-4.5,6.5-5,1.7-.3,3.5,0,5.3,0s3.7-.3,4.9-1.6c.6-.6,1-1.3,1.3-2-1.1,1.3-3.2,1.4-4.9,1.1"/>
    <path class="st2" d="M552.6,307.3c0,1.5-.5,3.1-1.4,4.3-.9,1.1-2.2,1.8-3.3,2.7-1.2.9-2.2,2.1-2.8,3.5s-.7,3-.2,4.5c.6-2,2.4-3.5,4.1-4.7,1.7-1.2,3.6-2.5,4.4-4.4.4-1,.6-2.1.6-3.2,0-2.4-.6-4.7-1.8-6.8.5,1.5.6,2.8.5,4.1"/>
    <path class="st2" d="M546,308.7c-1.7.4-3.5.2-5.3.3-1.8.1-3.6.6-4.8,1.9-.5.6-.9,1.4-1.2,2.1,1-1.4,3.1-1.7,4.8-1.5s3.5.8,5.2.6c2.1-.2,3.9-1.6,5.1-3.2,1.2-1.7,1.9-3.7,2.3-5.7-1.2,2.7-3.5,4.8-6.1,5.4"/>
    <path class="st2" d="M562.1,301.9c-1-.4-2.1-.6-3.2-.6-2.4,0-4.8.7-6.8,1.9,1.5-.6,2.8-.6,4.1-.5,1.5.1,3.1.5,4.3,1.4,1.1.9,1.8,2.1,2.7,3.2,1,1.2,2.2,2.2,3.6,2.8,1.4.6,3.1.7,4.5.2-2-.6-3.5-2.3-4.8-4s-2.6-3.5-4.5-4.4"/>
    <path class="st2" d="M543.7,303.8c-1.3-.6-2.2-1.8-3.2-2.7-1.2-1-2.5-1.8-4-2.1-1.5-.3-3.1-.2-4.5.6,2.1.2,3.9,1.7,5.4,3.2s3.1,3,5.2,3.5c1.1.2,2.2.2,3.2,0,2.3-.4,4.6-1.5,6.4-3-1.3.8-2.7,1.1-3.9,1.2-1.5.1-3.1,0-4.5-.6"/>
    <path class="st2" d="M546.3,297.5c-.5-1.7-.4-3.5-.7-5.2-.2-1.7-.8-3.6-2.2-4.6s-1.4-.8-2.2-1c1.5,1,1.9,2.9,1.8,4.7,0,1.7-.6,3.5-.3,5.2.4,2,1.8,3.8,3.5,4.9,1.8,1.1,3.8,1.6,5.9,1.9-2.8-1-5-3.2-5.8-5.8"/>
    <path class="st2" d="M552.1,303.2c2.7,1.3,4.7,3.7,5.2,6.3.3,1.7,0,3.5,0,5.3s.4,3.6,1.7,4.8c.6.6,1.3.9,2.1,1.3-1.4-1.1-1.5-3.1-1.3-4.8.3-1.7.9-3.4.8-5.2,0-2.1-1.4-3.9-3-5.2-1.6-1.3-3.6-2-5.6-2.5"/>
  </g>
  <g>
    <path class="st2" d="M730,182.1c0-.6-.8-3.1-4.2-3.1h-.2c-4.4,0-6.5,3.2-6.9,6.5.3-.4.5-.7.7-1,.6-.8,1.2-1.6,2.1-2,.7-.3,1.5-.2,1.7.3s0,1-.8,1.4c-.5.3-1.1.5-1.6.8-.9.6-1.4,1.4-1.3,2.2,1.4-.6,2.8-1,4.3-.7.7.1,1.3.3,2,.3,2.8.3,4.8-2,4.2-4.7h0"/>
    <path class="st2" d="M722.1,188c-.9,0-1.7.2-2.4.9.2,0,.2.1.3.1,1.1.3,2.1.7,2.8,1.6.3.3.5.6.5,1.1s0,.6-.4.8c-.3.1-.5,0-.7-.2-.5-.4-.9-.8-1.4-1.1-.6-.5-1.2-.9-2-1.1-.3,0-.5,0-.7.2-.7,1-1,2-.8,3.2.7,4.3,5.4,6.4,9.3,4.2,2.7-1.5,3.2-4.7,1.1-7-1.6-1.7-3.5-2.5-5.8-2.6"/>
    <path class="st2" d="M714.5,192.7c-.3.4-.5.8-.8,1.2-.2.3-.6.5-.9.3-.4-.1-.5-.5-.5-.8,0-.6.2-1.2.6-1.6.5-.6,1.1-1.2,1.7-1.8h-.6c-3.3,0-6.7,3.3-6.9,6.5,0,1.8.4,3.4,2,4.5,1.5,1,3.2.9,4.7,0,1.7-1,2.5-2.6,2.7-4.5.3-2-.2-4,.5-6-1.2.6-1.7,1.5-2.3,2.5"/>
    <path class="st2" d="M713.3,181.5c.5,1,1.2,1.8,2.1,2.5-.2-.9-.4-1.9-.5-2.8,0-.7,0-1.3.5-1.8.3-.3.7-.6,1.1-.4.5.2.3.7.3,1.1,0,.6-.3,1.2-.4,1.9-.2,1.3,0,2.4,1.1,3.3-.4-2.3.6-4,2.1-5.5.2-.2.4-.5.7-.7.5-.5.8-1.2.9-1.9.3-1.4,0-2.7-1.2-3.6-1-.9-2.2-.9-3.4-.5-2.9,1.2-5.2,5.1-3.3,8.5"/>
    <path class="st2" d="M706.9,189.7c1.3.3,2.4,0,3.5-.6,1.4-.6,2.7-1.2,4.3-1.3,0,0,.2,0,.2-.2-.3,0-.6-.2-.9-.2-1.2-.3-2.4-.6-3.6-1.1-.2,0-.5-.2-.4-.5,0-.3.2-.5.5-.5s.5,0,.8-.1c.6,0,1.2.2,2,.3-.9-1.1-1.8-2.1-3-2.7-2.5-1.4-5-.4-6,2.3-.8,2.2.3,4.2,2.6,4.8"/>
  </g>
  <g>
    <path class="st2" d="M614.7,101.3c-4.1-1.7-7.7-.8-8.7,1.6,1-1,3.7,1,1.4,3.8s-9.3,4.5-12.4,2.6c5.7,4.1,11.5.3,17.3-.6,4.1-.6,6.3,0,10.1,1.4,1.6.6,9.5,2.4,14.6-.8-11.2,2.5-18.4-6.4-22.2-8"/>
    <path class="st2" d="M639,106.5c-1,0-2.2-.2-3.5-.7-6.9-2.8-7.7-7-12.9-10.6-2-1.4-6.7-1.9-8,.9,1.4-1.3,3.5,0,3.5,1.8s-.5,2.1-.8,2.4c0,0-.2.2-.2.2,2.4.8,6.4,5.3,11.5,6.8,5.2,1.5,13,.6,15.4-1.8-.7.5-2.3,1.3-5.1,1"/>
  </g>
</svg>