<?xml version="1.0" encoding="UTF-8"?>
<svg id="Layer_1" xmlns="http://www.w3.org/2000/svg" version="1.1" viewBox="0 0 39.5 43.6">
  <!-- Generator: Adobe Illustrator 29.0.1, SVG Export Plug-In . SVG Version: 2.1.0 Build 192)  -->
  <defs>
    <style>
      .st0 {
        fill: #fff;
      }
    </style>
  </defs>
  <path class="st0" d="M38.3,14.7c-.2-.8-1.2-4.5-6.1-4.4,0,0-.2,0-.3,0-6.3,0-9.4,4.6-9.9,9.3.4-.6.7-1,1-1.4.9-1.1,1.7-2.3,3-2.9,1-.5,2.1-.3,2.5.4.3.7,0,1.4-1.2,2-.7.4-1.5.8-2.3,1.2-1.3.8-2,2.1-1.9,3.2,2-.9,4-1.4,6.1-1,1,.2,1.9.4,2.9.5,4,.4,6.9-2.9,6-6.8,0,0,0-.1,0-.2"/>
  <path class="st0" d="M27,23c-1.2,0-2.4.2-3.4,1.2.2,0,.4.2.5.2,1.6.4,3,1,4.1,2.2.4.4.8.9.7,1.6,0,.5-.2.9-.6,1.1-.4.2-.7,0-1-.3-.7-.5-1.3-1.1-2-1.7-.8-.7-1.7-1.3-2.8-1.5-.4,0-.7,0-1,.3-1,1.4-1.5,2.8-1.2,4.5,1.1,6.2,7.8,9.2,13.4,6,3.9-2.2,4.7-6.7,1.6-10-2.2-2.4-5.1-3.6-8.4-3.7"/>
  <path class="st0" d="M16.1,29.9c-.4.6-.8,1.2-1.2,1.7-.3.4-.8.7-1.4.4-.5-.2-.7-.7-.8-1.2,0-.9.3-1.7.8-2.4.7-.9,1.5-1.7,2.5-2.6-.4,0-.6,0-.9,0-4.7.1-9.6,4.7-9.9,9.4-.2,2.6.5,4.9,2.9,6.4,2.2,1.4,4.5,1.3,6.7,0,2.4-1.5,3.6-3.8,3.9-6.5.4-2.8-.2-5.7.7-8.6-1.7.8-2.5,2.2-3.3,3.5"/>
  <path class="st0" d="M14.3,13.8c.8,1.4,1.7,2.6,3,3.6-.3-1.4-.6-2.7-.7-4,0-.9,0-1.8.7-2.6.4-.5,1-.9,1.7-.6.7.3.5,1,.4,1.5-.2.9-.5,1.8-.6,2.7-.3,1.8.1,3.4,1.6,4.7-.5-3.2.8-5.7,3-7.8.3-.3.6-.7,1-1.1.7-.8,1.2-1.7,1.3-2.8.4-2-.1-3.8-1.7-5.2-1.5-1.3-3.1-1.4-4.9-.7-4.2,1.7-7.5,7.4-4.7,12.3"/>
  <path class="st0" d="M5.1,25.5c1.8.5,3.4,0,5-.8,2-.9,3.9-1.7,6.1-1.9.2,0,.3-.1.4-.3-.4-.1-.9-.2-1.3-.4-1.7-.5-3.5-.9-5.1-1.6-.3-.1-.7-.3-.6-.7,0-.4.3-.7.7-.8.4,0,.7-.1,1.1-.2.9,0,1.8.2,2.8.4-1.3-1.6-2.6-3-4.3-3.9-3.6-2-7.2-.6-8.6,3.3-1.1,3.1.5,6,3.7,6.9"/>
</svg>