<?xml version="1.0" encoding="UTF-8"?>
<svg id="Layer_1" xmlns="http://www.w3.org/2000/svg" version="1.1" viewBox="0 0 80 29.6">
  <!-- Generator: Adobe Illustrator 29.0.1, SVG Export Plug-In . SVG Version: 2.1.0 Build 192)  -->
  <defs>
    <style>
      .st0 {
        fill: #fff;
      }
    </style>
  </defs>
  <path class="st0" d="M32.2,12.7c-6.7-2.8-12.6-1.2-14.2,2.6,1.7-1.6,6,1.7,2.2,6.2-3.7,4.5-15.1,7.3-20.2,4.2,9.2,6.7,18.8.4,28.1-.9,6.7-1,10.2,0,16.4,2.3,2.5.9,15.5,3.9,23.8-1.4-18.2,4.1-29.9-10.3-36.2-12.9"/>
  <path class="st0" d="M71.7,21.2c-1.6-.1-3.6-.3-5.7-1.2-11.3-4.5-12.5-11.4-20.9-17.3-3.3-2.3-10.9-3-12.9,1.5,2.2-2.1,5.7-.1,5.6,2.9,0,2.1-.8,3.3-1.3,3.9-.2.2-.3.3-.3.3,3.8,1.3,10.3,8.6,18.8,11.1,8.4,2.5,21.1,1,25-2.9-1.1.8-3.8,2.1-8.3,1.7"/>
</svg>