<?xml version="1.0" encoding="UTF-8"?>
<svg id="Layer_1" xmlns="http://www.w3.org/2000/svg" version="1.1" viewBox="0 0 65.5 28.2">
  <!-- Generator: Adobe Illustrator 29.0.1, SVG Export Plug-In . SVG Version: 2.1.0 Build 192)  -->
  <defs>
    <style>
      .st0 {
        fill: #fff;
      }
    </style>
  </defs>
  <path class="st0" d="M0,23.1c1.8-2.4,4.8-3.8,7.8-4.3,1.5-.3,3.1-.3,4.6-.2,1.5.1,3,.4,4.5.7,2.9.7,5.7,1.7,8.3,2.5,1.3.4,2.6.8,3.9,1,1.3.3,2.6.4,3.8.5,2.5.1,4.7-.5,7.3-1.6,1.3-.5,2.6-1.2,4-1.8.7-.3,1.4-.6,2.2-.8.8-.2,1.5-.4,2.3-.6,3.1-.6,6.3-.4,9.2.6,2.9.9,5.6,2.5,7.6,4.7-5.2-2.7-11-3.1-15.9-1.5-2.4.7-4.7,2.2-7.4,3.6-1.3.7-2.8,1.3-4.4,1.8-1.6.4-3.3.6-4.9.5-3.2-.1-6.3-.9-9.1-2-2.8-1-5.4-2.2-8-3.2-2.6-1-5.2-1.7-7.9-1.9-2.7-.1-5.5.3-8,1.9"/>
  <path class="st0" d="M0,4.9C1.8,2.5,4.8,1.1,7.8.6c1.5-.3,3.1-.3,4.6-.2,1.5.1,3,.4,4.5.7,2.9.7,5.7,1.7,8.3,2.5,1.3.4,2.6.8,3.9,1,1.3.3,2.6.4,3.8.5,2.5.1,4.7-.5,7.3-1.6,1.3-.5,2.6-1.2,4-1.8.7-.3,1.4-.6,2.2-.8.8-.2,1.5-.4,2.3-.6,3.1-.6,6.3-.4,9.2.6,2.9.9,5.6,2.5,7.6,4.7-5.2-2.7-11-3.1-15.9-1.5-2.4.7-4.7,2.2-7.4,3.6-1.3.7-2.8,1.3-4.4,1.8-1.6.4-3.3.6-4.9.5-3.2-.1-6.3-1-9.1-2-2.8-1-5.4-2.2-8-3.2-2.6-1-5.2-1.7-7.9-1.9-2.7-.1-5.5.3-8,1.9"/>
</svg>