<?xml version="1.0" encoding="UTF-8"?>
<svg id="Layer_1" xmlns="http://www.w3.org/2000/svg" version="1.1" viewBox="0 0 46.6 39.9">
  <!-- Generator: Adobe Illustrator 29.0.1, SVG Export Plug-In . SVG Version: 2.1.0 Build 192)  -->
  <defs>
    <style>
      .st0 {
        fill: #fff;
      }
    </style>
  </defs>
  <path class="st0" d="M12,5.1h-.3c-1.9.8-3,3.9-3,6.5,0,5.8,4.3,13.1,8.7,18.6-.8-2.2-1.5-4.6-2.1-6.9-1.2-5.1-2.3-12.3-.5-17.9-.7-.3-1.3-.4-1.9-.4s-.7,0-1,.2"/>
  <path class="st0" d="M1.1,18.1c2.7,7.4,10.6,12.4,14.7,14.5-2.1-2.6-4.1-5.4-5.6-8.1-2.8-4.9-4.2-9.2-4.2-12.9,0-.4,0-.9,0-1.3-.6-.1-1.1-.2-1.6-.2-1,0-1.9.2-2.5.7l-.2.2c-1.5,1.3-1.5,4.6-.6,7"/>
  <path class="st0" d="M38,11.6c0-2.6-1.1-5.7-3-6.4h-.3c-.8-.4-1.7-.3-2.8.2,1.8,5.6.7,12.8-.5,17.9-.6,2.3-1.3,4.7-2.1,6.9,4.4-5.5,8.7-12.8,8.7-18.6"/>
  <path class="st0" d="M30.9,32.6c4.1-2.2,12-7.1,14.7-14.5.9-2.4.9-5.7-.6-7l-.2-.2c-.8-.7-2.3-.9-4-.6,0,.4,0,.9,0,1.3,0,3.7-1.4,8-4.2,12.9-1.5,2.7-3.5,5.5-5.6,8.1"/>
  <path class="st0" d="M18,22.6c.9,3.5,2.1,7.3,3.4,10.2.6,0,1.2,0,1.8,0s1.2,0,1.8,0c3.1-6.9,6.6-19.5,3.8-27-1-2.7-3.3-5.4-5.5-5.4h-.1s-.2,0-.2,0h0c-2.2,0-4.5,2.7-5.5,5.4-1.2,3.2-1.3,7.5-.4,12.8.1.8.3,1.7.5,2.5l.3,1.5h-.4c0,.1.4,0,.4,0Z"/>
  <path class="st0" d="M30.1,37.5c0-.8-2.7-1.9-6.9-1.9s-6.9,1.2-6.9,1.9,2.7,1.9,6.9,1.9,6.9-1.2,6.9-1.9"/>
</svg>