<?xml version="1.0" encoding="UTF-8"?>
<svg id="Layer_1" xmlns="http://www.w3.org/2000/svg" version="1.1" viewBox="0 0 200 37.8">
  <!-- Generator: Adobe Illustrator 29.1.0, SVG Export Plug-In . SVG Version: 2.1.0 Build 142)  -->
  <defs>
    <style>
      .st0 {
        fill: #fff;
      }
    </style>
  </defs>
  <path class="st0" d="M85.7,29.3c0-.4,0-.6-.3-.8-.5-.2-1.2-.3-1.8-.3-2.1,0-4.2,1.6-4.2,3.9s.5,2,1.3,2.7,1.7.9,2.7.9,1.7-.2,2.3-.6c.3-.2.2-.3.2-.6v-1.3c0-.2,0-.5,0-.6h.5s.2,0,.2-.2,0,0-.2,0h-2.3c-.4,0-.3,0-.3,0s.2,0,.3,0c.6,0,.7,0,.7.7v1c0,.3,0,.8-.2,1-.3.3-.9.3-1.3.3-.9,0-1.7-.3-2.4-1-.6-.7-.8-1.5-.8-2.3s.3-1.8.8-2.4c.6-.7,1.3-1,2.2-1,1.9,0,1.7,1.5,2.1,1.5s.2-.1.2-.2v-.5l.2-.3Z"/>
  <path class="st0" d="M88.9,29.3c0-.2,0-.4.2-.5h.8c.4,0,.8,0,1.2.1.4.1.5.3.7.7l.2.3s0,.2.2.2,0-.2,0-.2v-1c0-.1,0-.4-.2-.4h-4.9c-.7,0-.2,0-.2.2s.2.1.3.1c.8,0,.7.2.7.9v4.7c0,.7,0,1-.7,1s-.3,0-.3,0,0,.2.2.2h5.1l.2-1.2v-.3q0,0,0,0c0,0-.2.3-.2.4-.4,1-1,1-1.9,1s-1.4,0-1.4-1.1v-2c0-.4,0-.4.6-.4h1.3c.2,0,.3.4.4.7,0,0,0,.2,0,.2s0,0,0-.2v-2.1s0-.1,0-.1c0,0,0,.1,0,.2,0,.3,0,.8-.4.8h-1.3c-.3,0-.6,0-.6-.5v-1.6h.1Z"/>
  <path class="st0" d="M103.6,29.3c0-.2,0-.4.2-.5h.8c.4,0,.8,0,1.2.1.4.1.5.3.7.7l.2.3s0,.2.2.2,0-.2,0-.2v-1c0-.1,0-.4-.2-.4h-4.9c-.7,0-.2,0-.2.2s.2.1.3.1c.8,0,.7.2.7.9v4.7c0,.7,0,1-.7,1s-.3,0-.3,0,0,.2.2.2h5.1l.2-1.2v-.3q0,0,0,0c0,0-.2.3-.2.4-.4,1-1,1-1.9,1s-1.4,0-1.4-1.1v-2c0-.4,0-.4.6-.4h1.3c.2,0,.3.4.4.7,0,0,0,.2,0,.2s0,0,0-.2v-2.1s0-.1,0-.1c0,0,0,.1,0,.2,0,.3,0,.8-.4.8h-1.3c-.3,0-.6,0-.6-.5v-1.6h0Z"/>
  <path class="st0" d="M111.7,34.2l-2-4.9c0-.1,0-.3,0-.5s.5-.2.5-.2c0,0,.2,0,.2-.2s0-.1-.2-.1h-2.2c-.4,0-.2,0-.2.1s.2.2.3.2c.5,0,.6.4.8.8l2.3,5.9s0,.3.2.3.2-.3.2-.3l2.2-5.7c0-.2.2-.6.4-.8,0-.1.3-.1.5-.1s.3,0,.3-.2,0-.1-.2-.1h-1.8c-.3,0-.2,0-.2.2s.4.1.5.1c.2,0,.5,0,.5.3s0,.4-.2.6l-1.8,4.6h0Z"/>
  <path class="st0" d="M116.9,29.3c0-.2,0-.4.2-.5h.8c.4,0,.8,0,1.2.1.4.1.5.3.7.7l.2.3s0,.2.2.2,0-.2,0-.2v-1c0-.1,0-.4-.2-.4h-4.9c-.7,0-.2,0-.2.2s.2.1.3.1c.8,0,.7.2.7.9v4.7c0,.7,0,1-.7,1s-.3,0-.3,0,0,.2.2.2h5.1l.2-1.2v-.3q0,0,0,0c0,0-.2.3-.2.4-.4,1-1,1-1.9,1s-1.4,0-1.4-1.1v-2c0-.4,0-.4.6-.4h1.3c.2,0,.3.4.4.7,0,0,0,.2,0,.2s0,0,0-.2v-2.1s0-.1,0-.1c0,0,0,.1,0,.2,0,.3,0,.8-.4.8h-1.3c-.3,0-.6,0-.6-.5v-1.6h0Z"/>
  <path class="st0" d="M99.6,34l-4.1-5.2c0-.2-.2-.3-.5-.4h-1.4c0,0-.3,0-.3.2s.2.1.3.1c.8,0,.8.2.8,1v4.7c0,.7,0,.9-.8.9s-.3,0-.3,0,0,.2.2.2h2c.3,0,.2,0,.2-.2s-.2,0-.3,0c-.8,0-.8-.2-.8-.9v-5.2l4.9,6.2s.2.3.3.3,0-.2,0-.2v-5.8c0-.7,0-1,.8-1s.3,0,.3-.1,0-.2-.2-.2h-2c-.3,0-.2,0-.2.2s.2.1.3.1c.8,0,.8.2.8,1v4.4h0Z"/>
  <path class="st0" d="M52.1,4.9c0-1,.2-1.6-.8-2-1.4-.6-3.3-.9-4.8-.9-5.7,0-11.2,4.3-11.2,10.4s1.2,5.4,3.4,7.2c2.1,1.8,4.6,2.4,7.2,2.4s4.5-.5,6.3-1.7c.7-.5.5-.8.5-1.6v-3.5c0-.5,0-1.4.3-1.7.2-.2.7-.2.9-.2h.6c.3,0,.6,0,.6-.5s-.3-.4-.5-.4h-6.2c-.3,0-.7,0-.7.4s.4.4.7.4c1.7,0,2,.3,2,2v2.6c0,.7,0,2.1-.6,2.6-.8.7-2.4.9-3.4.9-2.5,0-4.7-.7-6.4-2.7-1.5-1.8-2.1-3.9-2.1-6.3s.7-4.8,2.1-6.6c1.5-1.9,3.6-2.7,6-2.7,5.2,0,4.7,4,5.7,4s.4-.3.4-.6v-1.4h0Z"/>
  <path class="st0" d="M60.8,5.7c0-2.2,0-2.5,2.3-2.5s4.3,1.5,4.3,4.4-.4,2.4-1.4,3.1c-1.1.9-2.3,1-3.7,1s-1.5.2-1.5-.6v-5.5h0ZM58.4,18.6c0,2,0,2.6-1.9,2.6s-.7,0-.7.4.2.4.5.4c1.1,0,2.2-.1,3.4-.1s2.2.1,3.3.1.5,0,.5-.4-.5-.4-.8-.4c-2,0-1.9-.6-1.9-2.6v-4.8c0-.3,0-1,0-1.2s.4-.2.7-.2c2.2,0,2.2.2,3.3,2.4l2.9,6c.2.5.4,1.1,1,1.1h3.1c.2,0,.5,0,.5-.3s-.5-.4-.8-.4c-1.3,0-1.8-1.2-2.3-2.2l-2.4-4.8c-.4-.8-.9-1.9-1.8-2,2.5-.3,4.7-2,4.7-4.8s-2.8-4.7-5.6-4.7-3.3,0-5.1,0-2,0-2.9,0-.5,0-.5.5.5.4.7.4c2.1,0,1.9.6,1.9,2.6v12.6-.2Z"/>
  <path class="st0" d="M60.8,5.7c0-2.2,0-2.5,2.3-2.5s4.3,1.5,4.3,4.4-.4,2.4-1.4,3.1c-1.1.9-2.3,1-3.7,1s-1.5.2-1.5-.6v-5.5h0ZM58.4,18.6c0,2,0,2.6-1.9,2.6s-.7,0-.7.4.2.4.5.4c1.1,0,2.2-.1,3.4-.1s2.2.1,3.3.1.5,0,.5-.4-.5-.4-.8-.4c-2,0-1.9-.6-1.9-2.6v-4.8c0-.3,0-1,0-1.2s.4-.2.7-.2c2.2,0,2.2.2,3.3,2.4l2.9,6c.2.5.4,1.1,1,1.1h3.1c.2,0,.5,0,.5-.3s-.5-.4-.8-.4c-1.3,0-1.8-1.2-2.3-2.2l-2.4-4.8c-.4-.8-.9-1.9-1.8-2,2.5-.3,4.7-2,4.7-4.8s-2.8-4.7-5.6-4.7-3.3,0-5.1,0-2,0-2.9,0-.5,0-.5.5.5.4.7.4c2.1,0,1.9.6,1.9,2.6v12.6-.2Z"/>
  <path class="st0" d="M77.1,18.6c0,1.9,0,2.6-1.9,2.6s-.7,0-.7.4.2.4.5.4h6.7c.3,0,.5,0,.5-.4s-.5-.4-.8-.4c-2,0-1.9-.6-1.9-2.6V6c0-1.9,0-2.5,1.9-2.5s.8,0,.8-.4-.2-.4-.5-.4h-6.7c-.3,0-.5,0-.5.4s.5.4.7.4c2.1,0,1.9.6,1.9,2.5v12.7h0Z"/>
  <path class="st0" d="M89.2,13c2,.9,3.6,2.1,3.6,4.6s-2.2,4-4.4,4-4.1-1.7-4.4-4.3c0-.2,0-1-.4-1s-.4.4-.4.6v2.5c0,.8-.2,1.3.3,1.6,1.2.8,3,1.2,4.5,1.2s3.4-.5,4.7-1.6c1.3-1.1,2.1-2.6,2.1-4.4s-.6-2.7-1.4-3.7c-.7-.8-2-1.5-2.9-1.9-1.9-.9-5.2-1.9-5.2-4.6s1.9-3.3,3.8-3.3,3.2,1.1,3.8,3.3c0,.2,0,.7.5.7s.3-.2.3-.4v-2.4c0-.6,0-1-.7-1.2-1.1-.5-2.8-.7-4-.7-2.9,0-5.7,2-5.7,5.2s2.1,4,4.3,5l1.5.7h0Z"/>
  <path class="st0" d="M114,12.1c0,2.3-.4,4.4-1.8,6.2s-3.4,3-5.7,3-4.3-1-5.7-2.7c-1.5-1.8-2-4.1-2-6.4s.5-4.5,1.9-6.3c1.4-1.9,3.5-2.9,5.9-2.9s4.2,1.1,5.6,2.8c1.5,1.9,1.9,4,1.9,6.4h-.1ZM96.1,12.1c0,5.6,5,10.1,10.3,10.1s10.3-4.1,10.3-10.1-4.7-10-10.3-10-10.3,4.4-10.3,10Z"/>
  <path class="st0" d="M114,12.1c0,2.3-.4,4.4-1.8,6.2s-3.4,3-5.7,3-4.3-1-5.7-2.7c-1.5-1.8-2-4.1-2-6.4s.5-4.5,1.9-6.3c1.4-1.9,3.5-2.9,5.9-2.9s4.2,1.1,5.6,2.8c1.5,1.9,1.9,4,1.9,6.4h-.1ZM96.1,12.1c0,5.6,5,10.1,10.3,10.1s10.3-4.1,10.3-10.1-4.7-10-10.3-10-10.3,4.4-10.3,10Z"/>
  <path class="st0" d="M134.5,5c0-1,0-1.7-.9-2.1-1.4-.6-3.3-.9-4.8-.9-5.7,0-11.2,4.3-11.2,10.4s1.2,5.4,3.4,7.2c2.1,1.8,4.6,2.4,7.2,2.4s4.5-.5,6.3-1.7c.7-.5.5-.8.5-1.6v-3.5c0-.5,0-1.4.3-1.7.2-.2.7-.2.9-.2h.6c.3,0,.6,0,.6-.5s-.3-.4-.5-.4h-6.2c-.3,0-.7,0-.7.4s.4.4.7.4c1.7,0,2,.3,2,2v2.6c0,.7,0,2.1-.6,2.6-.8.7-2.4.9-3.4.9-2.5,0-4.7-.7-6.4-2.7-1.5-1.8-2.1-3.9-2.1-6.3s.7-4.8,2.1-6.6c1.5-1.9,3.6-2.7,6-2.7,5.2,0,4.7,4,5.7,4s.4-.3.4-.6v-1.3h0Z"/>
  <path class="st0" d="M156.4,12.1c0,2.3-.4,4.4-1.8,6.2-1.4,1.8-3.4,3-5.7,3s-4.3-1-5.8-2.7c-1.5-1.8-2-4.1-2-6.4s.5-4.5,1.9-6.3c1.4-1.9,3.6-2.9,5.9-2.9s4.2,1.1,5.6,2.8c1.5,1.9,1.9,4,1.9,6.4h0ZM138.5,12.1c0,5.6,5,10.1,10.3,10.1s10.3-4.1,10.3-10.1-4.7-10-10.3-10-10.3,4.4-10.3,10Z"/>
  <path class="st0" d="M156.4,12.1c0,2.3-.4,4.4-1.8,6.2-1.4,1.8-3.4,3-5.7,3s-4.3-1-5.8-2.7c-1.5-1.8-2-4.1-2-6.4s.5-4.5,1.9-6.3c1.4-1.9,3.6-2.9,5.9-2.9s4.2,1.1,5.6,2.8c1.5,1.9,1.9,4,1.9,6.4h0ZM138.5,12.1c0,5.6,5,10.1,10.3,10.1s10.3-4.1,10.3-10.1-4.7-10-10.3-10-10.3,4.4-10.3,10Z"/>
  <path class="st0" d="M175.1,17.8l-10.5-14.2c-.4-.5-.6-.9-1.2-1.1h-3.7c-.3,0-.7,0-.7.5s.5.3.7.3c2.1,0,1.9.6,1.9,2.6v12.6c0,1.9.1,2.6-1.9,2.6s-.8,0-.8.3.2.5.5.5h5.2c.3,0,.5-.1.5-.5s-.5-.3-.7-.3c-2.1,0-1.9-.6-1.9-2.6V4.7l12.4,16.9c.1.2.4.7.7.7s.2-.4.2-.6V6c0-1.9-.1-2.6,1.9-2.6s.8,0,.8-.3-.2-.5-.5-.5h-5.2c-.3,0-.5.2-.5.5s.5.3.7.3c2.1,0,1.9.6,1.9,2.6v11.8h.2Z"/>
  <path class="st0" d="M195.5,12.1c0,2.3-.4,4.4-1.8,6.2-1.4,1.8-3.4,3-5.7,3s-4.3-1-5.7-2.7c-1.5-1.8-2-4.1-2-6.4s.5-4.5,1.9-6.3c1.4-1.9,3.5-2.9,5.9-2.9s4.2,1.1,5.6,2.8c1.5,1.9,1.9,4,1.9,6.4h0ZM177.6,12.1c0,5.6,5,10.1,10.3,10.1s10.3-4.1,10.3-10.1-4.7-10-10.3-10-10.3,4.4-10.3,10Z"/>
  <path class="st0" d="M195.5,12.1c0,2.3-.4,4.4-1.8,6.2-1.4,1.8-3.4,3-5.7,3s-4.3-1-5.7-2.7c-1.5-1.8-2-4.1-2-6.4s.5-4.5,1.9-6.3c1.4-1.9,3.5-2.9,5.9-2.9s4.2,1.1,5.6,2.8c1.5,1.9,1.9,4,1.9,6.4h0ZM177.6,12.1c0,5.6,5,10.1,10.3,10.1s10.3-4.1,10.3-10.1-4.7-10-10.3-10-10.3,4.4-10.3,10Z"/>
  <path class="st0" d="M19.5,13.6c-.3,0-1,0-1-.4s.4-1.4.7-1.7c.8-1.2,2.2-1.9,3.6-1.9s1.8.2,2.4.9c.4.4.7,1.1.7,1.7s-.4,1-1,1.2c-.8.2-2.4.2-3.2.2h-2.3,0ZM28,14.3c.3,0,.3-.3.3-.5,0-1-.4-2.2-1-2.9-1-1.3-2.5-1.8-4-1.8s-3.6.7-5,1.9c-1.5,1.3-2,2.9-2,4.9,0,3.6,2.7,6.7,6.4,6.7s3.1-.5,4.4-1.6c.2-.2,1.1-1,1.1-1.3s0-.2-.2-.2c-.4,0-1.4,1.9-4.1,1.9s-5.4-2.8-5.4-6.1.3-.9,1.2-.9h8.5-.2Z"/>
  <path class="st0" d="M19.5,13.6c-.3,0-1,0-1-.4s.4-1.4.7-1.7c.8-1.2,2.2-1.9,3.6-1.9s1.8.2,2.4.9c.4.4.7,1.1.7,1.7s-.4,1-1,1.2c-.8.2-2.4.2-3.2.2h-2.3,0ZM28,14.3c.3,0,.3-.3.3-.5,0-1-.4-2.2-1-2.9-1-1.3-2.5-1.8-4-1.8s-3.6.7-5,1.9c-1.5,1.3-2,2.9-2,4.9,0,3.6,2.7,6.7,6.4,6.7s3.1-.5,4.4-1.6c.2-.2,1.1-1,1.1-1.3s0-.2-.2-.2c-.4,0-1.4,1.9-4.1,1.9s-5.4-2.8-5.4-6.1.3-.9,1.2-.9h8.5-.2Z"/>
  <path class="st0" d="M14.2,2.6c0-.2,0-.3-.3-.3s-2.7,0-3.5,0c-.2,0-.3.3-.3.5,0,.4.3.5.6.5,2-.2,1.6,1.6,1.6,2.7v2.8c0,.2.1,1.1-.2,1.1s-.4-.1-.5-.2c-.9-.4-2-.6-3-.6-1.8,0-3.5.8-4.8,2.1-1.3,1.3-2,2.9-2,4.7,0,3.5,2.5,6.7,6.1,6.7s4.1-1.4,4.3-2c.1-.3.1.9.1,1,0,.2.1.8.4.8h3.4s.3-.3.3-.7c0,0-.4-.4-.6-.4h-1.2c-.5,0-.4-1.5-.4-1.8V2.6ZM12.3,18.5c0,.6,0,1-.3,1.5-.8,1-2.2,1.4-3.3,1.4-3.1,0-4.8-3-4.8-5.9s1.8-5.6,4.9-5.8c.9,0,2.2.3,2.9.9.7.7.7,1.8.7,2.7v5.3h0Z"/>
  <path class="st0" d="M14.2,2.6c0-.2,0-.3-.3-.3s-2.7,0-3.5,0c-.2,0-.3.3-.3.5,0,.4.3.5.6.5,2-.2,1.6,1.6,1.6,2.7v2.8c0,.2.1,1.1-.2,1.1s-.4-.1-.5-.2c-.9-.4-2-.6-3-.6-1.8,0-3.5.8-4.8,2.1-1.3,1.3-2,2.9-2,4.7,0,3.5,2.5,6.7,6.1,6.7s4.1-1.4,4.3-2c.1-.3.1.9.1,1,0,.2.1.8.4.8h3.4s.3-.3.3-.7c0,0-.4-.4-.6-.4h-1.2c-.5,0-.4-1.5-.4-1.8V2.6ZM12.3,18.5c0,.6,0,1-.3,1.5-.8,1-2.2,1.4-3.3,1.4-3.1,0-4.8-3-4.8-5.9s1.8-5.6,4.9-5.8c.9,0,2.2.3,2.9.9.7.7.7,1.8.7,2.7v5.3h0Z"/>
</svg>