<?xml version="1.0" encoding="UTF-8"?>
<svg width="100px" height="80px" viewBox="0 0 100 80" version="1.1" xmlns="http://www.w3.org/2000/svg" xmlns:xlink="http://www.w3.org/1999/xlink">
    <title>MOMD</title>
    <g id="MOMD" stroke="none" stroke-width="1" fill="none" fill-rule="evenodd">
        <g id="Logo-MOM_White" transform="translate(13.000000, 8.000000)" fill="#FFFFFF">
            <path d="M38.55481,27.1765262 C38.2221586,27.1515764 37.8859643,27.1389181 37.5467865,27.1389181 C37.1908271,27.1389181 36.8384104,27.1528606 36.4899095,27.1803787 L37.3828848,35.3629772 L37.7433194,35.3629772 L38.55481,27.1765262 Z M38.6199419,26.4964439 C38.2656606,26.4691092 37.9078365,26.4551667 37.5468425,26.4551667 C37.1658969,26.4551667 36.788867,26.4705769 36.4159393,26.5010302 L33.5166132,0 L41.1508155,0.999273908 L38.6199419,26.4964439 Z M35.7540673,27.2582366 C35.4234669,27.3022656 35.0919342,27.3589528 34.7602151,27.4288488 C34.41246,27.502047 34.0706718,27.5880869 33.7355963,27.6866017 L36.3481411,35.5046771 L36.7005577,35.4305617 L35.7540673,27.2582366 Z M35.6732539,26.5797137 C35.3212102,26.6257606 34.9682341,26.6857501 34.6148852,26.7600489 C34.2427033,26.8383838 33.8770478,26.9312115 33.5188507,27.0376148 L25.0511551,1.71894558 L32.7289899,1.12565537 L35.6732539,26.5797137 Z M33.032609,27.9142314 C32.7186039,28.0254045 32.4066499,28.1490525 32.0971199,28.2855423 C31.7724864,28.4286364 31.4566167,28.5831047 31.1498837,28.7485802 L35.3662039,35.8561383 L35.6951261,35.7110262 L33.032609,27.9142314 Z M32.8093558,27.267391 C32.4748397,27.384985 32.1423747,27.5161546 31.8128931,27.6614501 C31.465511,27.8146342 31.1276385,27.9806601 30.8000216,28.158427 L17.1381894,5.14155503 L24.5202926,2.98175116 L32.8093558,27.267391 Z M30.5108348,29.1156533 C30.2274098,29.2888338 29.9484599,29.4739389 29.6749174,29.671152 C29.3879496,29.8779046 29.1117967,30.0940134 28.847018,30.3187446 L34.4806498,36.4017121 L34.7715334,36.1923911 L30.5108348,29.1156533 Z M30.1550059,28.5289857 C29.852748,28.7128066 29.5557111,28.9094693 29.2642681,29.1193407 C28.9569757,29.3407697 28.66199,29.5722886 28.3794972,29.8137141 L10.1276713,10.1164421 L16.8875447,6.48570411 L30.1550059,28.5289857 Z M28.3000636,30.8092822 C28.0597118,31.0369486 27.8264455,31.2754388 27.6006378,31.5245693 C27.3640152,31.7858078 27.1398857,32.0538341 26.9288086,32.3280978 L33.7308228,37.1175312 L33.9706153,36.8529906 L28.3000636,30.8092822 Z M27.8274338,30.308838 C27.571046,30.5506304 27.3223032,30.8041638 27.0819514,31.0694383 C26.828547,31.3490222 26.5893139,31.6363111 26.3642521,31.9303879 L4.32963429,16.4233886 L10.1681899,11.4822388 L27.8274338,30.308838 Z M26.4981517,32.9203423 C26.3115014,33.1924046 26.1339879,33.4734561 25.9663569,33.7634969 C25.790335,34.0676636 25.628298,34.3760498 25.4800592,34.6877381 L33.1496896,37.9719315 L33.3279491,37.6637288 L26.4981517,32.9203423 Z M25.9296608,32.5281177 C25.7301445,32.8174247 25.5408837,33.1164547 25.3622514,33.4252077 C25.1739229,33.7508386 25.0010709,34.0810558 24.8433225,34.4147586 L0,23.7839665 L4.65935829,17.7508984 L25.9296608,32.5281177 Z M41.3108574,27.6729527 C40.9908854,27.580125 40.6647602,27.498488 40.3332275,27.4287754 C39.985286,27.3555773 39.6375309,27.2966886 39.2907082,27.2517423 L38.4249566,35.4370927 L38.7775597,35.5113915 L41.3108574,27.6729527 Z M41.5191375,27.0213425 C41.1786545,26.9217269 40.8316453,26.8344028 40.4784828,26.760104 C40.1061146,26.6817691 39.7341192,26.6193948 39.3628697,26.5722471 L42.1602002,0.060759963 L49.4134568,2.60856904 L41.5191375,27.0213425 Z M43.900579,28.7254466 C43.6072714,28.5687769 43.3057594,28.4220137 42.9964159,28.2855239 C42.6717823,28.1424298 42.3441654,28.0132782 42.0146838,27.8980691 L39.4282439,35.7244 L39.7571661,35.8693286 L43.900579,28.7254466 Z M44.2428334,28.131019 C43.9308794,27.9635255 43.6101616,27.8068558 43.28068,27.6615602 C42.9331114,27.5081927 42.5825594,27.3706022 42.2295833,27.2484218 L50.5999449,1.89856539 L57.1511652,5.88208543 L44.2428334,28.131019 Z M46.2093555,30.2874106 C45.9557647,30.0738702 45.6922913,29.8682182 45.4185624,29.6711886 C45.1315946,29.464436 44.8386599,29.2707086 44.5408772,29.0901898 L40.3484243,36.211507 L40.6393079,36.420828 L46.2093555,30.2874106 Z M46.6702755,29.7764912 C46.4010217,29.5486414 46.1205801,29.3292304 45.8291371,29.119359 C45.5220312,28.8981135 45.208399,28.6915443 44.889173,28.4992845 L58.4624348,5.43177925 L64.0220405,10.6750779 L46.6702755,29.7764912 Z M48.1351167,32.2897926 C47.932617,32.028921 47.7183701,31.7735531 47.4927488,31.5244226 C47.2559398,31.2631841 47.0109263,31.0136866 46.7580813,30.7759303 L41.1445876,36.8770598 L41.3843801,37.1417839 L48.1351167,32.2897926 Z M48.694415,31.8850381 C48.4796087,31.6067384 48.2519363,31.3346761 48.0115844,31.0694016 C47.7581801,30.7898177 47.4954526,30.5232591 47.2241477,30.2695422 L65.4000829,10.5043923 L69.7223145,16.7757671 L48.694415,31.8850381 Z M49.5925554,34.6440761 C49.450097,34.3472475 49.2949591,34.0535377 49.1271416,33.7634969 C48.9511198,33.4593302 48.7644695,33.1648865 48.5677501,32.8803494 L41.7817718,37.6917973 L41.9600312,38 L49.5925554,34.6440761 Z M50.2256747,34.3632814 C50.074639,34.0470067 49.9099914,33.7340342 49.7311726,33.4252811 C49.5428441,33.0996503 49.3425819,32.7848432 49.1313184,32.4810434 L71.1060813,16.8924071 L74,23.9141088 L50.2256747,34.3632814 Z" id="Shape"></path>
            <path d="M50,35.0670083 C49.8540906,34.7191386 49.6951944,34.3749239 49.5233116,34.0350091 C49.3430256,33.6785394 49.1518537,33.3334647 48.9503688,33 L42,38.6388003 L42.1825778,39 L50,35.0670083 Z" id="Path"></path>
            <polygon id="Path" points="0 48.05 0 47.9500549 74 47.95 74 48.0499451"></polygon>
            <path d="M24.8474104,44.1754875 C24.8474104,44.392123 24.8474104,44.4056034 25.1187514,44.4056034 C25.6728169,44.4056034 25.9273623,44.0807451 25.9273623,43.4376737 C25.9273623,42.903015 25.6388526,42.4359481 25.1471171,42.4359481 C24.8530089,42.4359481 24.8474104,42.4564535 24.8474104,42.7676415 L24.8474104,44.1754875 Z M24.1914521,43.2009125 C24.1914521,42.5511959 24.1858536,42.4699339 23.9201112,42.4359481 L23.7730571,42.4156326 C23.7334943,42.3683563 23.7334943,42.2601335 23.7788422,42.2261477 C24.1349072,42.1855167 24.6154457,42.165391 25.0791886,42.165391 C25.5201643,42.165391 25.9047817,42.2329828 26.1535419,42.3953171 C26.441865,42.5781567 26.6510625,42.8961799 26.6510625,43.3835623 C26.6510625,44.0063181 26.249463,44.3176961 25.9725236,44.4530695 C25.9385593,44.4733851 25.9499429,44.5274965 25.9725236,44.5681275 C26.4248829,45.4817559 26.7074208,46.0572355 26.9731633,46.3211473 C27.131601,46.4834815 27.2086738,46.4766464 27.2766023,46.4834815 C27.3049681,46.5104423 27.2788417,46.6663211 27.2788417,46.6663211 L26.3142191,46.6674603 C26.3142191,46.6674603 26.164739,46.4428505 25.819871,45.8136392 C25.6672184,45.5292221 25.5087806,45.1568976 25.3731102,44.8929858 C25.271404,44.6900206 25.2092606,44.6628699 25.0226437,44.6628699 C24.8530089,44.6628699 24.8474104,44.6695152 24.8474104,44.8117238 L24.8474104,45.6782658 C24.8474104,46.3955742 24.8983568,46.4158897 25.1640993,46.4565207 L25.2883861,46.4768362 C25.3279489,46.5241125 25.3221638,46.6460056 25.2770025,46.6729664 C25.0282422,46.659486 24.7738834,46.6528407 24.5251231,46.6528407 C24.2763628,46.6528407 24.0218174,46.659486 23.7618601,46.6729664 C23.7166988,46.6460056 23.6997167,46.5241125 23.7504764,46.4768362 L23.8747633,46.4565207 C24.1406923,46.4158897 24.1914521,46.3955742 24.1914521,45.6782658 L24.1914521,43.2009125 Z M7.5577675,42.772559 C7.5577675,42.487952 7.55216899,42.4742818 7.40492828,42.4742818 L7.0878662,42.4742818 C6.56683189,42.4742818 6.41399267,42.5488985 6.20442192,43.0979869 C6.16467252,43.138618 6.04579757,43.1181126 6.02321693,43.0505208 C6.11951124,42.6844619 6.20442192,42.2642915 6.24398469,42.0269608 C6.25536832,42.0066453 6.27794897,42 6.30631473,42 C6.32889537,42 6.35166263,42.0066453 6.36285964,42.0269608 C6.39122541,42.1965099 6.47053758,42.203345 6.85571481,42.203345 L9.16603173,42.203345 C9.44353102,42.203345 9.5284417,42.1828396 9.59655686,42.0269608 C9.6191375,42.0134804 9.64171814,42 9.6644854,42 C9.69844967,42 9.72662882,42.0134804 9.73801245,42.0337959 C9.68128092,42.3117577 9.63611964,42.894642 9.65310177,43.1114673 C9.62473601,43.1657686 9.5284417,43.179249 9.47749529,43.1317828 C9.40396824,42.6031998 9.29629031,42.4742818 8.69034531,42.4742818 L8.36749812,42.4742818 C8.22044402,42.4742818 8.2146589,42.487952 8.2146589,42.772559 L8.2146589,45.7004609 C8.2146589,46.4189086 8.2656053,46.4392241 8.53190759,46.47302 L8.73569321,46.5001706 C8.77525599,46.5476368 8.76965748,46.6697197 8.72430958,46.6966805 C8.39586388,46.6832001 8.14113185,46.6763649 7.89199832,46.6763649 C7.64267817,46.6763649 7.37656251,46.6832001 7.01415254,46.6966805 C6.96880464,46.6697197 6.96320613,46.5339665 7.00276891,46.5001706 L7.24070543,46.4661848 C7.50682109,46.4255538 7.5577675,46.4189086 7.5577675,45.7004609 L7.5577675,42.772559 Z M12.5019763,44.5075987 C12.2130934,44.5075987 12.1961113,44.521079 12.1961113,44.7041085 L12.1961113,45.7005179 C12.1961113,46.4189655 12.2472443,46.4324459 12.51336,46.4730769 L12.6831813,46.5002276 C12.7227441,46.5476937 12.7171456,46.6695868 12.6717977,46.6967374 C12.3773163,46.6830672 12.1225842,46.6764219 11.8734507,46.6764219 C11.6243172,46.6764219 11.3693985,46.6830672 11.1542293,46.6967374 C11.1088814,46.6695868 11.1032828,46.5476937 11.1428456,46.5002276 L11.2221578,46.4865573 C11.4882735,46.4390912 11.5392199,46.4189655 11.5392199,45.7005179 L11.5392199,43.1791161 C11.5392199,42.4608583 11.4882735,42.440353 11.2221578,42.3997219 L11.0974977,42.3794064 C11.0579349,42.3456105 11.0635335,42.2100472 11.1088814,42.1828966 C11.3580149,42.1963769 11.6243172,42.2032121 11.8734507,42.2032121 C12.1225842,42.2032121 12.3773163,42.1963769 12.5982706,42.1828966 C12.6434319,42.2100472 12.649217,42.3456105 12.6096543,42.3794064 L12.51336,42.3997219 C12.2472443,42.4540232 12.1961113,42.4608583 12.1961113,43.1791161 L12.1961113,43.9993311 C12.1961113,44.1890059 12.2130934,44.2026761 12.5019763,44.2026761 L13.8271428,44.2026761 C14.1158391,44.2026761 14.1328212,44.1890059 14.1328212,43.9993311 L14.1328212,43.1791161 C14.1328212,42.4608583 14.0818748,42.440353 13.8157591,42.3997219 L13.6912857,42.3794064 C13.6515363,42.3456105 13.6571348,42.2100472 13.7024827,42.1828966 C13.9629998,42.1963769 14.2177319,42.2032121 14.467052,42.2032121 C14.7161856,42.2032121 14.9709176,42.1963769 15.1974705,42.1828966 C15.2428184,42.2100472 15.2484169,42.3456105 15.2088541,42.3794064 L15.1069613,42.3997219 C14.840659,42.4540232 14.7897126,42.4608583 14.7897126,43.1791161 L14.7897126,45.7005179 C14.7897126,46.4189655 14.840659,46.4390912 15.1069613,46.4799121 L15.2314347,46.5002276 C15.2711841,46.5476937 15.265399,46.6695868 15.2202377,46.6967374 C14.9709176,46.6830672 14.7161856,46.6764219 14.467052,46.6764219 C14.2065349,46.6764219 13.9516162,46.6830672 13.7024827,46.6967374 C13.6571348,46.6695868 13.6515363,46.5476937 13.6912857,46.5002276 L13.8157591,46.4799121 C14.0818748,46.4390912 14.1328212,46.4189655 14.1328212,45.7005179 L14.1328212,44.7041085 C14.1328212,44.521079 14.1158391,44.5075987 13.8271428,44.5075987 L12.5019763,44.5075987 Z M17.2352894,43.179211 C17.2352894,42.4607634 17.184343,42.4336128 16.9182274,42.3929817 L16.8275316,42.3795014 C16.7879688,42.3320352 16.7935673,42.2101421 16.8389152,42.1829915 C17.0540844,42.1964719 17.3202001,42.203307 17.5693336,42.203307 L18.650965,42.203307 C19.013375,42.203307 19.3420073,42.1964719 19.4155344,42.1829915 C19.438115,42.2982393 19.4720793,42.8336575 19.5060436,43.1249097 C19.4834629,43.179211 19.3701865,43.1928813 19.3248386,43.1520604 C19.2343294,42.7590407 19.1494187,42.5963267 18.9682137,42.5353802 C18.8379552,42.4947492 18.6679472,42.4742438 18.515108,42.4742438 L18.1357159,42.4742438 C17.8921808,42.4742438 17.8921808,42.487914 17.8921808,42.8742885 L17.8921808,44.0195517 C17.8921808,44.1959359 17.8977793,44.2025812 18.0280379,44.2025812 L18.2999387,44.2025812 C18.7926073,44.2025812 18.8775179,44.1959359 18.9284643,43.9044938 L18.9682137,43.6739982 C19.013375,43.626532 19.121053,43.626532 19.1494187,43.6806434 C19.1436336,43.8636729 19.1324366,44.1076489 19.1324366,44.35846 C19.1324366,44.6159164 19.1436336,44.8532471 19.1494187,45.0700725 C19.121053,45.1177285 19.013375,45.1177285 18.9682137,45.0769076 L18.9284643,44.8059709 C18.8889016,44.521174 18.7926073,44.5076936 18.2999387,44.5076936 L18.0280379,44.5076936 C17.8977793,44.5076936 17.8921808,44.521174 17.8921808,44.6905332 L17.8921808,45.5513793 C17.8921808,45.8969328 17.9035645,46.1410987 17.9884751,46.2561566 C18.0564037,46.3510889 18.152698,46.3985551 18.6283844,46.4052003 C19.3476058,46.4120355 19.4720793,46.2223607 19.6702664,45.6734622 C19.7212128,45.6258062 19.8175071,45.6463116 19.8514714,45.7140932 C19.8175071,45.9987002 19.6930337,46.5138029 19.6137215,46.6968324 C19.364588,46.6831621 18.8775179,46.676327 18.215028,46.676327 L17.5693336,46.676327 C17.3202001,46.676327 16.9747723,46.6831621 16.7200402,46.6968324 C16.6746923,46.6696817 16.6689072,46.5475988 16.7086566,46.5001326 L16.9182274,46.472982 C17.184343,46.4391861 17.2352894,46.4188706 17.2352894,45.7006128 L17.2352894,43.179211 Z M28.9804704,43.179211 C28.9804704,42.4607634 28.929524,42.4336128 28.6634083,42.3929817 L28.5727125,42.3795014 C28.5331497,42.3320352 28.5387482,42.2101421 28.5840961,42.1829915 C28.7992654,42.1964719 29.065381,42.203307 29.3145146,42.203307 L30.396146,42.203307 C30.7585559,42.203307 31.0871883,42.1964719 31.1607153,42.1829915 C31.183296,42.2982393 31.2174468,42.8336575 31.2512245,43.1249097 C31.2286439,43.179211 31.1153674,43.1928813 31.0700195,43.1520604 C30.9795103,42.7590407 30.8945996,42.5963267 30.7133947,42.5353802 C30.5831361,42.4947492 30.4131281,42.4742438 30.2602889,42.4742438 L29.8808968,42.4742438 C29.6373618,42.4742438 29.6373618,42.487914 29.6373618,42.8742885 L29.6373618,44.0195517 C29.6373618,44.1959359 29.6429603,44.2025812 29.7732188,44.2025812 L30.0451196,44.2025812 C30.5377882,44.2025812 30.6226989,44.1959359 30.6736453,43.9044938 L30.7133947,43.6739982 C30.7585559,43.626532 30.8662339,43.626532 30.8945996,43.6806434 C30.8888145,43.8636729 30.8776175,44.1076489 30.8776175,44.35846 C30.8776175,44.6159164 30.8888145,44.8532471 30.8945996,45.0700725 C30.8662339,45.1177285 30.7585559,45.1177285 30.7133947,45.0769076 L30.6736453,44.8059709 C30.6340825,44.521174 30.5377882,44.5076936 30.0451196,44.5076936 L29.7732188,44.5076936 C29.6429603,44.5076936 29.6373618,44.521174 29.6373618,44.6905332 L29.6373618,45.5513793 C29.6373618,45.8969328 29.6487454,46.1410987 29.7336561,46.2561566 C29.8015846,46.3510889 29.8978789,46.3985551 30.3735653,46.4052003 C31.0927868,46.4120355 31.2174468,46.2223607 31.4154473,45.6734622 C31.4665804,45.6258062 31.5626881,45.6463116 31.5968389,45.7140932 C31.5626881,45.9987002 31.4382146,46.5138029 31.3589024,46.6968324 C31.1097689,46.6831621 30.6226989,46.676327 29.960209,46.676327 L29.3145146,46.676327 C29.065381,46.676327 28.7199532,46.6831621 28.4652212,46.6968324 C28.4198733,46.6696817 28.4142748,46.5475988 28.4538375,46.5001326 L28.6634083,46.472982 C28.929524,46.4391861 28.9804704,46.4188706 28.9804704,45.7006128 L28.9804704,43.179211 Z M33.057284,46.5001516 C32.9553911,46.357943 32.8816775,45.8903065 32.8874626,45.4699463 C32.9214269,45.4021647 33.0177212,45.3955194 33.0628825,45.4427957 C33.1649619,45.7885391 33.4706403,46.5138219 34.0256389,46.5138219 C34.4559774,46.5138219 34.6995125,46.2020642 34.6995125,45.7885391 C34.6995125,45.4021647 34.5466732,45.0905969 34.1219332,44.8058 L33.8783982,44.643086 C33.4536582,44.358479 33.0798646,43.9451438 33.0798646,43.3351088 C33.0798646,42.6641274 33.4990061,42.0947234 34.3257189,42.0947234 C34.6202003,42.0947234 34.8355562,42.1761754 35.1016718,42.2371219 C35.1638152,42.3863555 35.2205468,42.8334866 35.2205468,43.1520794 C35.192181,43.2130259 35.0902882,43.219861 35.0393418,43.1723949 C34.9544311,42.8200062 34.756244,42.36604 34.2747724,42.36604 C33.8218533,42.36604 33.6348632,42.7182388 33.6348632,43.0776524 C33.6348632,43.3622595 33.799086,43.667182 34.1728796,43.9045128 L34.5240926,44.1281732 C34.8921011,44.358479 35.2998589,44.7788392 35.2998589,45.4633011 C35.2998589,46.2358601 34.8071904,46.7847586 33.9860761,46.7847586 C33.4650418,46.7847586 33.1705604,46.5816035 33.057284,46.5001516 M37.9823646,45.7005179 C37.9823646,46.4189655 38.033311,46.4390912 38.2994266,46.4799121 L38.4240867,46.5002276 C38.4636495,46.5476937 38.4578644,46.6695868 38.4127031,46.6967374 C38.1635695,46.683257 37.9086509,46.6764219 37.6595174,46.6764219 C37.4103838,46.6764219 37.1442682,46.683257 36.8951346,46.6967374 C36.8496001,46.6695868 36.8440016,46.5476937 36.883751,46.5002276 L37.0082245,46.4799121 C37.2745267,46.4390912 37.3252865,46.4189655 37.3252865,45.7005179 L37.3252865,43.1791161 C37.3252865,42.4608583 37.2745267,42.440353 37.0082245,42.3997219 L36.883751,42.3794064 C36.8440016,42.3321301 36.8496001,42.2100472 36.8951346,42.1828966 C37.1442682,42.1963769 37.3990002,42.2034019 37.6595174,42.2034019 C37.9086509,42.2034019 38.1635695,42.1963769 38.4127031,42.1828966 C38.4578644,42.2100472 38.4636495,42.3321301 38.4240867,42.3794064 L38.2994266,42.3997219 C38.033311,42.440353 37.9823646,42.4608583 37.9823646,43.1791161 L37.9823646,45.7005179 Z M41.0955819,45.4361314 C41.0955819,46.0934427 41.1353313,46.4460212 41.7354912,46.4460212 C42.7434089,46.4460212 43.1965147,45.5920103 43.1965147,44.4465572 C43.1965147,43.1047841 42.5452218,42.4541181 41.5996341,42.4541181 C41.3616976,42.4541181 41.1804926,42.5082295 41.1409298,42.5488606 C41.1011804,42.5894916 41.0955819,42.73189 41.0955819,43.0504828 L41.0955819,45.4361314 Z M40.4385039,43.219842 C40.4385039,42.5691761 40.4329054,42.4742438 40.1667897,42.447283 L40.0479148,42.4336128 C40.008352,42.3998169 40.008352,42.2777339 40.0535133,42.243938 C40.4612712,42.203307 40.9143769,42.1829915 41.4693755,42.1829915 C42.007392,42.1829915 42.3923826,42.2371029 42.805739,42.4132972 C43.4853976,42.7115745 43.9666825,43.4300221 43.9666825,44.4399119 C43.9666825,45.1921554 43.655219,45.9647145 42.9529797,46.3917199 C42.5508203,46.635696 42.0639369,46.716958 41.5485011,46.716958 C41.2030732,46.716958 40.9369576,46.676327 40.7273868,46.676327 C40.5124042,46.676327 40.2574855,46.6831621 40.008352,46.6968324 C39.9630041,46.6696817 39.957219,46.5475988 39.9969684,46.5001326 L40.1216284,46.4798171 C40.3877441,46.4391861 40.4385039,46.4188706 40.4385039,45.700423 L40.4385039,43.219842 Z M45.9651067,43.179211 C45.9651067,42.4607634 45.9141603,42.4336128 45.6480446,42.3929817 L45.5573488,42.3795014 C45.517786,42.3320352 45.5233845,42.2101421 45.5687324,42.1829915 C45.7839017,42.1964719 46.0500174,42.203307 46.2993375,42.203307 L47.3809689,42.203307 C47.7433789,42.203307 48.0718246,42.1964719 48.1453516,42.1829915 C48.1679323,42.2982393 48.2020832,42.8336575 48.2360474,43.1249097 C48.2134668,43.179211 48.1001903,43.1928813 48.0548424,43.1520604 C47.9641466,42.7590407 47.879236,42.5963267 47.698031,42.5353802 C47.5677724,42.4947492 47.3977644,42.4742438 47.2449252,42.4742438 L46.8655331,42.4742438 C46.6221847,42.4742438 46.6221847,42.487914 46.6221847,42.8742885 L46.6221847,44.0195517 C46.6221847,44.1959359 46.6277832,44.2025812 46.7580418,44.2025812 L47.0297559,44.2025812 C47.5224245,44.2025812 47.6075218,44.1959359 47.6582816,43.9044938 L47.698031,43.6739982 C47.7433789,43.626532 47.8510568,43.626532 47.879236,43.6806434 C47.8736375,43.8636729 47.8622538,44.1076489 47.8622538,44.35846 C47.8622538,44.6159164 47.8736375,44.8532471 47.879236,45.0700725 C47.8510568,45.1177285 47.7433789,45.1177285 47.698031,45.0769076 L47.6582816,44.8059709 C47.6187188,44.521174 47.5224245,44.5076936 47.0297559,44.5076936 L46.7580418,44.5076936 C46.6277832,44.5076936 46.6221847,44.521174 46.6221847,44.6905332 L46.6221847,45.5513793 C46.6221847,45.8969328 46.6333817,46.1410987 46.7182924,46.2561566 C46.7862209,46.3510889 46.8825152,46.3985551 47.3583883,46.4052003 C48.0774231,46.4120355 48.2020832,46.2223607 48.4000837,45.6734622 C48.4512167,45.6258062 48.547511,45.6463116 48.5814753,45.7140932 C48.547511,45.9987002 48.4228509,46.5138029 48.3437254,46.6968324 C48.0944052,46.6831621 47.6075218,46.676327 46.9448453,46.676327 L46.2993375,46.676327 C46.0500174,46.676327 45.7047761,46.6831621 45.4498575,46.6968324 C45.4045096,46.6696817 45.3989111,46.5475988 45.4384739,46.5001326 L45.6480446,46.472982 C45.9141603,46.4391861 45.9651067,46.4188706 45.9651067,45.7006128 L45.9651067,43.179211 Z M53.4510933,45.5242476 C53.4510933,45.7274027 53.4510933,46.5610982 53.4680755,46.716977 C53.4227276,46.7915938 53.343602,46.8187444 53.2754869,46.8119093 C53.1849777,46.6697007 53.0207548,46.4392051 52.6129969,45.8834714 L51.2878305,44.073872 C50.9254205,43.5722497 50.7386171,43.3216285 50.6423227,43.219861 C50.6253406,43.219861 50.6253406,43.2944778 50.6253406,43.6535118 L50.6253406,44.9751592 C50.6253406,45.4834267 50.6309391,46.1071319 50.7272334,46.3104769 C50.7781798,46.4120544 50.8744741,46.4595206 51.0161163,46.4798361 L51.1405898,46.5001516 C51.1915362,46.5476178 51.1859377,46.676346 51.1293928,46.6968513 C50.919822,46.6831811 50.6988677,46.676346 50.483885,46.676346 C50.2459485,46.676346 50.0931093,46.6831811 49.8947355,46.6968513 C49.8495743,46.6628656 49.8381906,46.5476178 49.8835385,46.5001516 L50.008012,46.4663557 C50.1156899,46.4392051 50.2175827,46.4188896 50.2571455,46.3104769 C50.3308592,46.1002968 50.3308592,45.5105774 50.3308592,44.9751592 L50.3308592,43.3689047 C50.3308592,42.8403217 50.3364577,42.731909 50.1440557,42.5353992 C50.0817257,42.4742628 49.9231013,42.4201514 49.8437891,42.3998358 L49.7588785,42.3795203 C49.7193157,42.3388893 49.7249142,42.203326 49.7814591,42.1830105 C49.996815,42.2099713 50.3082785,42.203326 50.4497341,42.203326 C50.5686091,42.203326 50.7046528,42.1964909 50.8405099,42.1830105 C50.9368042,42.4742628 51.5539462,43.3282737 51.7523199,43.58592 L52.3185155,44.317848 C52.556452,44.6296056 53.0830849,45.3480533 53.1396298,45.3886843 C53.1566119,45.3683688 53.1566119,45.3345729 53.1566119,45.2259703 L53.1566119,43.9045128 C53.1566119,43.3960554 53.1510134,42.77254 53.0491206,42.5691951 C52.9981742,42.4676175 52.9074784,42.4201514 52.7658362,42.3998358 L52.6355776,42.3795203 C52.5848178,42.3320542 52.5904163,42.203326 52.6469612,42.1830105 C52.8679156,42.1964909 53.0774863,42.203326 53.2982541,42.203326 C53.5417891,42.203326 53.6890299,42.1964909 53.8928155,42.1830105 C53.9381634,42.2168064 53.949547,42.3320542 53.9041991,42.3795203 L53.7739405,42.4133162 C53.6662626,42.4404669 53.5701549,42.4607824 53.5304055,42.5691951 C53.4510933,42.7793752 53.4510933,43.3689047 53.4510933,43.9045128 L53.4510933,45.5242476 Z M58.8983839,43.34183 C58.8588212,43.3961313 58.7569283,43.4027766 58.717179,43.3555003 C58.6208846,42.9284948 58.3661526,42.365926 57.6185654,42.365926 C56.8995306,42.365926 56.1747106,42.975961 56.1747106,44.3652002 C56.1747106,45.8089306 56.9277097,46.5137079 57.6583148,46.5137079 C58.3717511,46.5137079 58.6832147,45.944304 58.841839,45.5038182 C58.8927854,45.4428716 58.9832946,45.4700223 59.0116604,45.5309688 C58.9720976,45.9851249 58.8192584,46.4324459 58.7397596,46.5611741 C58.6720177,46.5748443 58.6039025,46.601995 58.5417591,46.6221206 C58.417099,46.6695868 58.0263233,46.7848346 57.6583148,46.7848346 C57.0975311,46.7848346 56.6162462,46.6492713 56.2084883,46.3306785 C55.749784,45.9714547 55.4043562,45.3547745 55.4043562,44.4669676 C55.4043562,43.6739032 55.6988376,43.057223 56.1179791,42.6710384 C56.5371206,42.2913092 57.1089147,42.0947994 57.6808954,42.0947994 C58.0037426,42.0947994 58.3945184,42.1625811 58.660634,42.2438431 C58.7285626,42.2643485 58.7681254,42.2709937 58.8192584,42.2844741 C58.8304554,42.440353 58.841839,42.8403977 58.8983839,43.34183 M60.857264,43.179211 C60.857264,42.4607634 60.8063175,42.4336128 60.5402019,42.3929817 L60.4495061,42.3795014 C60.4099433,42.3320352 60.4155418,42.2101421 60.4608897,42.1829915 C60.676059,42.1964719 60.9421746,42.203307 61.1914948,42.203307 L62.2729396,42.203307 C62.6355362,42.203307 62.9639819,42.1964719 63.0375089,42.1829915 C63.0600896,42.2982393 63.0942404,42.8336575 63.1282047,43.1249097 C63.1056241,43.179211 62.9923476,43.1928813 62.9469997,43.1520604 C62.8563039,42.7590407 62.7713932,42.5963267 62.5901883,42.5353802 C62.4599297,42.4947492 62.2899217,42.4742438 62.1370825,42.4742438 L61.7576904,42.4742438 C61.5141554,42.4742438 61.5141554,42.487914 61.5141554,42.8742885 L61.5141554,44.0195517 C61.5141554,44.1959359 61.5199405,44.2025812 61.6501991,44.2025812 L61.9219132,44.2025812 C62.4145818,44.2025812 62.4996791,44.1959359 62.5504389,43.9044938 L62.5901883,43.6739982 C62.6355362,43.626532 62.7432141,43.626532 62.7713932,43.6806434 C62.7657947,43.8636729 62.7544111,44.1076489 62.7544111,44.35846 C62.7544111,44.6159164 62.7657947,44.8532471 62.7713932,45.0700725 C62.7432141,45.1177285 62.6355362,45.1177285 62.5901883,45.0769076 L62.5504389,44.8059709 C62.5108761,44.521174 62.4145818,44.5076936 61.9219132,44.5076936 L61.6501991,44.5076936 C61.5199405,44.5076936 61.5141554,44.521174 61.5141554,44.6905332 L61.5141554,45.5513793 C61.5141554,45.8969328 61.525539,46.1410987 61.6104497,46.2561566 C61.6783782,46.3510889 61.7746725,46.3985551 62.2505455,46.4052003 C62.9695804,46.4120355 63.0942404,46.2223607 63.2922409,45.6734622 C63.343374,45.6258062 63.4396683,45.6463116 63.4736325,45.7140932 C63.4396683,45.9987002 63.3150082,46.5138029 63.2358826,46.6968324 C62.9865625,46.6831621 62.4996791,46.676327 61.8370026,46.676327 L61.1914948,46.676327 C60.9421746,46.676327 60.5969334,46.6831621 60.3420148,46.6968324 C60.2966669,46.6696817 60.2910684,46.5475988 60.3306311,46.5001326 L60.5402019,46.472982 C60.8063175,46.4391861 60.857264,46.4188706 60.857264,45.7006128 L60.857264,43.179211 Z M64.9231791,46.5001516 C64.8212863,46.357943 64.7475726,45.8903065 64.7531712,45.4699463 C64.787322,45.4021647 64.8834297,45.3955194 64.9289642,45.4427957 C65.0308571,45.7885391 65.3367221,46.5138219 65.8915341,46.5138219 C66.3220592,46.5138219 66.5654076,46.2020642 66.5654076,45.7885391 C66.5654076,45.4021647 66.4125684,45.0905969 65.9878284,44.8058 L65.7442934,44.643086 C65.31974,44.358479 64.9459464,43.9451438 64.9459464,43.3351088 C64.9459464,42.6641274 65.3649013,42.0947234 66.1918006,42.0947234 C66.4860955,42.0947234 66.7014513,42.1761754 66.967567,42.2371219 C67.0297104,42.3863555 67.0864419,42.8334866 67.0864419,43.1520794 C67.0580762,43.2130259 66.9561834,43.219861 66.905237,43.1723949 C66.8203263,42.8200062 66.6219525,42.36604 66.1406676,42.36604 C65.6877485,42.36604 65.5007584,42.7182388 65.5007584,43.0776524 C65.5007584,43.3622595 65.6649812,43.667182 66.0387748,43.9045128 L66.3898011,44.1281732 C66.7579962,44.358479 67.1657541,44.7788392 67.1657541,45.4633011 C67.1657541,46.2358601 66.6730856,46.7847586 65.8519713,46.7847586 C65.330937,46.7847586 65.0364556,46.5816035 64.9231791,46.5001516 M25.2803802,53.3903187 C25.2803802,53.6069542 25.2803802,53.6204346 25.5517212,53.6204346 C26.1059733,53.6204346 26.3603321,53.2955763 26.3603321,52.6525049 C26.3603321,52.1178462 26.072009,51.6507793 25.5800869,51.6507793 C25.2859788,51.6507793 25.2803802,51.6712847 25.2803802,51.9824728 L25.2803802,53.3903187 Z M24.6246085,52.4157438 C24.6246085,51.7660271 24.6188234,51.6847651 24.353081,51.6507793 L24.2060269,51.6304638 C24.1666507,51.5831875 24.1666507,51.4749647 24.211812,51.440979 C24.567877,51.4003479 25.0486021,51.3802223 25.5121584,51.3802223 C25.9531341,51.3802223 26.3377515,51.4478141 26.5865118,51.6101483 C26.8748348,51.7929879 27.0840323,52.111201 27.0840323,52.5983935 C27.0840323,53.2211494 26.6826194,53.5325273 26.4054934,53.6679008 C26.3715291,53.6882163 26.3829127,53.7423277 26.4054934,53.7829587 C26.8578527,54.6965871 27.1405773,55.2720667 27.4063197,55.5359785 C27.5645708,55.6983127 27.6418302,55.6914776 27.7095721,55.6983127 C27.7379379,55.7254634 27.7118115,55.8811523 27.7118115,55.8811523 L26.7471889,55.8822915 C26.7471889,55.8822915 26.5977088,55.6576817 26.2528408,55.0284705 C26.1001882,54.7440533 25.9419371,54.3717288 25.8062666,54.107817 C25.7043738,53.9048518 25.6422304,53.8777012 25.4556135,53.8777012 C25.2859788,53.8777012 25.2803802,53.8843464 25.2803802,54.026555 L25.2803802,54.893097 C25.2803802,55.6104054 25.3313267,55.630721 25.5970691,55.671352 L25.7213559,55.6916675 C25.7609187,55.7389438 25.7553202,55.8608368 25.7101589,55.8877976 C25.4613986,55.8743172 25.2068532,55.867672 24.9580929,55.867672 C24.7093326,55.867672 24.4547872,55.8743172 24.1948299,55.8877976 C24.1496686,55.8608368 24.1326865,55.7389438 24.1834463,55.6916675 L24.3079197,55.671352 C24.5736621,55.630721 24.6246085,55.6104054 24.6246085,54.893097 L24.6246085,52.4157438 Z M45.1389724,53.3903187 C45.1389724,53.6069542 45.1389724,53.6204346 45.4103134,53.6204346 C45.9643789,53.6204346 46.2189243,53.2955763 46.2189243,52.6525049 C46.2189243,52.1178462 45.9304146,51.6507793 45.4386791,51.6507793 C45.1445709,51.6507793 45.1389724,51.6712847 45.1389724,51.9824728 L45.1389724,53.3903187 Z M44.4830141,52.4157438 C44.4830141,51.7660271 44.4774156,51.6847651 44.2116732,51.6507793 L44.0646191,51.6304638 C44.0250563,51.5831875 44.0250563,51.4749647 44.0704042,51.440979 C44.4264692,51.4003479 44.9070077,51.3802223 45.3707506,51.3802223 C45.8117263,51.3802223 46.1963436,51.4478141 46.4451039,51.6101483 C46.7332404,51.7929879 46.9426245,52.111201 46.9426245,52.5983935 C46.9426245,53.2211494 46.541025,53.5325273 46.2640856,53.6679008 C46.2301213,53.6882163 46.2415049,53.7423277 46.2640856,53.7829587 C46.7164449,54.6965871 46.9989828,55.2720667 47.2647253,55.5359785 C47.423163,55.6983127 47.5002358,55.6914776 47.5681643,55.6983127 C47.5965301,55.7254634 47.5704037,55.8811523 47.5704037,55.8811523 L46.6057811,55.8822915 C46.6057811,55.8822915 46.456301,55.6576817 46.111433,55.0284705 C45.9587804,54.7440533 45.8003426,54.3717288 45.6646722,54.107817 C45.562966,53.9048518 45.5008226,53.8777012 45.3142057,53.8777012 C45.1445709,53.8777012 45.1389724,53.8843464 45.1389724,54.026555 L45.1389724,54.893097 C45.1389724,55.6104054 45.1899188,55.630721 45.4556613,55.671352 L45.5797615,55.6916675 C45.6195109,55.7389438 45.6137258,55.8608368 45.5685645,55.8877976 C45.3198042,55.8743172 45.0654454,55.867672 44.8166851,55.867672 C44.5679248,55.867672 44.3133794,55.8743172 44.0534221,55.8877976 C44.0082608,55.8608368 43.9912786,55.7389438 44.0420384,55.6916675 L44.1663253,55.671352 C44.4322543,55.630721 44.4830141,55.6104054 44.4830141,54.893097 L44.4830141,52.4157438 Z M4.82009794,55.6872247 C4.87682947,55.7143753 4.87104434,55.8567737 4.80890092,55.8839244 C4.5653659,55.8702541 4.34441152,55.863419 4.11804525,55.863419 C3.85174297,55.863419 3.60820795,55.8702541 3.35907442,55.8839244 C3.31391314,55.8567737 3.29114588,55.7280455 3.34769079,55.6872247 L3.50071663,55.6534288 C3.72726951,55.6059626 3.74425165,55.5584965 3.74425165,55.0975052 L3.74425165,52.325672 L3.73286802,52.325672 C3.57984218,52.6983762 3.50071663,52.9017212 3.39303869,53.1728478 L2.90596865,54.3657671 C2.71356665,54.8400488 2.43046885,55.5922924 2.32838942,55.911075 C2.30580877,55.9380358 2.2208981,55.9380358 2.1811487,55.911075 C2.08485439,55.5450161 1.84131937,54.8806799 1.71106079,54.5417716 L1.20719523,53.2406295 C1.09951729,52.9558326 0.946678072,52.5288271 0.878749529,52.325672 L0.8673659,52.325672 C0.856168888,52.6577452 0.844785258,53.1865181 0.833401629,53.4711251 C0.822204616,53.8844603 0.810820987,54.4876601 0.810820987,55.0433938 C0.810820987,55.4907148 0.816419493,55.5922924 1.05995452,55.6465936 L1.24675801,55.6872247 C1.2865074,55.7280455 1.2865074,55.8567737 1.2411595,55.8839244 C1.03158875,55.8702541 0.856168888,55.863419 0.646598137,55.863419 C0.465393151,55.863419 0.261420906,55.8702541 0.0406531425,55.8839244 C-0.0102932645,55.8499386 -0.0102932645,55.7210206 0.0236710068,55.6872247 L0.119965314,55.6737443 C0.391679485,55.6331132 0.431428879,55.5313458 0.470991657,55.1180106 C0.510741051,54.6910051 0.52753657,54.2505193 0.555902335,53.545552 C0.578669594,53.0847507 0.612633865,52.5221819 0.612633865,52.1088467 C0.612633865,51.7902539 0.52753657,51.6546905 0.306768807,51.6072244 L0.114180191,51.5665934 C0.08021592,51.5191272 0.0860010432,51.390399 0.13694745,51.3700835 C0.306768807,51.3835639 0.459608028,51.390399 0.669178778,51.390399 C0.8673659,51.390399 1.06555302,51.390399 1.27512377,51.3700835 C1.29770441,51.7765836 1.43934662,52.1289723 1.58658734,52.4950312 L2.20951447,54.0606547 C2.25486237,54.1759025 2.40210308,54.5146209 2.47563013,54.6704998 C2.56632593,54.4739899 2.63985298,54.2843152 2.77011156,53.9659122 L3.30252951,52.6645803 C3.48373449,52.2170695 3.66493948,51.8172146 3.76123379,51.3700835 C3.91407301,51.3835639 4.1008765,51.390399 4.22553657,51.390399 C4.46328647,51.390399 4.66147359,51.3835639 4.82009794,51.3700835 C4.88242797,51.3972342 4.8938116,51.5259623 4.83708007,51.5665934 L4.65027658,51.6003893 C4.40114305,51.6478554 4.34441152,51.7562681 4.34441152,52.1154919 C4.34441152,53.1185466 4.35579515,54.1217911 4.39535793,55.1246559 C4.41234006,55.578812 4.4746701,55.619443 4.65587509,55.6534288 L4.82009794,55.6872247 Z M7.70172375,53.8980736 C7.8603481,53.8980736 7.88292874,53.8844034 7.83758084,53.7218793 L7.59983094,52.9084994 C7.49793813,52.5492756 7.46957236,52.4205474 7.4412066,52.3730812 L7.43000958,52.3730812 C7.40724232,52.4205474 7.35629592,52.5899066 7.26000161,52.9084994 L7.02225171,53.7013739 C6.96552018,53.8980736 6.97690381,53.8980736 7.1127609,53.8980736 L7.70172375,53.8980736 Z M7.02225171,54.2029962 C6.875011,54.2029962 6.8806095,54.2029962 6.8296631,54.3860256 L6.5975117,55.1994056 C6.48423526,55.5990705 6.5068159,55.6127408 6.71638665,55.6533718 L6.8806095,55.6871677 C6.92017228,55.7346338 6.91457377,55.8567168 6.86922587,55.8838674 C6.68802089,55.8701972 6.5012174,55.8701972 6.269066,55.8635519 C6.08207589,55.8635519 5.90665603,55.8701972 5.70828229,55.8838674 C5.66871951,55.8500715 5.66312101,55.7483041 5.70268379,55.6871677 L5.87269176,55.6533718 C6.03691461,55.619386 6.09905803,55.5652746 6.18415532,55.3416141 C6.25208387,55.1654198 6.34259305,54.8808128 6.461468,54.5147538 L7.23742097,52.1019546 C7.30534951,51.8851292 7.36189442,51.7224152 7.34491229,51.6073573 C7.54309941,51.5597013 7.73008952,51.2819294 7.74147315,51.2819294 C7.78663443,51.2819294 7.8150002,51.3022449 7.83758084,51.3362307 C7.92827664,51.6411532 8.00199031,51.9595561 8.09249949,52.2646685 L8.90801524,55.1042834 C9.03827381,55.5584395 9.06645296,55.5990705 9.35533589,55.667042 L9.44024656,55.6871677 C9.48559446,55.7346338 9.48559446,55.8500715 9.44584507,55.8838674 C9.21369368,55.8701972 9.00412293,55.8635519 8.7096415,55.8635519 C8.46629309,55.8635519 8.21697295,55.8770323 8.01878582,55.8838674 C7.97362454,55.8500715 7.96783942,55.7279886 8.00199031,55.6871677 L8.12646376,55.667042 C8.33024939,55.6330563 8.35861515,55.5924253 8.27370448,55.3076284 L8.00758881,54.3860256 C7.95645579,54.2029962 7.93387515,54.2029962 7.7752508,54.2029962 L7.02225171,54.2029962 Z M13.7977133,54.7113206 C13.7977133,54.9146656 13.7977133,55.7481712 13.8146954,55.90405 C13.7693475,55.9786668 13.6900353,56.0058174 13.6221068,55.9989823 C13.5315976,55.8567737 13.3673748,55.6262781 12.9596169,55.0705445 L11.6344505,53.260945 C11.2720405,52.7593228 11.0850504,52.5087015 10.9889427,52.4069341 C10.9719606,52.4069341 10.9719606,52.4815509 10.9719606,52.8405848 L10.9719606,54.1622322 C10.9719606,54.6704998 10.9775591,55.2942049 11.0738534,55.4975499 C11.1247998,55.5991275 11.2210941,55.6465936 11.3627363,55.6669091 L11.4872097,55.6872247 C11.5381562,55.7346908 11.5325576,55.863419 11.4758261,55.8839244 C11.2662554,55.8702541 11.0454876,55.863419 10.8303183,55.863419 C10.5923818,55.863419 10.4395426,55.8702541 10.2413555,55.8839244 C10.1960076,55.8499386 10.1848106,55.7346908 10.2299719,55.6872247 L10.3546319,55.6534288 C10.4623099,55.6262781 10.5642027,55.6059626 10.6037655,55.4975499 C10.6774791,55.2873698 10.6774791,54.6976504 10.6774791,54.1622322 L10.6774791,52.5559778 C10.6774791,52.0273947 10.6830776,51.9189821 10.490489,51.7224722 C10.4283456,51.6613358 10.2697213,51.6072244 10.1904091,51.5869089 L10.1054984,51.5665934 C10.0659356,51.5259623 10.0715341,51.390399 10.128079,51.3700835 C10.3432483,51.3970443 10.6547119,51.390399 10.7963541,51.390399 C10.915229,51.390399 11.0512727,51.3835639 11.1871298,51.3700835 C11.2834241,51.6613358 11.9005661,52.5153467 12.0987532,52.772993 L12.6651355,53.504921 C12.9028854,53.8166787 13.4297048,54.5351263 13.4862497,54.5757573 C13.5032318,54.5554418 13.5032318,54.5216459 13.5032318,54.4130434 L13.5032318,53.0915858 C13.5032318,52.5831284 13.4976333,51.9596131 13.3955539,51.7562681 C13.3446075,51.6546905 13.2540983,51.6072244 13.1124561,51.5869089 L12.9821975,51.5665934 C12.9312511,51.5191272 12.9368496,51.390399 12.9935812,51.3700835 C13.2143489,51.3835639 13.4239197,51.390399 13.6448741,51.390399 C13.8882225,51.390399 14.0354632,51.3835639 14.2394354,51.3700835 C14.2847833,51.4038794 14.2959803,51.5191272 14.2506324,51.5665934 L14.1203739,51.6003893 C14.0128825,51.6275399 13.9165882,51.6478554 13.8770255,51.7562681 C13.7977133,51.9664482 13.7977133,52.5559778 13.7977133,53.0915858 L13.7977133,54.7113206 Z M16.5509467,54.6232045 C16.5509467,55.2805157 16.5905095,55.6330943 17.190856,55.6330943 C18.1987737,55.6330943 18.6518795,54.7790833 18.6518795,53.6336302 C18.6518795,52.2918571 18.0005866,51.6411912 17.0549989,51.6411912 C16.8170624,51.6411912 16.6358574,51.6953026 16.5962946,51.7359336 C16.5565452,51.7765646 16.5509467,51.9189631 16.5509467,52.2375559 L16.5509467,54.6232045 Z M15.8940553,52.4069151 C15.8940553,51.7562491 15.8882702,51.6613168 15.6221545,51.6341662 L15.5032795,51.6206858 C15.4637168,51.5868899 15.4637168,51.464807 15.5088781,51.4310111 C15.9166359,51.39038 16.3697417,51.3700645 16.9247403,51.3700645 C17.4625701,51.3700645 17.8477474,51.4241759 18.2611037,51.6003703 C18.9405758,51.8986476 19.4220473,52.6170952 19.4220473,53.626985 C19.4220473,54.3792285 19.1105837,55.1517875 18.4083444,55.578793 C18.0061851,55.822769 17.5193017,55.904031 17.0038658,55.904031 C16.658438,55.904031 16.3923223,55.8634 16.1827516,55.8634 C15.9675823,55.8634 15.7128503,55.8702351 15.4637168,55.8839054 C15.4183689,55.8567547 15.4127704,55.7346718 15.4523331,55.6872057 L15.5768066,55.6668902 C15.8431089,55.6262591 15.8940553,55.6059436 15.8940553,54.887496 L15.8940553,52.4069151 Z M21.7886479,53.8980736 C21.9472722,53.8980736 21.9698529,53.8844034 21.924505,53.7218793 L21.6867551,52.9084994 C21.5848623,52.5492756 21.5564965,52.4205474 21.5281307,52.3730812 L21.5169337,52.3730812 C21.4941664,52.4205474 21.44322,52.5899066 21.3469257,52.9084994 L21.1091758,53.7013739 C21.0524443,53.8980736 21.0638279,53.8980736 21.199685,53.8980736 L21.7886479,53.8980736 Z M21.1091758,54.2029962 C20.9619351,54.2029962 20.9675336,54.2029962 20.9165872,54.3860256 L20.6844358,55.1994056 C20.5711594,55.5990705 20.59374,55.6127408 20.8033108,55.6533718 L20.9675336,55.6871677 C21.0070964,55.7346338 21.0014979,55.8567168 20.95615,55.8838674 C20.774945,55.8701972 20.5881415,55.8701972 20.3559901,55.8635519 C20.169,55.8635519 19.9935802,55.8701972 19.795393,55.8838674 C19.7556436,55.8500715 19.7500451,55.7483041 19.7896079,55.6871677 L19.9596159,55.6533718 C20.1238387,55.619386 20.1859822,55.5652746 20.2710794,55.3416141 C20.339008,55.1654198 20.4295172,54.8808128 20.5483921,54.5147538 L21.3243451,52.1019546 C21.3922736,51.8851292 21.4488185,51.7224152 21.4318364,51.6073573 C21.6300235,51.5597013 21.8170136,51.2819294 21.8283973,51.2819294 C21.8735586,51.2819294 21.9019243,51.3022449 21.924505,51.3362307 C22.0152008,51.6411532 22.0889144,51.9595561 22.1794236,52.2646685 L22.9949394,55.1042834 C23.1251979,55.5584395 23.1533771,55.5990705 23.44226,55.667042 L23.5271707,55.6871677 C23.5725186,55.7346338 23.5725186,55.8500715 23.5327692,55.8838674 C23.3006178,55.8701972 23.0910471,55.8635519 22.7965656,55.8635519 C22.5532172,55.8635519 22.3038971,55.8770323 22.10571,55.8838674 C22.0605487,55.8500715 22.0547635,55.7279886 22.0889144,55.6871677 L22.2133879,55.667042 C22.4171735,55.6330563 22.4455393,55.5924253 22.3606286,55.3076284 L22.0945129,54.3860256 C22.0433799,54.2029962 22.0207993,54.2029962 21.8621749,54.2029962 L21.1091758,54.2029962 Z M29.6417286,54.8875909 C29.6417286,55.6060386 29.692675,55.6261642 29.9587907,55.6669851 L30.0834507,55.6873006 C30.1230135,55.7347667 30.117415,55.8566598 30.0720671,55.8838105 C29.8229336,55.8703301 29.5680149,55.8634949 29.3188814,55.8634949 C29.0697479,55.8634949 28.8036322,55.8703301 28.5544987,55.8838105 C28.5091508,55.8566598 28.5035523,55.7347667 28.543115,55.6873006 L28.6675885,55.6669851 C28.9338908,55.6261642 28.9848372,55.6060386 28.9848372,54.8875909 L28.9848372,52.366379 C28.9848372,51.6479314 28.9338908,51.627426 28.6675885,51.5869848 L28.543115,51.5664795 C28.5035523,51.5192032 28.5091508,51.3971202 28.5544987,51.3699696 C28.8036322,51.38345 29.0583642,51.390475 29.3188814,51.390475 C29.5680149,51.390475 29.8229336,51.38345 30.0720671,51.3699696 C30.117415,51.3971202 30.1230135,51.5192032 30.0834507,51.5664795 L29.9587907,51.5869848 C29.692675,51.627426 29.6417286,51.6479314 29.6417286,52.366379 L29.6417286,54.8875909 Z M35.0856788,54.7113206 C35.0856788,54.9146656 35.0856788,55.7481712 35.1026609,55.90405 C35.057313,55.9786668 34.9780008,56.0058174 34.9100723,55.9989823 C34.8195631,55.8567737 34.6553402,55.6262781 34.2475824,55.0705445 L32.9224159,53.260945 C32.560006,52.7593228 32.3730159,52.5087015 32.2769082,52.4069341 C32.259926,52.4069341 32.259926,52.4815509 32.259926,52.8405848 L32.259926,54.1622322 C32.259926,54.6704998 32.2655245,55.2942049 32.3618188,55.4975499 C32.4127653,55.5991275 32.5090596,55.6465936 32.6507018,55.6669091 L32.7751752,55.6872247 C32.8261216,55.7346908 32.8205231,55.863419 32.7637916,55.8839244 C32.5542208,55.8702541 32.3334531,55.863419 32.1182838,55.863419 C31.8803473,55.863419 31.7275081,55.8702541 31.529321,55.8839244 C31.4839731,55.8499386 31.4727761,55.7346908 31.5179373,55.6872247 L31.6425974,55.6534288 C31.7500887,55.6262781 31.8521682,55.6059626 31.8917309,55.4975499 C31.9654446,55.2873698 31.9654446,54.6976504 31.9654446,54.1622322 L31.9654446,52.5559778 C31.9654446,52.0273947 31.9710431,51.9189821 31.7784545,51.7224722 C31.7163111,51.6613358 31.5576867,51.6072244 31.4783746,51.5869089 L31.3934639,51.5665934 C31.3537145,51.5259623 31.3594996,51.390399 31.4160445,51.3700835 C31.6312138,51.3970443 31.9426773,51.390399 32.0843196,51.390399 C32.2031945,51.390399 32.3392382,51.3835639 32.4750953,51.3700835 C32.5713896,51.6613358 33.1885316,52.5153467 33.3867187,52.772993 L33.9531009,53.504921 C34.1908508,53.8166787 34.7174837,54.5351263 34.7742152,54.5757573 C34.7911973,54.5554418 34.7911973,54.5216459 34.7911973,54.4130434 L34.7911973,53.0915858 C34.7911973,52.5831284 34.7854122,51.9596131 34.6835194,51.7562681 C34.632573,51.6546905 34.5420638,51.6072244 34.4004216,51.5869089 L34.270163,51.5665934 C34.2192166,51.5191272 34.2248151,51.390399 34.2815466,51.3700835 C34.5023144,51.3835639 34.7118852,51.390399 34.9328395,51.390399 C35.1761879,51.390399 35.3234287,51.3835639 35.5274009,51.3700835 C35.5727488,51.4038794 35.5839458,51.5191272 35.5385979,51.5665934 L35.4083393,51.6003893 C35.300848,51.6275399 35.2045537,51.6478554 35.1649909,51.7562681 C35.0856788,51.9664482 35.0856788,52.5559778 35.0856788,53.0915858 L35.0856788,54.7113206 Z M39.5913193,53.4912887 C39.5913193,54.4267516 39.9253635,55.7009329 40.8937184,55.7009329 C41.5392262,55.7009329 42.0602605,55.1246938 42.0602605,53.7624154 C42.0602605,52.7390452 41.6750833,51.5529611 40.7748435,51.5529611 C40.2084613,51.5529611 39.5913193,52.0477482 39.5913193,53.4912887 M42.8304284,53.6403324 C42.8304284,54.9756501 41.9809484,55.9718697 40.8369869,55.9718697 C39.5571684,55.9718697 38.8209648,54.8943881 38.8209648,53.6879885 C38.8209648,52.3052046 39.6592478,51.2818345 40.8483705,51.2818345 C42.1565548,51.2818345 42.8304284,52.406972 42.8304284,53.6403324 M49.9547329,54.8875909 C49.9547329,55.6060386 50.0056793,55.6261642 50.2717949,55.6669851 L50.396455,55.6873006 C50.4360178,55.7347667 50.4304193,55.8566598 50.3850714,55.8838105 C50.1359379,55.8703301 49.8812058,55.8634949 49.6320723,55.8634949 C49.3827521,55.8634949 49.1166365,55.8703301 48.867503,55.8838105 C48.8221551,55.8566598 48.8163699,55.7347667 48.8561193,55.6873006 L48.9807794,55.6669851 C49.2468951,55.6261642 49.2976548,55.6060386 49.2976548,54.8875909 L49.2976548,52.366379 C49.2976548,51.6479314 49.2468951,51.627426 48.9807794,51.5869848 L48.8561193,51.5664795 C48.8163699,51.5192032 48.8221551,51.3971202 48.867503,51.3699696 C49.1166365,51.38345 49.3715551,51.390475 49.6320723,51.390475 C49.8812058,51.390475 50.1359379,51.38345 50.3850714,51.3699696 C50.4304193,51.3971202 50.4360178,51.5192032 50.396455,51.5664795 L50.2717949,51.5869848 C50.0056793,51.627426 49.9547329,51.6479314 49.9547329,52.366379 L49.9547329,54.8875909 Z M52.5779503,52.3662841 C52.5779503,51.6478364 52.5270039,51.6206858 52.2608882,51.5800548 L52.1701924,51.5665744 C52.1306296,51.5191082 52.1362282,51.3972152 52.1815761,51.3700645 C52.3967453,51.3835449 52.662861,51.39038 52.9121811,51.39038 L53.9938125,51.39038 C54.3562225,51.39038 54.6846682,51.3835449 54.7581953,51.3700645 C54.7807759,51.4853123 54.8149268,52.0207305 54.8488911,52.3119828 C54.8263104,52.3662841 54.713034,52.3799543 54.6676861,52.3391334 C54.5769903,51.9461137 54.4920796,51.7833998 54.3108746,51.7224532 C54.180616,51.6818222 54.010608,51.6613168 53.8579554,51.6613168 L53.4785633,51.6613168 C53.2350283,51.6613168 53.2350283,51.6749871 53.2350283,52.0613615 L53.2350283,53.2066247 C53.2350283,53.383009 53.2406268,53.3896542 53.3708854,53.3896542 L53.6425996,53.3896542 C54.1352681,53.3896542 54.2203654,53.383009 54.2711252,53.0915668 L54.3108746,52.8610712 C54.3562225,52.813605 54.4639004,52.813605 54.4920796,52.8677164 C54.4864811,53.0507459 54.4750975,53.2947219 54.4750975,53.545533 C54.4750975,53.8029894 54.4864811,54.0403202 54.4920796,54.2571455 C54.4639004,54.3048016 54.3562225,54.3048016 54.3108746,54.2639807 L54.2711252,53.9930439 C54.2315624,53.708247 54.1352681,53.6947666 53.6425996,53.6947666 L53.3708854,53.6947666 C53.2406268,53.6947666 53.2350283,53.708247 53.2350283,53.8776062 L53.2350283,54.7384523 C53.2350283,55.0840059 53.2462253,55.3281717 53.331136,55.4432297 C53.3990645,55.538162 53.4953589,55.5856281 53.9712319,55.5922734 C54.6902667,55.5991085 54.8149268,55.4094338 55.0129273,54.8605352 C55.0640603,54.8128792 55.1603546,54.8333846 55.1943189,54.9011662 C55.1603546,55.1857733 55.0356945,55.7008759 54.956569,55.8839054 C54.7072488,55.8702351 54.2203654,55.8634 53.5576889,55.8634 L52.9121811,55.8634 C52.662861,55.8634 52.3176198,55.8702351 52.0627011,55.8839054 C52.0173532,55.8567547 52.0117547,55.7346718 52.0513175,55.6872057 L52.2608882,55.660055 C52.5270039,55.6262591 52.5779503,55.6059436 52.5779503,54.887496 L52.5779503,52.3662841 Z M60.1219375,54.7113206 C60.1219375,54.9146656 60.1219375,55.7481712 60.1391062,55.90405 C60.0935717,55.9786668 60.0144462,56.0058174 59.946331,55.9989823 C59.8558218,55.8567737 59.691599,55.6262781 59.2838411,55.0705445 L57.9586747,53.260945 C57.5962647,52.7593228 57.4094612,52.5087015 57.3131669,52.4069341 C57.2961848,52.4069341 57.2961848,52.4815509 57.2961848,52.8405848 L57.2961848,54.1622322 C57.2961848,54.6704998 57.3019699,55.2942049 57.3980776,55.4975499 C57.449024,55.5991275 57.5453183,55.6465936 57.6869605,55.6669091 L57.8114339,55.6872247 C57.8623804,55.7346908 57.8567818,55.863419 57.8002369,55.8839244 C57.5906662,55.8702541 57.3697118,55.863419 57.1547292,55.863419 C56.9167926,55.863419 56.7639534,55.8702541 56.5655797,55.8839244 C56.5204184,55.8499386 56.5090348,55.7346908 56.5543827,55.6872247 L56.6790427,55.6534288 C56.7865341,55.6262781 56.8884269,55.6059626 56.9281763,55.4975499 C57.0017033,55.2873698 57.0017033,54.6976504 57.0017033,54.1622322 L57.0017033,52.5559778 C57.0017033,52.0273947 57.0073018,51.9189821 56.8148998,51.7224722 C56.7525698,51.6613358 56.5939455,51.6072244 56.5148199,51.5869089 L56.4297226,51.5665934 C56.3901598,51.5259623 56.3957583,51.390399 56.4523032,51.3700835 C56.6676591,51.3970443 56.9791227,51.390399 57.1205783,51.390399 C57.2396398,51.390399 57.3754969,51.3835639 57.511354,51.3700835 C57.6076483,51.6613358 58.2247903,52.5153467 58.4231641,52.772993 L58.9893597,53.504921 C59.2272962,53.8166787 59.753929,54.5351263 59.8104739,54.5757573 C59.8274561,54.5554418 59.8274561,54.5216459 59.8274561,54.4130434 L59.8274561,53.0915858 C59.8274561,52.5831284 59.8218575,51.9596131 59.7199647,51.7562681 C59.6690183,51.6546905 59.5783225,51.6072244 59.4366803,51.5869089 L59.3066084,51.5665934 C59.2556619,51.5191272 59.2612605,51.390399 59.3178054,51.3700835 C59.5387597,51.3835639 59.7483305,51.390399 59.9690983,51.390399 C60.2126333,51.390399 60.359874,51.3835639 60.5636596,51.3700835 C60.6090075,51.4038794 60.6203912,51.5191272 60.5750433,51.5665934 L60.4447847,51.6003893 C60.3371067,51.6275399 60.240999,51.6478554 60.2012497,51.7562681 C60.1219375,51.9664482 60.1219375,52.5559778 60.1219375,53.0915858 L60.1219375,54.7113206 Z M63.3355547,51.9596511 C63.3355547,51.675044 63.3297696,51.6613738 63.1825289,51.6613738 L62.8654668,51.6613738 C62.3444325,51.6613738 62.1915933,51.7359906 61.9820225,52.285079 C61.9424597,52.32571 61.8233982,52.3052046 61.8008175,52.2376128 C61.8972985,51.8715539 61.9820225,51.4513835 62.0217719,51.2140528 C62.0331555,51.1937373 62.0557362,51.187092 62.0839153,51.187092 C62.1066826,51.187092 62.1294499,51.1937373 62.1406469,51.2140528 C62.1690126,51.3836019 62.2483248,51.390437 62.6333154,51.390437 L64.943819,51.390437 C65.2213182,51.390437 65.3062289,51.3699316 65.3741575,51.2140528 C65.3969247,51.2005724 65.4195054,51.187092 65.442086,51.187092 C65.4760503,51.187092 65.504416,51.2005724 65.5157997,51.2208879 C65.4590681,51.4988497 65.4137202,52.081734 65.4307024,52.2985594 C65.4025232,52.3528606 65.3062289,52.366341 65.2552825,52.3188749 C65.1815689,51.7902918 65.0740775,51.6613738 64.4681325,51.6613738 L64.145472,51.6613738 C63.9980446,51.6613738 63.9924461,51.675044 63.9924461,51.9596511 L63.9924461,54.887553 C63.9924461,55.6060006 64.0433925,55.6263161 64.3095082,55.660112 L64.5134804,55.6872626 C64.5530432,55.7347288 64.5472581,55.8568117 64.5020968,55.8837725 C64.1736511,55.8702921 63.9187325,55.863457 63.6695989,55.863457 C63.4204654,55.863457 63.1543497,55.8702921 62.7919398,55.8837725 C62.7465919,55.8568117 62.7409934,55.7210585 62.7805561,55.6872626 L63.0184926,55.6532769 C63.2846083,55.6126458 63.3355547,55.6060006 63.3355547,54.887553 L63.3355547,51.9596511 Z M68.106807,53.8980736 C68.2654314,53.8980736 68.288012,53.8844034 68.2428507,53.7218793 L68.0049142,52.9084994 C67.9030214,52.5492756 67.8746556,52.4205474 67.8462899,52.3730812 L67.8349062,52.3730812 C67.8123256,52.4205474 67.7613792,52.5899066 67.6650849,52.9084994 L67.427335,53.7013739 C67.3706035,53.8980736 67.3819871,53.8980736 67.5180308,53.8980736 L68.106807,53.8980736 Z M67.427335,54.2029962 C67.2800943,54.2029962 67.2856928,54.2029962 67.2347464,54.3860256 L67.002595,55.1994056 C66.8893185,55.5990705 66.9120858,55.6127408 67.1214699,55.6533718 L67.2856928,55.6871677 C67.3252556,55.7346338 67.3196571,55.8567168 67.2744958,55.8838674 C67.0931042,55.8701972 66.9063007,55.8701972 66.6741493,55.8635519 C66.4871592,55.8635519 66.3117393,55.8701972 66.1135522,55.8838674 C66.0738028,55.8500715 66.0682043,55.7483041 66.1077671,55.6871677 L66.277775,55.6533718 C66.4418113,55.619386 66.5043279,55.5652746 66.589052,55.3416141 C66.6571671,55.1654198 66.7476763,54.8808128 66.8667379,54.5147538 L67.6425042,52.1019546 C67.7104328,51.8851292 67.7671643,51.7224152 67.7501822,51.6073573 C67.9481827,51.5597013 68.1351728,51.2819294 68.1465564,51.2819294 C68.1917177,51.2819294 68.2200835,51.3022449 68.2428507,51.3362307 C68.3333599,51.6411532 68.4070736,51.9595561 68.4975828,52.2646685 L69.3129119,55.1042834 C69.4431705,55.5584395 69.4715362,55.5990705 69.7604192,55.667042 L69.8453298,55.6871677 C69.8906777,55.7346338 69.8906777,55.8500715 69.8509283,55.8838674 C69.618777,55.8701972 69.4092062,55.8635519 69.1149114,55.8635519 C68.8713764,55.8635519 68.6222428,55.8770323 68.4238691,55.8838674 C68.3787078,55.8500715 68.3729227,55.7279886 68.4070736,55.6871677 L68.531547,55.667042 C68.7353327,55.6330563 68.7636984,55.5924253 68.6787878,55.3076284 L68.4126721,54.3860256 C68.3617257,54.2029962 68.3389584,54.2029962 68.1803341,54.2029962 L67.427335,54.2029962 Z M72.1370037,54.7452115 C72.1370037,55.0841198 72.1483874,55.3280958 72.2331114,55.4431537 C72.3012266,55.538086 72.3917358,55.5923873 72.8448415,55.5923873 C73.4733672,55.5923873 73.564063,55.5584015 73.8245801,54.8604593 C73.8811251,54.8266634 73.9716342,54.846789 74,54.9010903 C73.9548387,55.1856973 73.8301786,55.7008 73.7622501,55.8838294 C73.5245002,55.8701592 73.0374302,55.8635139 72.4031194,55.8635139 L71.8143432,55.8635139 C71.5254602,55.8635139 71.2421758,55.8701592 71.0044259,55.8838294 C70.959078,55.8566788 70.9420959,55.7211155 70.9930423,55.6873196 L71.1630503,55.6533338 C71.4291659,55.5990325 71.4799257,55.5923873 71.4799257,54.8876099 L71.4799257,52.3662081 C71.4799257,51.6614307 71.4291659,51.6411152 71.1630503,51.5936491 L71.0044259,51.5664984 C70.9646765,51.5327025 70.9646765,51.3971392 71.0156229,51.3699886 C71.2989073,51.383469 71.553826,51.3903041 71.8143432,51.3903041 C72.0634767,51.3903041 72.3182087,51.383469 72.5673422,51.3699886 C72.6182887,51.3971392 72.6238872,51.5327025 72.5787259,51.5664984 L72.4540658,51.5936491 C72.1879501,51.6479504 72.1370037,51.6614307 72.1370037,52.3662081 L72.1370037,54.7452115 Z" id="Shape"></path>
            <polygon id="Path" points="0 58.05 0 57.9501098 74 57.95 74 58.0499451"></polygon>
            <path d="M24.9305216,63.6963932 C24.9885526,63.725337 24.9826349,63.8771404 24.9188772,63.9060843 C24.6699548,63.8915112 24.4439394,63.8842246 24.2123881,63.8842246 C23.9399861,63.8842246 23.6910637,63.8915112 23.4360327,63.9060843 C23.3896461,63.8771404 23.3665483,63.7399101 23.4245792,63.6963932 L23.5809193,63.6603651 C23.8126615,63.609764 23.8300326,63.5591629 23.8300326,63.0677246 L23.8300326,60.1128203 L23.8183882,60.1128203 C23.6620482,60.5101405 23.5809193,60.7269158 23.470775,61.0159495 L22.9725484,62.2876574 C22.7757393,62.793264 22.4859662,63.5951909 22.3817395,63.9348257 C22.3586416,63.9637696 22.271786,63.9637696 22.2311262,63.9348257 C22.1328171,63.5447921 21.8837038,62.8365786 21.7504616,62.4752864 L21.2348639,61.0882079 C21.1249104,60.7846011 20.9683795,60.3293932 20.898895,60.1128203 L20.8874415,60.1128203 C20.8757971,60.4668259 20.8641528,61.0303202 20.8525084,61.3339271 C20.840864,61.7745618 20.8294105,62.4176011 20.8294105,63.0100393 C20.8294105,63.4869044 20.8351373,63.5951909 21.0842506,63.6530786 L21.2755238,63.6963932 C21.3158018,63.7399101 21.3158018,63.8771404 21.2696061,63.9060843 C21.0552351,63.8915112 20.8757971,63.8842246 20.6614261,63.8842246 C20.4760705,63.8842246 20.2674262,63.8915112 20.0414108,63.9060843 C19.9894883,63.8698539 19.9894883,63.7324212 20.0242306,63.6963932 L20.1227305,63.6820224 C20.4006684,63.6387078 20.4411374,63.530219 20.4817973,63.0895843 C20.5224571,62.6343764 20.5396374,62.1647978 20.5686529,61.4132696 C20.5919416,60.9220338 20.6266839,60.322309 20.6266839,59.8816743 C20.6266839,59.5420394 20.5396374,59.3975226 20.3138128,59.3469214 L20.1170038,59.3036068 C20.0820707,59.2530057 20.0879883,59.1157754 20.1401016,59.0941181 C20.3138128,59.1084888 20.4701529,59.1157754 20.684524,59.1157754 C20.8874415,59.1157754 21.0899773,59.1157754 21.3043484,59.0941181 C21.3274462,59.5274663 21.4723328,59.9031292 21.6229461,60.2933652 L22.2601416,61.9623932 C22.3065283,62.0852528 22.4569507,62.4463425 22.5323528,62.6127191 C22.625126,62.403028 22.7003372,62.2008258 22.8335794,61.8611909 L23.3781926,60.4741125 C23.5635482,59.9970449 23.7487129,59.5707809 23.8472128,59.0941181 C24.0037438,59.1084888 24.195017,59.1157754 24.3223416,59.1157754 C24.5657281,59.1157754 24.7682639,59.1084888 24.9305216,59.0941181 C24.9942793,59.1228596 25.0057328,59.2602923 24.9478927,59.3036068 L24.7566195,59.3396349 C24.5017795,59.390236 24.4439394,59.505809 24.4439394,59.8887585 C24.4439394,60.9580618 24.4555838,62.0273651 24.4960527,63.0966684 C24.5134239,63.5808201 24.5771816,63.6241347 24.7625371,63.6603651 L24.9305216,63.6963932 Z M27.7863525,61.7890742 C27.9486102,61.7890742 27.9717081,61.7745011 27.9253215,61.6012428 L27.6821258,60.7341416 C27.5778991,60.3511922 27.5488836,60.2139619 27.5198681,60.1633607 L27.5082237,60.1633607 C27.4851259,60.2139619 27.4330125,60.3945067 27.3345126,60.7341416 L27.0913169,61.5793831 C27.0332859,61.7890742 27.0449303,61.7890742 27.1838992,61.7890742 L27.7863525,61.7890742 Z M27.0913169,62.1141359 C26.9407036,62.1141359 26.9464303,62.1141359 26.894317,62.3092539 L26.6568481,63.1763551 C26.540977,63.6024167 26.5640748,63.6169898 26.7784459,63.6603044 L26.9464303,63.6963324 C26.9868993,63.747136 26.9811726,63.8770797 26.9349768,63.9060236 C26.7494304,63.8914504 26.5583481,63.8914504 26.3208792,63.8843663 C26.129606,63.8843663 25.9499772,63.8914504 25.7474414,63.9060236 C25.7067815,63.8699955 25.7008639,63.7615067 25.7415237,63.6963324 L25.9154258,63.6603044 C26.0832194,63.624074 26.147168,63.5663887 26.2338327,63.3279561 C26.3035081,63.1401247 26.3960904,62.8365178 26.5178791,62.4464842 L27.3114147,59.874327 C27.3808992,59.643181 27.4389302,59.4697203 27.421559,59.3470631 C27.6240948,59.2962596 27.815368,59.0001417 27.8270124,59.0001417 C27.8732081,59.0001417 27.9022236,59.021799 27.9253215,59.0580294 C28.0180947,59.3830911 28.0934968,59.722726 28.1860791,60.0477877 L29.0200837,63.0751528 C29.1533259,63.5591021 29.1823414,63.6024167 29.4778413,63.6748775 L29.5646969,63.6963324 C29.6110835,63.747136 29.6110835,63.8699955 29.5704236,63.9060236 C29.3329547,63.8914504 29.1185837,63.8843663 28.8175479,63.8843663 C28.5684346,63.8843663 28.3135946,63.898737 28.110677,63.9060236 C28.0644813,63.8699955 28.0585637,63.7398494 28.0934968,63.6963324 L28.2208214,63.6748775 C28.4292748,63.6386471 28.4582903,63.5953326 28.3714347,63.2917257 L28.0992235,62.3092539 C28.0471102,62.1141359 28.0238214,62.1141359 27.8615637,62.1141359 L27.0913169,62.1141359 Z M31.7084265,62.6921629 C31.7084265,63.053455 31.7200709,63.3135449 31.8067356,63.4362021 C31.876411,63.5376068 31.9689933,63.5952921 32.4324776,63.5952921 C33.0753999,63.5952921 33.1681731,63.5590617 33.4346575,62.8150225 C33.4924976,62.7789945 33.58508,62.8004493 33.6140955,62.858337 C33.5678997,63.1617415 33.4403843,63.7108651 33.3708998,63.9059831 C33.1275133,63.89141 32.6294776,63.8843258 31.9806377,63.8843258 L31.3783753,63.8843258 C31.0828754,63.8843258 30.7931022,63.89141 30.5499066,63.9059831 C30.5035199,63.8770392 30.4861488,63.7325224 30.5382622,63.6964944 L30.7121643,63.6602639 C30.9843754,63.6023762 31.0362979,63.5952921 31.0362979,62.8437639 L31.0362979,60.1560337 C31.0362979,59.4047079 30.9843754,59.3830506 30.7121643,59.3324495 L30.5499066,59.3035056 C30.5092467,59.2674776 30.5092467,59.1229608 30.56136,59.0940169 C30.8511332,59.1083876 31.1118909,59.1156742 31.3783753,59.1156742 C31.6332153,59.1156742 31.8937821,59.1083876 32.1486221,59.0940169 C32.2007355,59.1229608 32.2064622,59.2674776 32.1602665,59.3035056 L32.032751,59.3324495 C31.7605399,59.3903372 31.7084265,59.4047079 31.7084265,60.1560337 L31.7084265,62.6921629 Z M35.7810948,62.5620977 C35.7810948,63.2628223 35.8217546,63.6386876 36.4356614,63.6386876 C37.4666659,63.6386876 37.9301503,62.7282719 37.9301503,61.5071651 C37.9301503,60.0767721 37.2641301,59.3831316 36.2966925,59.3831316 C36.0533059,59.3831316 35.8679503,59.4408169 35.8274814,59.4841315 C35.7868215,59.5274461 35.7810948,59.6792495 35.7810948,60.0188843 L35.7810948,62.5620977 Z M35.1089661,60.1994292 C35.1089661,59.5057888 35.1032394,59.4045865 34.8310282,59.375845 L34.7094304,59.3612719 C34.6689614,59.3252439 34.6689614,59.1950978 34.7151571,59.1590697 C35.1322549,59.1157552 35.5957392,59.0940979 36.1634503,59.0940979 C36.7137902,59.0940979 37.1075992,59.1517832 37.5306145,59.3396146 C38.2256502,59.6575922 38.7179591,60.4234911 38.7179591,61.500081 C38.7179591,62.3020079 38.3993613,63.125592 37.681037,63.5807999 C37.2698569,63.8408898 36.7716303,63.9275189 36.2443882,63.9275189 C35.8910482,63.9275189 35.6188371,63.8842043 35.404466,63.8842043 C35.1845591,63.8842043 34.9238014,63.8914909 34.6689614,63.906064 C34.6225748,63.8771202 34.6166572,63.7469741 34.657317,63.6963729 L34.7848325,63.6747156 C35.0570436,63.631401 35.1089661,63.6097438 35.1089661,62.8438449 L35.1089661,60.1994292 Z M41.0176852,62.8438044 C41.0176852,63.6097033 41.0697985,63.6313606 41.3420097,63.6748775 L41.4695252,63.6963324 C41.5099941,63.7469336 41.5042674,63.8770797 41.4578808,63.9060236 C41.2030407,63.8914504 40.942474,63.8843663 40.6876339,63.8843663 C40.432603,63.8843663 40.1603919,63.8914504 39.9055518,63.9060236 C39.8591652,63.8770797 39.8532476,63.7469336 39.8939075,63.6963324 L40.0214229,63.6748775 C40.2936341,63.6313606 40.3455565,63.6097033 40.3455565,62.8438044 L40.3455565,60.1560742 C40.3455565,59.3903777 40.2936341,59.368518 40.0214229,59.3252034 L39.8939075,59.3035461 C39.8532476,59.252945 39.8591652,59.1230013 39.9055518,59.0940574 C40.1603919,59.1084281 40.4211495,59.1157147 40.6876339,59.1157147 C40.942474,59.1157147 41.2030407,59.1084281 41.4578808,59.0940574 C41.5042674,59.1230013 41.5099941,59.252945 41.4695252,59.3035461 L41.3420097,59.3252034 C41.0697985,59.368518 41.0176852,59.3903777 41.0176852,60.1560742 L41.0176852,62.8438044 Z M45.1365491,62.0924989 C44.8990802,62.7499089 44.6325958,63.5951504 44.5342867,63.9637291 C44.5226424,63.9853864 44.4762558,63.9999595 44.4355959,63.9999595 C44.3951269,63.9999595 44.3546579,63.9853864 44.3256424,63.9637291 C44.256158,63.6748978 44.1633847,63.3206898 44.059158,63.0172853 L43.0453337,59.9755495 C42.8832669,59.4913978 42.8311536,59.3901955 42.5994114,59.3325102 L42.4604425,59.2962798 C42.4197826,59.2458811 42.4197826,59.1157349 42.4778136,59.0940776 C42.7036381,59.1084484 42.9527514,59.1157349 43.1785759,59.1157349 C43.4393336,59.1157349 43.6363335,59.1084484 43.9432869,59.0940776 C43.9954003,59.1373922 44.0013179,59.2529652 43.9490137,59.3035664 L43.804318,59.3468809 C43.6768025,59.3831114 43.6306068,59.4191394 43.6306068,59.4770271 C43.6306068,59.5419989 43.6768025,59.7008865 43.9142714,60.438044 L44.3313692,61.7241226 C44.4355959,62.0489819 44.5921268,62.4754483 44.6501578,62.6414201 C44.962838,61.7312067 45.3104512,60.7341618 45.6174046,59.7514877 C45.7099869,59.462454 45.6926158,59.4045662 45.5189046,59.3541675 L45.3509202,59.3035664 C45.3104512,59.2458811 45.316178,59.1301057 45.3625646,59.0940776 C45.6000335,59.1084484 45.7970334,59.1157349 45.9821981,59.1157349 C46.1908424,59.1157349 46.3819247,59.1084484 46.5441824,59.0940776 C46.590569,59.1301057 46.5848423,59.2458811 46.5558268,59.3035664 L46.4109402,59.3395944 C46.277698,59.3758248 46.1503734,59.4264259 46.0518734,59.6359147 C45.8896158,59.9828361 45.7273581,60.4667854 45.4608736,61.1966563 L45.1365491,62.0924989 Z M47.8188216,60.1561146 C47.8188216,59.3902158 47.7667083,59.3612719 47.4944971,59.3179573 L47.4017239,59.3035866 C47.3612549,59.2529855 47.3669816,59.1230417 47.4133683,59.0940979 C47.633466,59.1084686 47.9056772,59.1157552 48.1607081,59.1157552 L49.2671147,59.1157552 C49.6378259,59.1157552 49.9737947,59.1084686 50.049006,59.0940979 C50.0721038,59.2169575 50.1070369,59.7877383 50.1417792,60.0982269 C50.1186813,60.1561146 50.0028102,60.1706878 49.9564236,60.1271708 C49.8636504,59.7081933 49.7767948,59.5347326 49.5914392,59.4697608 C49.458197,59.4264462 49.284295,59.4045865 49.1279549,59.4045865 L48.7398727,59.4045865 C48.4909503,59.4045865 48.4909503,59.4191596 48.4909503,59.8310529 L48.4909503,61.0519573 C48.4909503,61.2399911 48.496677,61.2470753 48.6299192,61.2470753 L48.9078571,61.2470753 C49.4118104,61.2470753 49.4988569,61.2399911 49.5507794,60.9293001 L49.5914392,60.6835809 C49.6378259,60.6329798 49.7479702,60.6329798 49.7767948,60.6906651 C49.7710681,60.8857831 49.7594237,61.145873 49.7594237,61.4132494 C49.7594237,61.6879124 49.7710681,61.9407157 49.7767948,62.1718617 C49.7479702,62.2224629 49.6378259,62.2224629 49.5914392,62.1791483 L49.5507794,61.8901146 C49.5103104,61.5867101 49.4118104,61.5723394 48.9078571,61.5723394 L48.6299192,61.5723394 C48.496677,61.5723394 48.4909503,61.5867101 48.4909503,61.767255 L48.4909503,62.6849573 C48.4909503,63.0533336 48.5024037,63.3136259 48.5892593,63.436283 C48.6587438,63.5374853 48.7572438,63.5880865 49.2440169,63.5951706 C49.9795215,63.6024572 50.1070369,63.400255 50.3095727,62.8151034 C50.361877,62.7642999 50.4603769,62.7861596 50.4951192,62.858418 C50.4603769,63.1618225 50.3328615,63.710946 50.2519235,63.906064 C49.9968926,63.8914909 49.4988569,63.8842043 48.8210015,63.8842043 L48.1607081,63.8842043 C47.9056772,63.8842043 47.5525281,63.8914909 47.2917704,63.906064 C47.2453838,63.8771202 47.2396571,63.7469741 47.280126,63.6963729 L47.4944971,63.6674291 C47.7667083,63.631401 47.8188216,63.6097438 47.8188216,62.8438449 L47.8188216,60.1561146 Z M51.7060579,63.6963932 C51.6018312,63.5447921 51.5264291,63.0462697 51.5321559,62.598146 C51.567089,62.5258875 51.6653981,62.5188034 51.7119756,62.5692021 C51.8162023,62.9377808 52.1290733,63.7109663 52.6965935,63.7109663 C53.1369799,63.7109663 53.3859023,63.378618 53.3859023,62.9377808 C53.3859023,62.5258875 53.2295623,62.1935392 52.7950934,61.8901348 L52.5459801,61.7166741 C52.1117022,61.4132696 51.7293467,60.9726349 51.7293467,60.322309 C51.7293467,59.6070113 52.1578979,59 53.0037377,59 C53.3047735,59 53.5250622,59.0868316 53.7972733,59.1518034 C53.8608402,59.3108934 53.9188712,59.7875562 53.9188712,60.127191 C53.8898557,60.1921629 53.7856289,60.1994495 53.7335156,60.1488483 C53.64666,59.7731854 53.4437424,59.2890337 52.9514335,59.2890337 C52.48814,59.2890337 52.2968668,59.6646966 52.2968668,60.0478484 C52.2968668,60.3512529 52.4648513,60.6763146 52.8472068,60.9293203 L53.2062735,61.1677529 C53.5829023,61.4132696 54,61.8611909 54,62.5910618 C54,63.414646 53.4960467,64 52.6561245,64 C52.1231557,64 51.821929,63.7832247 51.7060579,63.6963932" id="Shape"></path>
        </g>
    </g>
</svg>