<?xml version="1.0" encoding="UTF-8"?>
<svg id="Layer_1" xmlns="http://www.w3.org/2000/svg" version="1.1" viewBox="0 0 103.3 71.9">
  <!-- Generator: Adobe Illustrator 29.1.0, SVG Export Plug-In . SVG Version: 2.1.0 Build 142)  -->
  <defs>
    <style>
      .st0 {
        fill: #fff;
      }
    </style>
  </defs>
  <g id="Layer_11" data-name="Layer_1">
    <path class="st0" d="M75.1,31.2l-1-.6.3-1.2-.9.8-1-.7.5,1.1-.9.8h1.2l.5,1,.3-1.2h1.1,0ZM73.5,35.6l-.8-.8.5-1-1.1.5-.9-.8.2,1.2-1,.5,1.2.2.2,1.2.5-1.1,1.2.2h0ZM64.6,30.6c-.3-.5,0-.6-.2-.9-.3-.4-.7-.8-1-1.2-.2-.3-.6-.5-.8-.8-.4-.4-.7-.6-.8-.6,0,0,.2.4.2.5s.2.4.5.6c.4.4,0,.8.4,1.1,0,0,1,1.1,1.2,1.3.3.3,1.5,1.8,1.6,1.8l.4.4s0-.2-.2-.3c0,0-.5-.6-.6-.8,0,0-.5-.9-.7-1.2h0ZM53,22.8c.2.8,0,1,0,1.3,0,.2,0,.3,0,.7,0,.3.5,2.3.6,2.7,0,.4.2.4.3.6,0,.4.4.6.7.7.5.2.5.8.8,1.4.3.6.6,1,.8,1.7.2.6,1.6,3.9,1.8,4.4,0,.2.7.2.6,0-.3-.7-.5-1.4-.7-2.2-.2-.6.4-.2,0-1.1-.2-.4-.4-.8-.7-1-.2-.2-.3-.9-.5-1.3,0-.3,0-.3-.4-1.1-.2-.6.4-.4,0-1.3-.2-.6-1.4-2.7-1.5-2.9,0-.1-.3-.5-.6-.9s-.5-.8-.6-1c-.2-.4-.7-1.2-.9-1.6s-.5-1.1-.7-1c0,.1.5,1.3.7,2h.3ZM56.3,23.6c0,0,.5.9.5,1,.3.5.6,1,.8,1.6,0,.3,1.3,2.5,1.6,3.1s1,.9,1.4,1.5c.3.5.4.5.6.5.3,0,1,.8,1.2,1,.5.6,1,1.1,1.6,1.6,0,0,1,1.6,1.2,1.5,0,0-.3-.8-.4-1-.2-.2-.3-.5-.5-.7-.2-.5-.5-1-.8-1.4-.2-.4-.5-.8-.7-1.2-.3-.3,0-.4-.3-.7s-.7-.7-.9-.8l-.8-.8c-.2-.2-.9-.6-.8-.9,0-.4,0-.7-.3-1-.2-.1-.6-.8-1.1-1.3-.4-.4-.8-.8-1.2-1.3-.5-.5-.8-.9-.9-.9l-.2.2ZM44,30.1c.2,0,0,.3-.2.6-.2.4-.4.9-.5,1.3,0,.3,0,.5,0,.8s-.6,1.3-.7,1.6c0,0,0,.2,0,.3,0,0,0,.2,0,0,0,0,.7-1,.9-1.2s.4-.4.4-.7.3-.5.5-.8.5-.5.6-.9c0-.3.3,0,.6-.6.3-.5,1-1.8,1.2-2,.2-.3,0-.6,0-.9v-.9c0-.3.2-.6.3-1,0-.3.2-.5.2-.8h-.2c-.3.3-.9,1.4-1.2,1.5-.5.3-.8.9-.9,1.2,0,.2-.2.5-.5.9-.2.3-.4.7-.6,1v.4l.2.2ZM41.8,29.2c.2-.5.9-1.3.7-1.4,0,0-1.2,1.1-1.9,1.9-.2.2-.4.4-.5.7,0,0-.3.5-.5.8s-.6.9-.8,1.2-.4.6-.6.9c-.2.2-.3.5-.7.9-.5.6-.7,1-.7,1.1l1.4-1.6c.3-.3.6-.7.9-1,0-.2.4-.5.5-.6,0-.2.2-.3.4-.5.4-.3.6-.3.7-.5,0-.2.8-1.3,1.1-1.8h0ZM33.3,35.3l-1-.5.2-1.2-.9.8-1-.6.5,1.1-.9.8,1.2-.2.5,1,.2-1.2s1.2,0,1.2,0ZM31.7,31.6l-.9-.8.5-1.1-1,.6-.9-.8.3,1.2-1,.6h1.2l.3,1.3.5-1.1h1.2-.2ZM29,26.3l-1.1.4,1.1.3v1.2l.7-1,1.2.3-.7-.9.7-1-1.1.5-.8-.9v1.2h0ZM29.2,21.9l-1.2.2,1,.5-.2,1.2.8-.9,1.1.5-.6-1,.8-.9-1.2.3-.6-1v1.2h.1ZM31,17.6l-.4-1.1-.4,1.1h-1.2l.9.7-.4,1.1,1-.7.9.7-.4-1.1,1-.7h-1.2.2ZM33.9,13.9l-1.2-.3-.2-1.2-.6,1-1.1-.3.8.9-.6,1,1.1-.5.8.9v-1.2c-.1,0,.9-.5.9-.5v.2ZM35.3,10.2v-1.2l-.7.9-1.1-.5.6,1-.8.9,1.2-.3.6,1v-1.2l1.2-.3-1.1-.5v.2ZM39.4,8l-1-.7.3-1.2-.9.8-.9-.7.4,1.1-.9.8h1.2l.4,1.1.3-1.2h1.2,0ZM42.8,5.9l-.9-.8.5-1.1-1,.5-.8-.8.2,1.2-1,.5,1.2.2.2,1.2.5-1h1.1ZM46,3.5l.7-1-1.2.3-.7-1v1.2l-1.1.3,1.1.4v1.2l.7-1,1.1.4-.7-1v.2ZM50.2,2.8l.9-.8h-1.2c0,0-.5-1-.5-1l-.2,1.2h-1.2c0,0,1,.8,1,.8l-.3,1.2.9-.8,1,.6-.5-1.2h0ZM46.3,14.6c0-.1,0-.3.2-.4-.3,0-.7.4-.8.5-.3.4-.7.9-.7,1.3v.2h0c.2,0,.6-.5.8-.9,0-.3.2-.5.3-.8h.1ZM50.9,14.8c0-.2.2-.4.2-.6-.3,0-.7.4-.8.5,0,.2-.6.8-.7,1.3v.3h0c.2,0,.6-.5.8-.9,0-.2.2-.4.3-.6h.1ZM57.3,15.7c.2-.5.5-1.1.4-1.3h0c-.2,0-.5.3-.9,1-.2.5-.5,1-.4,1.3h0c.3.2.7-.4,1-1h0ZM65.4,13h.7l-.5,1.2h.5v.3h-.7c-.3.6-.5,1.2-.8,1.8,0,.2-.2.5-.2.8,0,0,0,.1.2,0h0c.4-.2.7-.5.9-.8h.2c-.3.5-.9,1.1-1.4,1.1s-.4-.1-.5-.3c0,0,0-.2,0-.3v-.4h0c-.2.3-.5.4-.9.5h0c-.2,0-.3,0-.4-.3v-.5c.3-.6.5-1.1.7-1.6h-.2c-.4.3-.7.8-.9,1.3-.2.3-.3.7-.5,1h-.7c0-.2,0-.3.2-.5v-.2c-.2.3-.6.5-.9.7-.2,0-.3,0-.4-.2v-.5c-.2.3-.5.5-.8.6-.2,0-.4,0-.5-.2v-.8c0-.2.2-.5.4-.9h-.5c0,.8-.6,1.4-1.3,1.8-.3.2-.7.2-1,0-.2-.1-.2-.3-.2-.5h0c-.3.3-.6.7-1.1.7h0s-.2,0-.2-.2v-.6c.2-.5.5-1,.7-1.6h0c-.2.1-.4.3-.5.5,0,0-.2.2-.2.3,0,.3-.2.5-.3.7,0,.3-.2.6-.4.9h-.8c.2-.4.3-.7.4-1,.2-.4.3-.8.5-1.2v-.2h-.2c-.2.1-.3.3-.4.5,0,.2-.2.4-.3.6l-.5,1.2h-.7c0-.2.2-.4.2-.6-.3.3-.7.6-1.1.6h0c0,0-.2-.1-.2-.3v-.3c-.2.3-.6.5-.9.6h0c-.2,0-.3-.1-.4-.3,0-.3,0-.6,0-.8,0-.2.2-.4.3-.5h-.2s-.2,0-.2-.2v-.3c-.2.2-.3.4-.4.6l-.6,1.4h-.7l.2-.5c-.3.3-.7.6-1,.6h0c0,0-.2-.1-.2-.3v-.3c-.2.3-.6.5-.9.6-.2,0-.5,0-.5-.3v-.8c.3-.7.8-1.3,1.5-1.6.3-.2.6-.3.9-.3s.5,0,.7.2h0v.3c-.4.6-.6,1-.9,1.7v.2h0c.4-.2.8-.8,1-1.1l.5-1h.7l-.2.4h0c.2-.3.3-.4.5-.5h.4c0,.1,0,.3,0,.4v.5c0,0,0,0,0,0h0s.2-.1.3-.2c.2-.2.4-.3.6-.5.3-.2.6-.3.9-.3s.5,0,.7.2h0l-.2.3c-.2.6-.5,1.1-.7,1.7v.2h.2c.4-.3.7-.6.9-1,0-.3.2-.6.4-.9v-.3h.9l-.2.4c.2-.1.5-.5.9-.5h0c.2,0,.3.3.3.4h0c.2-.2.5-.3.7-.4.2,0,.4,0,.5.1v.4c-.4.8-.6,1.4-.7,1.8h0q0,.1,0,.1c.2-.2.4-.4.5-.6,0-.5.3-.9.7-1.3.3-.4.7-.6,1.2-.6h.3c.2,0,.4.3.4.5s0,.1,0,0v.2h.2c.2,0,.5-.2.6-.5v-.4h.8l-.9,2v.3h0c.2,0,.6-.5.8-.9,0-.2.2-.4.3-.6,0-.3.2-.5.4-.8h.7c-.2.6-.5,1.2-.7,1.7v.3c-.2,0-.2.2-.2.3h0c.4-.3.7-.7,1-1.1.2-.4.3-.8.5-1.2h.8l-.2.4c.2-.2.5-.4.8-.4h0c0,0,.2,0,.3.2v.6c0,.3-.3.7-.5,1,0,.1,0,.3-.2.4v.2h0c.2,0,.6-.3.8-.8,0-.2,0-.3.2-.4,0-.3.2-.5.4-.8h-.4v-.3h.5l.3-1.4v.7ZM45.4,13.2c0,1.9-2.8,2.3-3,2.3-.5,2.5-2.5,3.7-4.1,3.7h0c-.7,0-1.3-.3-1.6-.7-.2-.3-.3-.8-.2-1.2,0-.2.2-.5.5-.5s.5.2.5.5,0,.3-.2.4c-.2.2-.2.3-.2.3,0,.9,1.1.9,1.4.9,1.6,0,2.2-1.5,2.9-3.1.5-1.3,1.1-2.7,2.3-3.4h.2c-.7,1-1,2.5-1.1,2.7,1.1,0,1.9-.9,2-2,0-1.4-1.2-2-2.3-2-1.6,0-2.7.7-3.3,1.2-.6.5-.9,1.3-1,2,0,1,.6,1.5,1.2,1.5s.6,0,.8-.3c0,0,0-.3,0-.4v-.6l.2-.2c.2,0,.4.2.4.5,0,.5-.7,1-1.5,1s-1.9-.4-1.9-1.7.9-2.2,1.7-2.7c.9-.5,2-.8,3.1-.8h.2c2.1.2,3.3,1.3,3.3,2.3l-.3.3ZM51.9,5.1c-11,0-19.9,9.1-19.9,20.2s.8,6.4,2.2,9.3c2.6-2.4,9.3-10.1,10.1-11,1.2-1.4,1.7-.5,2.3-1.3.2-.3.4-.5.7-.7.2-.2.5-.4.7-.6,0,0,.5-.5.7-.8.2-.2.7-.5,1.2-1,.5-.4,1.3-1.4,2.2-1.4s1.2.3,1.6.8c0,0,.7.7.9.8,0,.1.8.7,1.2.7s.7.4.9.6c.5.4,2.3,2.4,2.9,2.8.2.2.5.2.7.3,0,.1.3.2.4.3.4,0,.8.2,1,.5,0,0,.2.1.3.2.3.3.6.6.9,1,.2.4,4.9,6.7,6.6,9,5.3-9.8,1.8-22-7.8-27.4-3-1.7-6.3-2.5-9.7-2.6v.3ZM54.4,2.9l1-.6h-1.2c0,0-.2-1.3-.2-1.3l-.5,1.1h-1.2c0,0,.9.7.9.7l-.5,1.1,1-.6.9.8s-.2-1.2-.2-1.2ZM58.6,3.8l1.1-.4-1.2-.3v-1.2l-.7,1-1.1-.3.7,1-.7,1,1.1-.4.7,1v-1.4ZM63.7,5.3l-1-.5.2-1.2-.8.8-1-.5.5,1.1-.9.8,1.2-.2.5,1,.2-1.2h1.1ZM67.2,8l-.9-.8.4-1.1-1,.6-.9-.8.3,1.2-1,.7h1.2l.3,1.2.4-1.2h1.2v.2ZM70.1,11.3l-.8-1,.6-1-1.1.5-.7-.9v1.2l-1,.5,1.2.3v1.2l.7-1,1.2.4v-.2ZM71.9,14l.8-.8-1.2.3-.6-1-.2,1.2-1.2.2,1.1.5-.2,1.2.8-.9,1.1.5-.5-1.1h0ZM73.6,18l.9-.7h-1.2l-.4-1.1-.4,1.2h-1.2l.9.7-.4,1.1.9-.7,1,.7-.4-1.2h.3ZM74.5,22.4l1-.5-1.2-.2-.2-1.2-.6,1-1.2-.3.8.9-.6,1,1.1-.5.8.9v-1.2h0ZM74.7,26.9l1.1-.3-1.1-.4v-1.2l-.7.9-1.1-.5.6,1-.7.9,1.2-.3.7,1v-1.2h0Z"/>
    <path class="st0" d="M69.7,37.4c-.7,0-1.2.5-1.2,1.2s.5,1.2,1.2,1.2,1.2-.5,1.2-1.2-.5-1.2-1.2-1.2h0ZM69.7,39.6c-.6,0-1-.4-1.1-1,0-.6.4-1,1-1.1.6,0,1,.4,1.1,1h0c0,.6-.4,1-.9,1.1h0Z"/>
    <path class="st0" d="M70.1,39h0q0-.3-.2-.4c0,0,.2,0,.2-.3h0c0-.2,0-.3-.3-.3h-.4v1.1h.2v-.5h.2s0,0,0,.2v.2c0,0,0,.2.2.2h0v-.2h0ZM69.9,38.4s0,.2,0,.2h-.2v-.3h.2s0,0,0,0h0Z"/>
    <path class="st0" d="M38.9,43.4c0-2.3-2.6-4.6-6.9-4.7-4,0-10.6,1.9-10.6,7.4s2.3,3.7,4.1,3.7,3.1-1.2,3.2-2.3-.6-1.1-.8-1.1c-.5,0-.9.7-.6,1.5.2.5-.3,1.5-1.9,1.5s-2.6-.8-2.6-3.3,2.6-7,9.1-7,5.1,1.3,5.1,4.3-1.8,4.3-4.5,4.3c0,0,.7-3.5,2.4-5.7.2-.2,0-.3-.3-.2-5.5,3.5-4.8,14.1-11,14.2-.7,0-2.9-.2-2.9-1.9s.2-.6.5-.8.5-.5.5-.8c0-.5-.4-.9-.9-1h-.2c-.5,0-.8.4-.9,1-.2.7-.2,3.9,4,3.9s7.7-2.5,8.8-8.3c0,0,6.5-.6,6.5-4.8h-.1Z"/>
    <path class="st0" d="M82.8,48.9c-1,1.2-1.8,1.7-2,1.5s0-.4.2-1.2l1.5-3.4h1.2l.2-.5h-1.2l1.1-2.5h-1.5l-1.1,2.5h-.7l-.2.5h.6c-.4.9-.8,2-1.4,2.8-.7,1-1.6,1.8-1.9,1.6-.2,0-.2-.3,0-.6.4-.9.9-2,1.4-3,.2-.4.3-.8,0-1.2-.2-.3-.6-.4-.9-.3-.7,0-1.4.6-1.9,1.1l.4-.9h-1.5c-.5.9-.7,1.6-1.1,2.5-.4.8-1.4,2-2.1,2.4h-.4c0-.3,0-.5,0-.7.5-1.1,1.2-2.7,1.8-4.2h-1.5c-.5,1.1-.9,1.9-1.4,3-.4.8-1.2,1.9-1.8,2-.2,0-.3,0-.3-.2s0-.4.2-.6l1.8-4.2h-1.5c0,.2-.2.4-.2.6-.4.7-1.2,1.4-1.8.9v-.6c0-.5-.4-.8-.8-1-1.2-.4-2.4.3-3.2,1.2-.7.8-1.2,1.7-1.4,2.8-.3.5-.7.8-1.1,1.1h-.4v-.4c.4-1,1.2-2.6,1.6-3.5.3-.7,0-1.4-1.1-1.1-.6.2-1.2.5-1.7,1,0-.5-.2-.9-.6-1-.7-.2-1.8.6-2.2,1l.4-.8h-1.5c-.4.8-.9,2-1.2,2.8-.4.9-1.3,1.8-1.9,2-.2,0-.3,0-.5,0,0,0,0-.2,0-.5.7-1.5,1.2-2.6,1.9-4.2-1-.7-2.3-.4-3.4,0-.5.2-.9.5-1.3.9-.2.2-.4.3-.6.4h-.5c0-.2,0-.4,0-.5.2-.3.4-.6.4-.9s-.4-.4-.7-.3c-.5.3-1.1.7-1.5,1.1l.5-1h-1.4l-1,2.3c-.6,1.1-1.3,2.1-2.1,2.5h-.4c0,0,0-.3,0-.5.7-1.5,1.2-2.7,1.9-4.3-1-.5-2.4-.4-3.4.2-1.4.8-2.6,2.1-3.1,3.6-.2.7-.4,2.3,1,2.1.8-.2,1.4-.7,2-1.3v.8c0,.3.2.5.5.5.7.2,1.9-.8,2.6-1.5l-.5,1.3h1.5l1.2-2.9c.2-.5.5-.9.8-1.3,0,0,.2,0,0,0,0,.4.2.8.7.9.3,0,.5,0,.8-.2-.3.5-.6,1-.8,1.5-.3.8-.3,1.4,0,1.7.2.4.7.6,1.2.5.8-.2,1.3-.7,2-1.3h0c0,.2,0,.5,0,.8,0,.3.3.5.5.5.7.2,1.9-.8,2.6-1.5h0c-.2.3-.5.9-.6,1.2h1.5l1.1-2.5c.2-.5.4-.9.7-1.3.2-.4.6-.8.9-1,.2,0,.4-.2.5,0,.2,0,0,.3,0,.4l-2,4.6h1.5c.5-1.1.9-1.9,1.4-3.1,0-.3.3-.6.5-.9.3-.5.7-.8,1.1-1,.2,0,.5,0,.4.3-.5,1.3-1,2.3-1.4,3.2-.2.4-.4,1-.2,1.4,0,.2.2.3.5.3,1.1.2,2-.8,2.7-1.5,0,.5.2,1,.5,1.3.6.5,1.5.4,2.2,0,1.4-.7,2.3-2.2,2.6-3.8h0c.4,0,.8,0,1.1,0-.5,1.1-.9,2.1-1,2.5-.5,1.3.2,1.8,1.1,1.6.7-.3,1.3-.8,1.9-1.4,0,.4,0,.8,0,1.1.2.3.5.4.8.3.8-.2,1.6-.9,2.2-1.5-.2.5-.5,1-.6,1.3h1.5c.3-.6.6-1.3.9-2,.5-1,1-2.1,2-2.9.2-.2.5-.3.6-.2v.3c-.5,1.2-1.1,2.4-1.6,3.6,0,.3-.2.6,0,.9,0,.4.6.5.9.5.8-.2,1.3-.6,1.8-1,.3-.3.6-.6.8-1,0,.2,0,.3,0,.4,0,0-.4,1,.3,1.5.6.4,2,0,3.6-2.4l-.4-.3.3.3ZM40.3,48.3c-.5,1-1.3,2.1-1.9,2.1s-.5-.2-.4-.7c0-.9.9-2.2,1.5-2.8s1.2-1.2,1.8-1.2,0,0,0,0c-.5,1.3-.7,1.6-1.1,2.6h.1ZM50.3,48.4c-.5.9-1.2,1.9-1.8,1.9s-.5-.2-.4-.7c0-.9,1-2.1,1.5-2.8.5-.5,1.2-1.3,1.8-1.3s0,0,0,0c-.5,1.3-.8,1.8-1.2,2.7v.2ZM64.8,48.8c-.7,1.3-1.4,2.5-2,2.2s0-1.8.5-3.1c.7-1.3,1.5-2.5,2.1-2.2.5.2,0,1.8-.7,3.1h.1Z"/>
    <path class="st0" d="M76.2,68.3c-.4.6-.9,1.1-1.5,1.5-1.4.9-2,.2-1.9-.8,0-1.1.7-2.5.5-4-.2-1.1-1.2-2-2.1-2.3-.2,0-.4,0-.7-.2,1.9-.4,5.4-1.5,5.4-4.6s-2.6-4.6-6.9-4.7c-4,0-10.6,1.9-10.6,7.4s2.3,3.7,4.2,3.7,3.1-1.2,3.3-2.3c0-1.1-.6-1.1-.8-1.1-.5,0-.9.7-.6,1.5.2.5-.3,1.5-1.9,1.5s-2.6-.8-2.6-3.3,2.6-7,9.1-7,5.1,1.3,5.1,4.3-1.8,4.3-4.5,4.3c0,0,.7-3.5,2.4-5.7.2-.2,0-.3-.3-.2-5.5,3.5-4.8,14.1-11.1,14.2-.7,0-3-.2-2.9-2,0-.3.2-.6.5-.8.3-.2.5-.5.5-.8,0-.5-.4-.9-.9-1h-.2c-.5,0-.8.4-.9,1-.2.7-.2,3.9,4,3.9s7.7-2.5,8.8-8.3c.9,0,1.9.4,2.1,1.4,0,.5-.2,1.4-.5,2.3-.2,1-.5,2-.3,2.9.2,1,1,1.6,2.1,1.6s2.6-1,3.8-2.5c.2-.3.5-.7.7-1h-.5c-.3.4-.5.7-.7,1h0Z"/>
    <path class="st0" d="M55.7,59.3h0c-.3,0-.5,0-.7.3-.2.2-.3.5-.3.8s0,.3.3.4h.3c.2,0,.6,0,.7-.7,0,0,0,0,.2,0h0c.2,0,.2.3.2.5,0,1-1.3,1.1-2.6,1.3h0c-1.4.2-2.4.3-3.3.9-.5.4-.9,1-1.1,1.9v.2h0s.2,0,.2,0c.2-.5.6-.8,1-1.1.6-.4,1.8-.6,2.7-.8-.3,2.5-1.9,4.1-4,4.1s-2.5-1.4-2.5-2.2h0c0-.9.2-1.8.8-2.5.7-1,1.7-1.5,2.9-1.6h0c.3,0,.7,0,1,.2h.2s0,0,.2,0c0,0,0-.2-.2-.3-.5-.2-.9-.3-1.4-.4-.2-.2-.5-.5-.5-.8,0-.7.2-1.3.7-1.8.5-.6,1.2-1,2-1.1.6,0,1.2.3,1.3.6,0,.2,0,.4-.2.5-.2.2-.3.4-.3.7s0,.3.2.4h.3c.3,0,.5-.2.5-.5v-.5c0-.8-.5-2-2.6-1.9-2.1,0-3.4,1.5-3.6,2.9,0,.3,0,.7.2.9.2.3.6.5,1,.6-1,0-2,.4-2.9,1-1.2.7-1.8,2-1.8,3.3s.2,1.3.7,1.9c.6.8,1.6,1.1,3,1.2h.2c1.5,0,2.6-.4,3.5-1.3.9-.8,1.4-2,1.6-3.5,2.7-.2,3.1-1.5,3.1-2.3s-.4-1.2-1.1-1.3h0v.3Z"/>
    <path class="st0" d="M41.1,60.4c0,0-.2.3-.3.4,0,0-.2.4-.5.8-.2.3-.7,1.4-1,1.9-.5.8-1,1.5-1.9,1.8-.2,0-.5,0-.7-.2,0-.3,0-.8.2-1.5.2-.6,2.8-6.2,2.8-6.2h-1.5s-1,2.2-1.7,3.8c0,0,0,.2-.2.3-.4.8-.9,1.6-1.4,2.3-.8.9-1.5,1.5-2.2,1.4-.7,0-.9-.8-.9-1.6,1.5-.4,3.3-1.3,3.4-2.7,0-.7-.5-1.3-1.3-1.3s-2.4.9-3.1,2.2c-1.5,2.5-2.7,3.3-2.9,3-.2-.2,0-.6.2-1.3l1.4-3.3h1.2l.2-.5h-1.2l1.1-2.5h-1.5l-1.1,2.5h-.7l-.2.5h.6c-.4,1-.2.5-.6,1.4-.6,1.3-1.7,2.3-2.7,2.8.6-.8,1-1.6,1.2-2.5.2-1.3-.4-2-.8-2.2-1.1-.5-2.4.3-3.2,1.2-.7.7-1.2,1.6-1.4,2.6,0,.5,0,1.5.6,2,.5.4,1.3.4,1.9.2,1.3-.4,2.5-1.1,3.5-2,0,.2-.1.3-.2.5,0,0-.5,1.3.2,1.7.6.4,2.1-.3,3.7-2.5v.2c0,1.5.6,2.2,1.5,2.4.9,0,2.1-.3,3.2-1.7,0,0,.2-.3.2-.4v1c0,.2,0,.3.2.5.2.3.6.5,1,.5,1.2,0,2.2-.9,3-2.3.3-.5.6-1,.8-1.5,0,.4.2.8.4,1.2.5.8.6.9.6,1.3s-.4,1-.9,1-.7-.2-.9-.6c0-.2-.3-.3-.5-.2h0c0,0-.2.4,0,.7.3.3.8.5,1.2.5,1.7,0,2.2-1.1,2.2-1.8s-.2-1.2-.6-1.8c-.5-.8-.6-1-.6-1.3s.2-.7.6-.8c.3,0,.6,0,.7.4.2.6.7.7,1,.5.2,0,.4-.6-.2-1.1-.5-.5-1.6-.5-2.3.3h.3ZM31.9,63.3c0-.7.3-2,1.2-2.7.3-.3.9-.4.8.3,0,.8-.7,1.8-2.1,2.4h0ZM22.2,65.5c-.6-.3-.1-1.8.5-3,.7-1.3,1.5-2.5,2.1-2.3s0,1.9-.7,3.1c-.7,1.3-1.4,2.5-2,2.2h.1Z"/>
    <path class="st0" d="M22.2,70.5s-7.2.4-3.7-6.8c.1-.2.6-1.2.7-1.4.1-.3.5-.8.6-1,1.2-.5,2.2-1.3,3.2-2.1.2-.2.3-.3.5-.4.7-.5,1.2-1.2,1.8-1.8.5-.6,1.3-1.7.9-2.5s-.7-.6-1.1-.5c-.6,0-1.5.5-2,1-2.1,1.8-3.5,3.2-5.5,6.1-.2.3-.5.7-.6.9-1.4.6-2.3.7-3.8,1.1h0c1.3-2.9,2.4-6.6,4.9-8.4.1,0,.2-.2,0-.3h-.1c-3.9-1.6-11.9-2.6-13.8,2.5-.9,2.5.2,4.7,1.9,5.3,1.6.6,3.3,0,3.8-1s-.2-1.3-.4-1.3c-.5,0-1.1.3-1.1,1.2s-.8,1.3-2.3.7c-1.1-.5-1.5-2-.7-4.3.9-2.3,6.1-5,12-2.9-4.3,2.1-5.8,6.1-7,9.1-.3,0-.6,0-1,.2-2.9.5-5.2,1.4-6.6,2.4-1.1.8-1.6,2.1-1.2,3.2.2.5.6.9,1,1.1.3,0,.6.3.9.3h1.6c3.6-.6,6.1-3.9,7.5-7.2,1.9-.5,2.4-.5,3.6-1-.4.7-.7,1.4-.9,2.2-.7,3,.8,6.1,6.4,6.1v-.5h.5ZM20.5,60.1c1-1.8,1.6-3.2,2.6-4.3.4-.5,1.5-1.4,2.1-1,.5.3.1,1.2-.3,1.9-.5.8-1.1,1.4-1.8,2-.9.8-1.9,1.5-2.9,2,0-.2.2-.4.3-.6ZM8.1,68.7c-.9,1-1.9,1.7-3.3,1.9-1.2,0-2.1-.3-2.3-1-.3-.8.2-1.9,1-2.5,1.5-1.2,3.7-2.3,7-2.9-.6,1.5-1.2,3.3-2.3,4.5h-.1Z"/>
    <path class="st0" d="M97.6,63.5c.2-.4.5-.7.7-1.2v-.2c0,.4.2.8.4,1.2.5.8.6.9.6,1.3s-.4,1-.9,1h0c-.5,0-.7-.3-.9-.7,0-.2-.3-.3-.5-.2h0c0,0-.2.4,0,.7s.8.5,1.2.5c1.7,0,2.2-1.1,2.2-1.8s-.2-1.2-.6-1.8c-.5-.8-.6-1-.6-1.3s.2-.7.5-.8h.2c.2,0,.4.2.5.4.2.6.7.7,1,.5.2,0,.4-.6,0-1.1-.6-.5-1.8-.5-2.5.4,0,0-.2.2-.2.4s-.2.4-.5.8c-.3.6-.7,1.3-1.1,1.8-.2.3-.4.5-.6.8-.7.6-1.1.9-1.2.8-.2-.2-.2-.4.2-1.1l1.5-3.4h1.2l.2-.5h-1.2l1.1-2.5h-1.5l-1.1,2.5h-.7l-.2.5h.6l-.2.7c-.8,1.7-2.1,1.2-1.5.3.2-.3.6-.9.6-1.3s-.4-.4-.7-.3c-.6.3-1.1.7-1.5,1.1l.5-1h-1.4c0,.2-.2.4-.2.6-.3.7-1.1,1.4-1.7.9v-.6c0-.5-.4-.8-.8-1-1.2-.4-2.4.3-3.2,1.2-.2.3-.5.5-.7.9-.6.8-1.2,1.6-1.9,2.3,0-.6-.2-1.1-.6-1.8-.5-.8-.6-1-.6-1.3s.2-.7.5-.8h.2c.2,0,.4.2.5.4.2.6.7.7,1,.5.2,0,.4-.6-.2-1.1-.5-.5-1.8-.5-2.5.4,0,0-.2.2-.3.4-.2.3-.3.5-.5.8-.4.8-.8,1.5-1.3,2.3-.2.3-.5.6-.8.8-.6.5-1.1.7-1.6.6-.7,0-.9-.8-.9-1.6,1.5-.4,3.3-1.3,3.4-2.8,0-.7-.5-1.3-1.3-1.3-1.5,0-3.5,1.7-3.5,3.8s.6,2.2,1.5,2.4c.7,0,1.6-.2,2.6-.9l.9-.9c.5-.6.9-1.3,1.2-2,0,.4.2.8.4,1.2.5.8.6.9.6,1.3,0,.6-.5,1-1,1s-.7-.3-.9-.6c0-.2-.3-.3-.5-.2h0c0,0-.2.4,0,.7.4.3.8.5,1.3.5s.9-.2,1.4-.5c.8-.6,1.5-1.3,2.1-2.1v.3c0,.5,0,1.5.6,2s1.5.4,2.2,0c1.4-.7,2.3-2.2,2.6-3.8h0c.4.2.8,0,1.1,0-.5,1.1-1.6,3.5-1.7,3.9h1.5l1.2-2.9c.2-.5.5-.9.9-1.3h.2c0,.3,0,1,.4,1.3.4.2,1.2.2,1.9-.5l-.7,1.7c0,.1,0,.2,0,.3,0,.1-.5,1.1.2,1.6.3.2.8,0,1.1,0,.7-.3,1.2-.8,1.6-1.3.3-.4.5-.7.8-1v-.3ZM75.6,63.3c0-.7.4-2.2,1.3-2.9.3-.3.8-.2.7.5,0,.8-.7,1.8-2.1,2.5h0ZM87.1,63.3c-.7,1.3-1.4,2.5-2,2.2s0-1.8.5-3c.7-1.3,1.5-2.5,2.1-2.2.6.2,0,1.8-.6,3.1h0Z"/>
    <path class="st0" d="M38.9,43.4c0-2.3-2.6-4.6-6.9-4.7-4,0-10.6,1.9-10.6,7.4s2.3,3.8,4.2,3.7c1.7,0,3.1-1.2,3.2-2.3.2-1.1-.6-1.1-.8-1.1-.5,0-.9.7-.6,1.5.2.5-.3,1.5-1.9,1.5s-2.6-.8-2.6-3.3,2.6-7,9.1-7,5.1,1.3,5.1,4.3-1.8,4.3-4.5,4.3c0,0,.7-3.5,2.4-5.7.2-.2,0-.3-.3-.2-5.5,3.5-4.8,14.1-11.1,14.2-.7,0-3-.2-2.9-2,0-.3.2-.6.5-.8s.5-.5.5-.8c0-.5-.4-.9-.9-1h-.2c-.5,0-.8.4-.9,1-.2.7-.2,3.9,4,3.9s7.7-2.5,8.8-8.3c0,0,6.4-.5,6.4-4.7h0Z"/>
    <path class="st0" d="M79.6,49.5c0,.2,0,.3,0,.4,0,0-.4,1,.3,1.5.6.4,2,0,3.6-2.4,0,0-.2-.3-.4,0-1,1.2-1.8,1.7-2,1.5s0-.4.2-1.2l1.5-3.5h1.2l.2-.5h-1.2l1.1-2.4h-1.5l-1.1,2.4h-.7l-.2.5h.6c-.4.9-.8,2.1-1.4,2.9-.7,1-1.6,1.8-1.9,1.6-.2,0-.2-.3,0-.6.4-.9.9-2,1.4-3,.2-.4.3-.8,0-1.2-.2-.3-.6-.4-.9-.3-.7,0-1.4.6-1.9,1.1l.4-.9h-1.5c-.5.9-.7,1.6-1.2,2.5-.4.8-1.4,2-2.1,2.4h-.4c0-.2,0-.4,0-.7.5-1.1,1.2-2.7,1.8-4.2h-1.5c-.5,1.1-.9,1.9-1.4,3-.4.8-1.2,1.9-1.8,2-.2,0-.3,0-.3-.2s0-.4.2-.6l1.9-4.2h-1.5c0,.2-.2.4-.2.6-.4.7-1.2,1.4-1.8.9v-.6c0-.5-.4-.8-.8-1-1.2-.4-2.4.3-3.2,1.2-.7.8-1.2,1.7-1.4,2.8-.3.5-.7.8-1.1,1.1h-.4v-.4c.4-1,1.2-2.6,1.6-3.5.3-.7,0-1.4-1.1-1.1-.6.2-1.2.5-1.7.9,0-.5-.2-.9-.6-1-.7-.2-1.8.6-2.2,1l.4-.8h-1.5c-.4.8-.9,2-1.2,2.8-.4.9-1.3,1.8-1.9,2-.2,0-.3,0-.5,0,0,0,0-.2,0-.5.7-1.5,1.2-2.6,1.9-4.2-1-.7-2.3-.4-3.4,0-.5.2-.9.5-1.3.9-.2.2-.4.3-.6.4h-.5c0-.2,0-.4,0-.5.2-.3.4-.6.4-.9s-.4-.4-.7-.3c-.5.3-1.1.7-1.5,1.1l.5-1h-1.4l-1,2.3c-.6,1.1-1.3,2.1-2.1,2.5h-.4c-.2,0,0-.3,0-.5.7-1.5,1.2-2.7,1.9-4.3-1-.5-2.4-.4-3.4.2-1.4.8-2.6,2.1-3.1,3.6-.2.7-.4,2.4,1,2.1.8-.2,1.4-.7,2-1.3v.8c0,.3.2.5.5.5.7.2,1.9-.8,2.6-1.5l-.5,1.3h1.5l1.3-2.9c.2-.5.5-.9.8-1.3,0,0,.2,0,0,0,0,.4.2.8.7.9.3,0,.6,0,.8-.2-.3.5-.6,1-.8,1.5-.3.8-.3,1.4,0,1.7.2.4.7.6,1.2.5.8-.2,1.3-.7,2-1.3h0c0,.2,0,.5,0,.8,0,.3.3.5.5.5.7.2,1.9-.8,2.6-1.5h0c-.2.3-.5.9-.6,1.3h1.5l1.1-2.5c.2-.5.4-.9.7-1.3.2-.4.6-.8.9-1,.2,0,.4-.2.5,0,.2,0,0,.3,0,.4-.7,1.5-1.4,3.1-2,4.6h1.5c.5-1.1.9-2,1.4-3.1,0-.3.3-.6.5-.9.3-.5.7-.8,1.2-1,.2,0,.5,0,.4.3-.5,1.3-1,2.3-1.4,3.3-.2.4-.4,1-.2,1.4,0,.2.2.3.5.3,1.1.2,2-.8,2.7-1.5,0,.5.2,1,.5,1.3.6.5,1.5.4,2.2,0,1.4-.7,2.3-2.2,2.7-3.8h0c.4,0,.8,0,1.1,0-.5,1.1-.9,2.1-1,2.5-.5,1.3.2,1.8,1.1,1.6.7-.3,1.3-.8,1.9-1.4,0,.4,0,.8,0,1.1.2.3.5.4.8.3.8-.2,1.6-.9,2.2-1.5-.2.5-.5,1-.6,1.3h1.5c.3-.6.6-1.3.9-2,.5-1,1-2.1,2-2.9.2-.2.5-.3.6-.2v.3c-.5,1.2-1.1,2.4-1.6,3.6,0,.3-.2.6,0,.9,0,.4.6.5.9.5.8-.2,1.3-.6,1.8-1,.3-.4.6-.8.9-1.1h0ZM40.4,48.3c-.5,1-1.3,2.1-1.9,2.1s-.5-.2-.4-.7c0-.9.9-2.2,1.5-2.8s1.2-1.2,1.8-1.2,0,0,0,0c-.5,1.2-.7,1.6-1.1,2.6h.1ZM50.3,48.4c-.5.9-1.2,1.9-1.8,1.9s-.5-.2-.4-.7c0-.9,1-2.1,1.5-2.8.5-.5,1.2-1.3,1.8-1.3s0,0,0,0c-.5,1.3-.8,1.8-1.2,2.7v.2ZM64.8,48.8c-.7,1.3-1.4,2.5-2,2.2s0-1.8.5-3.1c.7-1.3,1.5-2.5,2.1-2.3.6.3,0,1.9-.7,3.2h.1Z"/>
  </g>
</svg>