<?xml version="1.0" encoding="UTF-8"?>
<svg id="Layer_1" xmlns="http://www.w3.org/2000/svg" version="1.1" viewBox="0 0 101.2 37.6">
  <!-- Generator: Adobe Illustrator 29.1.0, SVG Export Plug-In . SVG Version: 2.1.0 Build 142)  -->
  <defs>
    <style>
      .st0 {
        fill: #fff;
      }
    </style>
  </defs>
  <g id="Layer_11" data-name="Layer_1">
    <path class="st0" d="M84.1,24.7c-.3.6-1,.6-2.2.7h-2s3.9,1.5-11.5,1.2c0,0,1.4,1.3-4.3.9,0,0-13.6-.6-40.9,3.8l-.4-.5s-.3-.4-.7-1.1c10.4-2.6,32.9-7.2,60.4-5.9,0,0,2.1,0,1.6.9ZM19,30.5c-2,.6-3.1.9-3.1.9-.8.2-1,.5-1.2.7-.7.8,1.8.3,1.8.3,1.3-.2,2.7-.5,3.9-.7h-.2c-.4-.5-.9-.8-1.3-1.2h.1ZM56,18.7c1.5-1.5,3.9-4.2,3.9-4.2,2.5,4.5-1.3,5.6-1.3,5.6-1.4.9,0,1.1,0,1.1,5.8,0,6.3-3.3,6.3-3.3,0-2.5-3.3-6-3.3-6-.9-2-1.6-.3-1.6-.3-.6,1.7-4.6,6-5.3,6.8-3.3,2.8-2.1,1-2.4-.2,0,0,0-2.3.8-2.8,0,0,.3.2.6-1.2,0,0,.8-1.8-1.3-2.1,0,0-1.4-1-2.1,1.8,0,0-1.2,5.2.5,7.5,0,0,.8,1.5,5.3-2.7h-.1ZM36.4,20.4c-.3-1.8.7-4.2.7-4.2,1.4-3.5,3.7-4.2,3.7-4.2,1.9-.6,3.5,1.6,3.5,1.6.2.3.3.5.5.8.6-4.2.8-8.4.7-12.6-.3-2.7,1.6-.4,1.6-.4,3.5,4.1,2,6.3,2,6.3-.2,4.4-4.4,14.9-4.4,14.9-.5,1.2-.8,1.4-1,1.3-.6-.3-.4-1.6-.4-1.6,0-.6.3-1,.4-1.6-.4.4-.9.8-1.4,1.1-6,3.4-5.9-1.4-5.9-1.4ZM39.7,20.4c1.7,1.1,3.6-1,4.5-2.2,0-.4.2-.8.2-1.3-1.7.9-2.5-1.1-2.5-1.1-.2-.5.3-.6.3-.7,0-.7-.3-.8-.4-.8-.4,0-.8.6-.8.6-.9,1.1-1.5,2.5-1.7,4,0,1.3.4,1.5.4,1.5ZM53.6,8.8c.4,0,1.6-.6,2.1-1,.4-.3.7-.7.8-1.2,0-.8-.4-1.6-1.2-1.7-.8,0-1.4.5-1.5,1.3,0,.3,0,.7,0,1s-.5,1.5,0,1.6h0ZM83.7,13.9s-.5-.9-1-.6c0,0-.5.2-.4,1.2l.2.8s.7,2,.3,2-.3,0-.4.2c-.2.2-.4.4-.6.6,0,0-1.8,1.2-1.4-.5,0-.6.3-1.1.5-1.7,0,0,1-2.8,2.2-4.3,0,0,1.1-1.3-.2-1.2h-.4s-.7-.6-1.7.7c0,0-4,5.9-4,7.8,0,0-.2,1.8,1.9,1.7,0,0,2.1,0,3.6-1.3,0,0,1-.9,1.5-1,0,0,1.4,0,.9-1.7,0,0-.4-2-.9-2.8h0ZM67.3,15.7l2.3-1.7c2.5,4.5-1.3,5.6-1.3,5.6-.5.2-.6.4-.6.7s.6.4.6.4c5.8,0,6.3-3.3,6.3-3.3.3-1.5-1.4-3-2.3-3.7-.7-.5-1.5-2.1-.9-2.8.3-.3.8-.6.8-1.1-.2-1-2.1,0-2.4,1.3-.7,1.9-2.8,3.1-2.8,3.1-.3.3-.4,1.1-.4,1.1,0,1.4.8.4.8.4h0ZM22.2,23.7c-.8-3.3,2.6-7.2,3.7-8.5s2.1-1,2.1-1h.3c.2,0,.3,0,.5,0,.5.2.9.7,1,1.2,1.1-3.8,2.1-1.4,2.1-1.4,2.1.4,1,1.5,1,1.5-.3.8-.4,1.5-.4,1.5-.3.7-1,3.3-1,3.3v.7h0c0,.9.4.5.4.5.2-.2.4-.3.7-.4l.3-.2c.8-.5,1.5-.8,1.7-.7h0c0,.8-1.7,2-1.7,2v.2s-.2,0,0,.5c0,.9-2.1,1.4-2.1,1.4h-.2c-.4,0-.9,0-1.2-.3-.2-.2-.3-.4-.4-.7h0c0-.3-.1-.5-.1-.8-.3.4-.6.7-1,1-1,.9-2.3,1.4-3.6,1.4s-2-1.6-2-1.6v.3ZM27.7,22.8c.3-.2.6-.5.8-.9l.3-.6c0-1.5.6-3.4.8-4.4,0,0-.1-.2-.2-.2-.2-.3-.2-.7-.5-1-.1,0-.2,0-.4,0-1.7,1.6-2.8,4.3-2.8,4.3-.2.7-.4,1.4-.5,2.2,0,2,2.3.6,2.3.6h.2ZM11.8,13s.6-1.3.2-2.1c-.2-.3-.5,0-1.4,1.2,0,0-7.2,11.9-8.6,17.5,0,0-1.6,3.9.5,5.3,0,0,.5.7,1.1.9.2.8.5,1.6,1.1,1.3.2,0,.2-.8.2-1.5v-1.4c0-.2,0-.3,0-.5v-.4h0c.7-2.5,4-14.9,6.6-20.2h.2ZM98.9,19.4c-1-.6-3.7-5.9-3.7-5.9-.6-.9-1.7.2-1.7.2-.7.6-1.7,2.2-2.2,3.3-.7,1.1-.5-.4-.5-.4,0-.4.2-1,.6-1.3,0,0,.4.3.8-1,0,0,.8-1.8-1.1-2.2,0,0-1.3-1.1-2.3,1.6,0,0-1.3,3.9-.8,6.3,0,0,.2,2.8,2.7.6.3-.3.6-.6.8-.9.4-.6.7-1.2,1-1.8.5-1,1.1-2,1.8-2.8,0,1.6,1.8,5.8,1.8,5.8.7,2.2,1.7,2.1,1.7,2.1,5.5.2,1.1-3.4,1.1-3.4v-.2ZM90.9,24.3c-1.8-.2-3.1-.2-4.3-.3-.7,0-1.1.2-1.2.4-.3.4-.4.8.9.8s1.6,0,1.6.5c0,.8,1.5.7,2.2.7s1.1,0,1.6-.2c1.3-.2,2-.8,1.8-1.3-.3-.6-1.7-.6-2.7-.7h0ZM16,19.8c-.2-.4-.4-.8-.7-1.1h1.4s3.3,0,4.7-2.5c.4-.7,1.1-3-1.7-5.9,0,0-3.6-4.1-11.7-4.7,0,0-2.2-1-6.4,2.4,0,0-1.6,1.2-.7,1.5.3.1.7.1,1.1,0,0,0,6.8-2.2,15.2,2.5,0,0,3.3,2.1,1.3,4.1,0,0-.8.9-2.9,1.2,0,0-.5,0-1.5.2h-1.2s-.8,0-.9.2q0,.2.6.4c-.9,0-1.2.2-1.4.5,0,0-.1.3,0,.4,1.8,4.4,4.5,8.3,8,11.6.8-.2,1.9-.5,3.1-.8-1.7-2.4-5.6-8.4-6.1-9.9h-.2ZM24.6,33.6c.2-.2-.4-1.1-1.4-2.3-.9,0-1.8.3-2.7.5.7.5,3.5,2.5,4.1,1.9h0ZM22.1,29.7c-1.2.3-2.2.6-3.1.8.4.4.8.7,1.3,1.1h.2c.9,0,1.8-.2,2.7-.3l-.4-.5s-.3-.4-.7-1.1ZM22.1,29.7c-1.2.3-2.2.6-3.1.8.4.4.8.7,1.3,1.1h.2c.9,0,1.8-.2,2.7-.3l-.4-.5s-.3-.4-.7-1.1Z"/>
  </g>
</svg>