<?xml version="1.0" encoding="UTF-8"?>
<svg id="Layer_1" xmlns="http://www.w3.org/2000/svg" version="1.1" viewBox="0 0 200 37.8">
  <!-- Generator: Adobe Illustrator 29.1.0, SVG Export Plug-In . SVG Version: 2.1.0 Build 142)  -->
  <defs>
    <style>
      .st0 {
        fill: #fff;
        fill-rule: evenodd;
      }
    </style>
  </defs>
  <g id="Layer_11" data-name="Layer_1">
    <path class="st0" d="M.8,36.3h3.8V15.4c0-3.4,2-4.7,5.3-4.9v-4.1C5.2,5.7.8,10.1.8,15.4v20.9ZM65.2,36.3h3.8V15.4c0-3.4,2-4.7,5.3-4.9v-4.1c-4.7-.8-9.1,3.6-9.1,8.9v20.9ZM18.6,6.3c1.2,0,2.6,0,3.2.4,3.8,1.4,5.1,6.9,5.3,10.5v8.7c-.4,3.8-1.2,7.3-5.1,9.7-.4.4-1.8.6-3,.6h-.4c-1.4,0-2.6-.2-3-.6-3.8-2.4-4.7-5.9-5.1-9.7-.4-2.8-.4-5.9,0-8.7.2-3.6,1.4-9.3,5.3-10.5.6-.2,2-.4,3.2-.4M18.6,9.9c3.6,0,4.5,4.1,4.7,6.7.2,3.4,0,6.9,0,10.3s-1,6.1-4.7,6.1-4.7-3.4-4.7-6.1v-10.3c0-2.6,1-6.7,4.7-6.7M92.5,6.3c1.4,0,2.6,0,3.2.4,3.8,1.4,5.1,6.9,5.3,10.5v8.7c-.4,3.8-1.2,7.3-5.1,9.7-.6.4-1.8.6-3,.6h-.4c-1.4,0-2.6-.2-3-.6-3.8-2.4-4.7-5.9-5.1-9.7-.4-2.8-.4-5.9,0-8.7.2-3.6,1.4-9.3,5.3-10.5.6-.2,2-.4,3.2-.4M92.5,9.9c3.6,0,4.7,4.1,4.7,6.7.2,3.4,0,6.9,0,10.3s-1,6.1-4.7,6.1-4.7-3.4-4.7-6.1v-10.3c0-2.6,1-6.7,4.7-6.7M40.1,6.5c4.9,1.4,5.1,7.3,5.3,10.9v9.1c-.4,3.8-1.4,7.1-5.1,9.5-.6.4-1.6.6-2.8.6h-.4c-1.2,0-3-.2-3.6-.8-3.6-2.4-3.8-5.7-4.3-9.7V1h4.3v7.9h0c1.6-2.4,4.7-2.6,6.7-2M37,9.9c4.5,0,4.3,4.3,4.5,6.9v10.3c0,2.4-.8,6.1-4.3,6.1s-4.3-3.4-4.5-6.1v-10.3c0-2.6,1-6.9,4.5-6.9M51.2,26.9c4.3-3.8,8.5-7.5,13-11.3-1.2-9.5-5.1-9.7-8.3-9.7-7.3,0-8.9,7.7-8.7,15.4,0,7.7.8,9.7,2.6,12.4,4.1,5.9,13.2,2.6,14-5.5h-3.6c-.6,6.1-8.3,6.7-8.7-1.2M51,22.3l9.1-7.9c0-3.8-2-4.9-5.1-4.9s-4.9,4.5-4.1,12.8M76.5,1.2h4.3v4.9h3.2v4.5h-3.2v25.7h-4.3V1.2h0ZM117.4,6.3c1.4,0,2.6,0,3.2.4,3.4,1.2,4.3,5.9,4.7,9.5h-3.2c-.4-3.8-1.2-6.3-4.7-6.3s-4.5,4.1-4.7,6.7v10.3c0,2.6,1,6.1,4.7,6.1s4.7-3.6,4.7-6.1h3.2c-.4,3.4-1.2,6.5-4.7,8.9-.6.4-1.8.6-3,.6h-.4c-1.2,0-3-.4-3.6-.8-3.8-2.4-4.1-5.9-4.5-9.7-.4-2.8-.4-5.9,0-8.7.2-3.6,1-9.5,5.3-10.5.6,0,2-.4,3.2-.4M140.5,19.2v8.1s0,3.2-2,5.1c-2,1.6-4.1,1.8-5.9,0-1.8-2-1.6-5.3,0-7.3,1.8-1.8,4.1-2.8,5.5-3.8,1.2-.8,2.4-2,2.4-2M128.8,17.8h3.6v-3.8c0-1.2.8-2.8,2.6-3.4s4.7,0,5.1,1.2c.6,2-.8,3.8-2.8,5.5-2.2,1.4-6.7,3.4-8.1,5.7-1.6,2.2-2.4,4.3-2,7.9.4,3.6,3.2,5.9,5.9,6.3,2.6.4,5.5-.8,6.5-1.4.8-.6,1-.8,1-.8v1.4h4.1V14.2s0-7.7-7.7-7.7-7.9,7.3-7.9,8.5v3h0l-.2-.2ZM174.1,19.2v8.1s0,3.2-2,5.1c-2,1.6-4.1,1.8-5.9,0-1.8-2-1.6-5.3,0-7.3,1.8-1.8,4.3-2.8,5.5-3.8,1.2-.8,2.4-2,2.4-2M162.4,17.8h3.6v-3.8c0-1.2.8-2.8,2.6-3.4s4.7,0,5.1,1.2c.6,2-.8,3.8-2.8,5.5-2.2,1.4-6.7,3.4-8.1,5.7-1.6,2.2-2.4,4.3-2,7.9.4,3.6,3.2,5.9,5.9,6.3,2.6.4,5.5-.8,6.5-1.4s1-.8,1-.8v1.4h4.1V14.2s0-7.7-7.7-7.7-7.9,7.3-7.9,8.5v3h0l-.2-.2ZM145.2,6.9h3.8l4.5,18.4,4.7-18.6h4.1l-6.9,29.2h-3.4l-6.5-29.2-.2.2ZM181,.6h4.3v35.6h-4.3s0-35.6,0-35.6ZM187.9.6h4.1v35.6h-4.1s0-35.6,0-35.6ZM195,.6h4.3v4.7h-4.3V.6ZM195,7.1h4.3v29.2h-4.3s0-29.2,0-29.2Z"/>
  </g>
</svg>