<?xml version="1.0" encoding="UTF-8"?>
<svg id="Layer_1" xmlns="http://www.w3.org/2000/svg" version="1.1" viewBox="0 0 244 88.9">
  <!-- Generator: Adobe Illustrator 29.3.0, SVG Export Plug-In . SVG Version: 2.1.0 Build 146)  -->
  <defs>
    <style>
      .st0 {
        fill: #fff;
      }
    </style>
  </defs>
  <path class="st0" d="M155.3,59.2c0-7.5-5.3-11.7-13.6-11.7s-9.8,1.6-13.8,4.4v3.7c2.1-2.3,6.3-5.4,11.4-5.4s9.8,3,9.8,9.1.1,2-.4,2.3c-2.7,2-24.7,2.3-24.7,15.1s5,9.2,11,9.2,9.7-1.8,14.1-5.7c.4,3.1,2.5,4.7,6.1,4.9,0,0,0-22.7,0-25.8ZM149.1,77.6c-2.6,3.2-6.7,5.5-10.1,5.5-5.3,0-8-2.3-8-7.6,0-8.4,11.4-10.2,18.2-12.1v14.2ZM25.6,59.7c3.8,6.6,11.1,16.6,17.3,25.4h-2.3c-3.3,0-7-2.2-9-5.2-2.1-3.2-13.4-20.6-13.4-20.6,7.9-1.6,12.6-7.3,12.6-13.7s-6-13-18.7-12.7h-3.9l1.6.4v51.8c-3.8,0-6.2-3-6.2-6.7,0-13.3,0-47.7,0-47.7h13.2c13.9,0,20.4,7.2,20.4,14.5,0,7.3-4,12.5-11.6,14.5ZM240.4,59.2c0-7.5-5.3-11.7-13.6-11.7s-9.8,1.6-13.8,4.4v3.7c2.1-2.3,6.3-5.4,11.4-5.4s9.8,3,9.8,9.1.1,2-.4,2.3c-2.7,2-24.7,2.3-24.7,15.1s5,9.2,11,9.2,9.7-1.8,14.1-5.7c.4,3,2.5,4.7,6.1,4.9,0,0,0-24.5,0-25.8ZM234.3,77.6c-2.6,3.2-6.7,5.5-10.1,5.5-5.3,0-8-2.3-8-7.6,0-8.4,11.4-10.2,18.2-12.1v14.2ZM186.5,48.1c9.2,0,14.1,4.3,14.1,13.8v23.1c-3.1,0-5.7-2.3-6-5.4v-17.1c0-5.2-1.3-11.7-10.5-11.7s-12.6,6.8-12.6,15.9c0,0,0,14.1,0,18.3-3.1,0-5.6-2.3-6-5.2v-30.6c3.1,0,5.7,2.3,6,5.4v2.3c2.8-5.4,7.7-8.9,15-8.9ZM113.3,84.1c1.2,0,2.3-.2,3.5-.5v1c-2.3.7-4.7,1-7.1,1.1-6.3,0-9.8-3.5-9.8-9v-25.4h-6v-2h6.1v-9c3.1,0,5.7,2.3,6,5.4v3.5h9.3v2h-11.1l1.7.5v22.1c0,4.9.4,10.4,7.2,10.4M49.7,70.5c-1.6-.9-3.3-1.7-5-2.2.8,7.7,7,14,15.3,16.4-.2-.8-.4-1.6-.7-2.4-4.8-2.3-8.2-6.6-9.5-11.8ZM84.1,70.4c-1.1,5.4-4.7,9.9-9.7,12.1-.3.8-.5,1.6-.6,2,8.2-2.4,14.3-8.7,15.1-16.3-1.7.6-3.3,1.3-4.8,2.1ZM67.3,49.6c2.7,0,5.3.7,7.7,2,1.1-.9,2.1-1.6,2.6-2-3.2-1.5-6.7-2.2-10.2-2.1-3.7,0-7.4.7-10.8,2.2.6.4,1.5,1.1,2.6,2,2.6-1.3,5.4-2,8.2-2ZM88.8,66.2c-.1-1.1-.3-2.2-.6-3.2-8.2,2.4-14.6,9.9-16.7,19.6-.1-1.8-.3-3.5-.6-5.2q0,0,0-.1c.5-1.3,5.2-12.5,16.8-15.8-.3-1-.6-2-1.1-2.9-7.2,2.6-13.1,8.8-16.2,16.8-.3-1.1-.6-2.2-.9-3.3,3.3-6.3,8.9-12.9,16-15.1-.6-.9-1.1-1.8-1.8-2.6-6.4,3-11.6,8.7-14.9,15.7-.4-.9-.7-1.9-1.1-2.7,3.2-6.2,8.2-11.2,14.5-14.4-.9-.8-1.8-1.5-2.8-2.1-5.3,3.6-9.7,8.6-12.6,14.5-2.9-5.8-7.2-10.8-12.6-14.4-1,.6-2,1.3-2.9,2,10.1,4.9,14.5,14.4,14.5,14.4-.4.9-.8,1.8-1.1,2.8-3.3-7.1-8.6-12.7-15-15.8-.8.8-1.5,1.7-2.1,2.5,10.6,3,16.4,15.2,16.4,15.2-.4,1.1-.6,2.2-.9,3.4-3.1-8.1-9.2-14.4-16.5-16.9-.5.9-.9,1.8-1.2,2.8,12.7,3.2,17.3,16,17.3,16-.3,1.7-.6,3.5-.6,5.2-2.1-9.7-8.7-17.4-17.1-19.7-.2,1.1-.4,2.2-.4,3.2,8.9,2,15.8,9.6,17.4,19.1h.9c0-2,.2-4.1.6-6.2h0c.6,2.3,1,4.4,1.4,6.6h1c0-1.6.4-5.1,1-7,.5,2.3.9,4.7,1,7.1h.9c.4-2.3.9-4.5,1.4-6.7.4,2.1.6,4.2.6,6.3h.9c1.6-9.6,8.4-17.1,17.2-19.2ZM65.3,84.6c-.2-2.5-.8-5-1.6-7.4.3-1.2.6-2.4,1-3.5.6,1.3,1.1,2.6,1.5,4-.4,2.3-.7,4.6-.9,6.9ZM65.5,71.7c.4-1,.9-1.9,1.3-2.8.5.9.9,1.9,1.3,2.8-.5,1.3-.9,2.5-1.3,3.8-.4-1.3-.8-2.5-1.3-3.8ZM68.3,84.6c-.1-2.3-.4-4.7-1-7,.4-1.3.9-2.7,1.5-4,.4,1.1.7,2.3,1,3.5-.7,2.5-1.2,4.9-1.5,7.5ZM226.4,23.5c-.1-7.2-4.7-11.2-11.1-11.2s-11.6,4.4-11.6,9.8,5.3,9.7,11.6,9.7,7-2,8-3.7c.3,3.9-3.1,8.9-9,9.1-.5,0-.9.3-1.1.8,10.8,0,13.3-6.7,13.2-14.5ZM215.2,30.8c-4.8,0-8.7-3.9-8.7-8.6s3.9-8.6,8.7-8.6c4.7,0,8.5,3.9,8.4,8.6.1,4.7-3.5,8.5-8.2,8.6h-.2ZM240.4,12.1v13.5c0,10.6-7.6,12.5-13.1,12.5,0-.5.6-.8,1.1-.8,5,0,9.2-4.1,9.2-9.1v-13.5c.3-1.5,1.5-2.5,2.9-2.5ZM143.9,7.1c-1.1,0-2.1-.9-2.1-2s.9-2,2.1-2,2,.8,2,1.9h0c0,1.2-.9,2.1-2,2.2q0,0,0,0ZM196.9,7.1c-1.1,0-2.1-.9-2.1-2s.9-2,2.1-2,2.1.9,2.1,2-.9,2-2.1,2ZM191.6,7.1c-1.1,0-2.1-.9-2.1-2s.9-2,2.1-2,2,.8,2,1.9h0c0,1.2-.9,2.1-2,2.2ZM196.1,14.6c0-2.5,2.8-2.5,2.8-2.5v12.3c0,5.1-2.7,7.3-7,7.4h-39.9V3c1.7.5,2.8,2,2.8,3.7v23.7h36.3c3.9-.2,5-3.5,5-6.3v-9.4ZM143.1,14.6c0-2.5,2.8-2.5,2.8-2.5v12.3c0,5.1-2.7,7.3-7,7.4h-39V3c1.7.5,2.8,2,2.8,3.7v23.7h35.3c3.9-.2,5-3.5,5-6.3v-9.4Z"/>
</svg>