<?xml version="1.0" encoding="UTF-8"?>
<svg id="Layer_1" xmlns="http://www.w3.org/2000/svg" version="1.1" viewBox="0 0 104.1 27.2">
  <!-- Generator: Adobe Illustrator 29.1.0, SVG Export Plug-In . SVG Version: 2.1.0 Build 142)  -->
  <defs>
    <style>
      .st0 {
        fill: #fff;
      }
    </style>
  </defs>
  <g id="Layer_11">
    <path class="st0" d="M13.9,3.2h-.5c0-1.1,0-1.7-1.5-1.7h-2.9v10.7c0,1.3.7,1.3,1.7,1.4v.5h-5.2v-.5c1,0,1.7,0,1.7-1.4V1.5h-2.4c-1.7,0-1.8.5-2.1,1.7h-.5l.2-3h.4c.2.5.7.5,1.2.5h8.5c.7,0,1.1-.2,1.2-.5h.4l-.2,3.1h0ZM26.9,7.8v4.4c0,1.3.7,1.3,1.7,1.4v.5h-5.2v-.5c.9,0,1.7-.2,1.7-1.3V2.6c0-1.3-.7-1.4-1.7-1.4v-.5h5.4c3.5,0,4.4,2,4.4,3.4s-1.2,2.8-2.7,3.3c1.7,2.5,2.6,4.1,3.4,5,.6.7,1.2,1.2,2.1,1.2v.5h-3c-1.7-1.9-3-4.2-4.3-6.3,0,0-1.8,0-1.8,0ZM28,1.3c-.4,0-.8,0-1.1.1v5.6h1c2.3,0,3.2-1.6,3.2-2.9s-.9-2.9-3.1-2.9h0ZM57.3,1.2c-1.5,0-1.5.8-1.5,3.1v5.5c0,2.6-1.6,4.6-4.9,4.6s-5-1.5-5-4.8V2.6c0-1.3-.7-1.4-1.7-1.4v-.5h5.3v.5c-1,0-1.7,0-1.7,1.4v6.5c0,2.3.7,4.5,3.7,4.5s3.4-2.5,3.4-3.8v-5.4c0-3.2,0-3.1-1.8-3.2v-.5h4.3v.5h0ZM74.7,11.5c1.7-3.6,3.5-7.1,5.1-10.8h3.2v.5c-.7,0-1.1,0-1.3.2s-.4.5-.4,1.2c0,3,.2,6.3.2,9.1s.2,1.9,2.1,1.9v.5h-5.9v-.5c.7,0,1.1,0,1.5-.2.3-.2.5-.6.5-1.3V3h-.2l-4.4,9.4c-.2.5-.6,1.4-.7,1.9h-.4c-1.6-3.7-3.4-7.3-5.2-10.9h0l-.2,6.9v1.2c0,.9,0,1.5.4,1.7.3.3.8.3,1.5.3v.5h-4.8v-.5c1.3,0,2.2-.3,2.2-2.9s.2-5.2.2-7.8,0-1.1-.4-1.3c-.3-.2-.7-.3-1.3-.3v-.5h3.2l5,10.7h.1ZM92.7.7h4.6c2,0,4.7.8,4.7,3.8s-2.1,3.8-4,3.8-.7,0-1,0v-.6h.7c1.6,0,2.3-1.6,2.3-3,0-2.7-1.8-3.4-3.1-3.4s-.5,0-.8,0v10.8c0,1.3.7,1.3,1.7,1.4v.5h-5.2v-.5c1,0,1.7,0,1.7-1.4V3c0-1.5-.2-1.9-1.7-1.9v-.5h.1ZM102.1,19H2.1v.4h100v-.4h0ZM102.1,26.5H2.1v.4h100v-.4h0ZM6.4,21.6h-.2c0-.4,0-.6-.5-.6h-1.1v3.6c0,.4.3.5.6.5v.2h-1.9v-.2c.4,0,.6,0,.6-.5v-3.6h-.9c-.6,0-.7.2-.8.6h-.2v-1h.2c0,.2.3.2.4.2h3.1c.2,0,.4,0,.4-.2h.2v1h.1ZM10.8,22.8v-1.4c0-.4-.3-.5-.6-.5v-.2h2v.2c-.4,0-.6,0-.6.5v3.2c0,.4.3.5.6.5v.2h-1.9v-.2c.4,0,.6,0,.6-.5v-1.5h-2.8v1.5c0,.4.3.5.6.5v.2h-1.9v-.2c.4,0,.6,0,.6-.5v-3.2c0-.4-.3-.5-.6-.5v-.2h1.9v.2c-.4,0-.6,0-.6.5v1.4h2.8-.1ZM13.9,22.8h.9c.6,0,.6-.4.6-.5h.1v1.4h-.1c0-.6-.2-.6-.8-.6h-.7v1.1c0,.7,0,.9.7.9h.5c.7,0,1,0,1.2-.8h.2c-.1.4-.2.7-.3,1h-3.6v-.2c.6,0,.7,0,.7-.7v-2.8c0-.5-.1-.5-.7-.6v-.2h3.4v.9h-.1c-.1-.6-.4-.8-1.1-.8h-.8v1.8h0ZM22.8,21.6h-.2c0-.4,0-.6-.5-.6h-1v3.6c0,.4.3.5.6.5v.2h-1.9v-.2c.4,0,.6,0,.6-.5v-3.6h-.9c-.6,0-.7.2-.8.6h-.2v-1h.2c0,.2.3.2.4.2h3.1c.2,0,.4,0,.4-.2h.1v1h0ZM24.5,23.1v1.5c0,.4.3.5.6.5v.2h-1.9v-.2c.4,0,.6,0,.6-.4v-3.2c0-.4-.3-.5-.6-.5v-.2h2c1.3,0,1.6.7,1.6,1.1s-.4.9-1,1.1c.6.8.9,1.3,1.2,1.7.2.2.5.4.8.4v.2h-1.1c-.6-.6-1.1-1.4-1.6-2.1h-.6ZM24.9,21h-.4v1.9h.4c.8,0,1.2-.5,1.2-1s-.3-1-1.1-.9h-.1ZM32.8,20.9c-.5,0-.5.2-.5,1v1.8c0,.9-.6,1.5-1.8,1.5s-1.8-.5-1.8-1.6v-2.3c0-.4-.3-.5-.6-.5v-.2h1.9v.2c-.4,0-.6,0-.6.5v2.2c0,.8.3,1.5,1.3,1.5s1.2-.8,1.2-1.2v-1.8c0-1.1,0-1-.6-1.1v-.2h1.6v.2h0ZM36.4,24.3c.6-1.2,1.3-2.3,1.8-3.6h1.2v.2h-.5v3.4c0,.5,0,.6.8.6v.2h-2.1v-.2h.5s.2-.2.2-.4v-3l-1.6,3.1c0,.2-.2.4-.3.6h0c-.6-1.2-1.2-2.4-1.9-3.6v3.3h.6v.2h-1.8v-.2c.5,0,.8,0,.8-1v-2.6c0-.9,0-.4,0-.4h-.5v-.2h1.2l1.8,3.6h-.1ZM40,20.7h1.7c.7,0,1.7.3,1.7,1.3s-.8,1.3-1.5,1.3h-.4v-.2h.3c.6,0,.8-.5.8-1s-.4-1.1-1-1.1h-.4v3.6c0,.4.3.5.7.5v.2h-1.9v-.2c.4,0,.6,0,.6-.5v-3c0-.5,0-.6-.6-.6v-.2h0ZM48.4,20.6c1.4,0,2.5,1.1,2.5,2.3s-1.1,2.4-2.5,2.3c-1.4,0-2.5-1.1-2.5-2.3s1.1-2.3,2.5-2.3ZM48.4,25.1c1,0,1.6-.8,1.6-1.9s-.6-2.3-1.8-2.3-1.6.8-1.6,1.9.6,2.3,1.8,2.3ZM52.8,23.1v1.5c0,.4.3.5.6.5v.2h-1.9v-.2c.4,0,.6,0,.6-.4v-3.2c0-.4-.3-.5-.6-.5v-.2h2c1.3,0,1.6.7,1.6,1.1s-.4.9-1,1.1c.6.8.9,1.3,1.2,1.7.2.2.5.4.8.4v.2h-1.1c-.6-.6-1.1-1.4-1.6-2.1h-.7.1ZM53.2,20.9h-.4v1.9h.4c.8,0,1.2-.5,1.2-1s-.3-.9-1.1-.9h-.1ZM61,21.9h-.2c-.2-.7-.8-1-1.6-1-1.2,0-1.9,1-1.9,2s.7,2.2,2,2.2.7,0,.9-.2v-.9c0-.5-.3-.5-.6-.5v-.2h1.8v.2c-.2,0-.5,0-.5.5v.8h0v.2c-.6.2-1.2.3-1.8.4-1.9,0-2.6-1.4-2.6-2.3,0-1.3,1.1-2.3,2.5-2.3s1.2,0,1.8.4v.9-.2h.2ZM65.5,23.9c0,.3.2.6.4.9,0,0,.3.2.5.2v.2h-1.8v-.2h0c.2,0,.4,0,.4-.2v-.4l-.4-.9h-1.6l-.2.4c0,.2-.2.5-.2.8s.2.3.5.3h.2v.2h-1.7v-.2c.4,0,.5,0,.7-.5,0-.2.2-.5.3-.7l.9-2.3v-.8c.2,0,.3-.2.4-.3h0l1.4,3.4h.2ZM63.1,23.2h1.4l-.7-1.9-.7,1.9ZM71.5,25.2h-.2l-3.6-3.6v2.4c0,.9,0,1.1.8,1.1v.2h-1.8v-.2c.4,0,.7,0,.7-.8v-2.5c0-.5-.2-.8-.8-.8v-.2h1.2c.3.4.9,1,1.7,1.8.6.6,1.2,1.2,1.7,1.7v-2.5c0-.6,0-.8-.8-.8v-.2h1.7v.2c-.4,0-.7,0-.7.6v3.7h.1ZM73,21.4c0-.4-.3-.5-.6-.5v-.2h1.9v.2c-.4,0-.6,0-.6.5v3.2c0,.4.3.5.6.5v.2h-1.9v-.2c.4,0,.6,0,.6-.5v-3.2ZM79,25.2h-4.3l3.5-4.2h-2.2c-.6,0-.8.4-.8.7h-.2c0-.3.2-.7.2-1h4l-3.5,4.2h2c1,0,1.2-.2,1.5-.8h.2l-.3,1.1h0ZM83.4,23.9c0,.3.2.6.4.9,0,0,.3.2.5.2v.2h-1.8v-.2h0c.2,0,.4,0,.4-.2v-.4l-.4-.9h-1.6l-.2.4c0,.2-.2.5-.2.8s.2.3.5.3h.2v.2h-1.7v-.2c.4,0,.5,0,.7-.5s.2-.5.3-.7l.9-2.3v-.8c.2,0,.3-.2.4-.3h0l1.4,3.4h.2ZM81,23.2h1.4l-.7-1.9h0s-.7,1.9-.7,1.9ZM88.3,21.5h-.2c0-.4,0-.6-.5-.6h-1.1v3.6c0,.4.3.5.6.5v.2h-1.9v-.2c.4,0,.6,0,.6-.5v-3.5h-.9c-.6,0-.7.2-.8.6h-.2v-1h.2c0,.2.3.2.4.2h3.1c.2,0,.4,0,.4-.2h0v1h.3ZM89.3,21.4c0-.4-.3-.5-.6-.5v-.2h1.9v.2c-.4,0-.7,0-.7.5v3.2c0,.4.3.5.7.5v.2h-1.9v-.2c.4,0,.6,0,.6-.5v-3.2ZM93.6,20.6c1.4,0,2.5,1.1,2.5,2.3s-1.1,2.4-2.5,2.3c-1.4,0-2.4-1.1-2.4-2.3s1.1-2.3,2.4-2.3ZM93.7,25.1c1,0,1.6-.8,1.6-1.9s-.6-2.3-1.8-2.3-1.6.8-1.6,1.9.6,2.3,1.8,2.3ZM101.4,25.2h-.2l-3.6-3.6v2.4c0,.9,0,1.1.8,1.1v.2h-1.8v-.2c.4,0,.7,0,.7-.8v-2.5c0-.5-.2-.8-.8-.8v-.2h1.2c.3.4.9,1,1.7,1.8.6.6,1.2,1.2,1.7,1.7v-2.5c0-.6,0-.8-.8-.8v-.2h1.7v.2c-.4,0-.7,0-.7.6v3.7h.1Z"/>
  </g>
</svg>