<?xml version="1.0" encoding="UTF-8"?>
<svg id="Layer_1" xmlns="http://www.w3.org/2000/svg" version="1.1" viewBox="0 0 161.4 97.4">
  <!-- Generator: Adobe Illustrator 29.1.0, SVG Export Plug-In . SVG Version: 2.1.0 Build 142)  -->
  <defs>
    <style>
      .st0 {
        fill: #fff;
      }
    </style>
  </defs>
  <path class="st0" d="M82.6,36.2c-.4.2-.8.2-1.2.2-.4,0-.9,0-1.3-.1-.6,0-1.1.2-1.7,0-.2,0-.3-.2-.5-.2,0,0-.1,0-.1,0s0,.2.1.2c.4.3,1,.4,1.5.2.4,0,.7,0,1.1,0,.7.2,1.4.1,2-.2.1,0,.4-.1.4-.3s-.1-.2-.2-.1q0,0-.1,0M83.4,34.9c-.2.1.1.3,0,.4-.2.1-.5.2-.7.2-.6.1-1.1-.2-1.7-.3-.3,0-.5.3-.8.3-.4-.2-.8-.3-1.1-.2s-.7.2-1,.2-.7.1-.9-.1h0v-.2c-.2-.1-.3.1-.4.2,0,.2-.3.2-.2.4,0,0,.1.1.2.1,0,0,.2-.2.2-.2.1,0,.2,0,.2,0,.7.4,1.2-.1,1.9-.2.4,0,.7,0,1,.2.3,0,.5,0,.7-.2.2-.2.5-.1.7,0,.4.2.8.3,1.2.2.3-.1.7-.2,1-.3h.2c0,.2.1.1.2,0h0c0-.1,0-.2-.2-.3-.1-.2-.2-.4-.5-.4M81.2,34.1c-.3-.1-.5.2-.8.2-.6-.4-.9,0-1.4.2-.2.1-.5,0-.6.2,0,0,0,.1,0,.1.3.1.5.1.7,0,.3-.1.4-.2.7-.3h.2c.1,0,.2,0,.3.1.1,0,.1.1.4,0,.5-.4,1,.2,1.6.2,0,0,.2,0,.2,0,0,0,0-.2,0-.2-.4,0-.7-.5-1.1-.5M77.6,32.5c0,.2,0,.4.2.6.4.4.9,0,1.3,0s.5,0,.8.2c0,0,0,0,0-.1,0,0-.1-.1-.2-.1-.4-.4-1-.3-1.4-.2-.2,0-.2.1-.4,0-.1-.1-.2-.2-.2-.4,0,0-.2,0-.2,0M82.9,32c-.3,0-.2.3-.3.4-.3.4-.6.3-1.1.3h-.5c0,.2-.2.2-.1.3,0,0,0,0,.1,0h.6c.4,0,.7,0,1-.2.2-.2.3-.5.3-.7h0ZM86.8,27.2c-.1,0-.2.2-.3.2,0,0,0-.3,0-.4.1,0,.2,0,.3.2M84.1,25.5c-.3.1-.6.3-.9.5-.2,0-.3.2-.4.3,0,0-.1.2-.2.2,0,0,0,.1,0,.1h0c0,0,0,0,0,0s0,0,0,0h0c0,0,0,0,0-.1h0c0,0,0,0,0,0,0,0,.1,0,.2-.1.4-.3.9-.4,1.3-.5.4,0,.8,0,1.2.2.3.2.6.4.9.7,0,.1-.5-.3-.7-.4-.5-.2-1.1-.3-1.6-.2-.6.1-1,.4-1.4.9,0,0,0,.2-.1.2,0,0-.1.2,0,.2h.2c.2-.2.2-.2.3-.3.8-.6,1.8-.7,2.7-.3.1.1.3.2.4.3,0,.2.1.4,0,.5,0,0-.3.2-.4.2-.6.4-1.2.3-1.8.2-.3,0-.3-.3-.4-.5s0-.5-.3-.5q0,0,0,0h0c-.2.3,0,.5,0,.7h0c-.2,0-.5,0-.6-.3,0,0-.1,0-.1,0,0,0,0,.2,0,.3,0,.2.2.2.3.3.4,0,.7.2,1.1.3.7.2,1.4.1,2-.2.3-.2.6-.3.9-.5,0,0,.1-.1.2-.2,0,0,0-.1.1-.2,0-.1,0-.1-.1-.2-.1,0-.2-.1-.3-.2h-.2c.3,0,.5,0,.8,0,.3-.2.5-.1.7-.4,0,0,.1-.1.2-.2,0-.1.2-.2.2-.3s0-.1,0-.2c-.2,0-.2.2-.3.3-.2.3-.5.4-.9.5-.4,0-.7-.2-1-.5-.2-.1-.4-.2-.6-.4-.5-.3-1-.3-1.6-.2M79.6,26.1c0,0,0,0-.1,0h0c0,.5,0,.9,0,1.3,0,.5-.2,1,0,1.4,0,.3,0,.7,0,1,0,.3-.1.7-.2,1-.1.6-.2,1.1.2,1.6.2.4.6.5.9.5.2,0,.4,0,.6-.2,0,0,0-.1,0-.2-.2,0-.4,0-.6,0-.3,0-.6-.3-.6-.6-.3-.9.2-1.2.2-2v-.5c0-.5-.2-1.2,0-1.7,0-.4,0-.7,0-1.1s-.1-.4-.1-.5c-.1,0-.1,0-.1-.1M85.2,24.4c-.3,0-.5,0-.8,0-.4.1-.7.3-1,.5-.2.2-.3.2-.4.4-.3.3-.5.5-.9.6,0,0,0,0-.1.1,0,.1.2.1.3.1.3-.2.6-.4.8-.6.2-.3.5-.4.8-.6.3,0,.5-.1.7-.2.3,0,.6,0,.9.1.3,0,.3.1.7.2.2.1.4.1.5.2.2,0,.4.1.5.2.4.1.8,0,1.2-.2.1,0,0,0,.1,0s0-.1,0-.1c-.3,0-.6.1-.9.1s-.4,0-.6-.1c-.3-.1-.6-.2-.9-.4-.3-.1-.6-.2-1-.3M81,33.7c-.2.1-.5.1-.7,0-.1,0,0,.1-.1.2.3.1.6.3.8,0,0,0,.1-.1.1-.2,0,0-.1,0-.2,0M81.9,27.1c0,0,0,0,0,.1,0,.3.1.6.2.9.1.3.3.6.6.8h.1c0-.2,0-.2,0-.3s-.2-.2-.2-.3c-.2-.3-.3-.7-.4-1,0,0-.1-.2-.2-.2M77.8,27.7s0-.5-.1-.6c.2.1.4.3.6.4,0,.1-.4.2-.5.2M74.9,27.2c.4-.3.8-.4,1.3-.5.4,0,.8,0,1.2.2,0,0-.1,0,0,.4,0,.2,0,.4-.1.6-.3.2-.5.2-.8.3-.3,0-.6,0-.9,0-.3,0-.5-.2-.7-.3,0-.1,0-.2,0-.3-.1-.2-.1-.3,0-.4M80.2,42.5c.1.1.1.3.3.4,0,0,0,.1.1.2.2.2.3.4.5.5h0c-.5.3-1,.3-1.5.1-.1,0-.2-.2-.3-.3-.2-.2-.3-.4-.3-.7.4-.4.9-.3,1.3-.3M81.2,41.5c0,0,0,0,.1,0h0c.5.2.7.8,1.1,1,0,0,.1.1.2.1.3.2.6.3.8.4,0,0,0,.1,0,.2,0,0-.1.2-.1.3h0c-.1.2-.3.3-.5.3-.7,0-1.3-.3-1.7-.8-.3-.2-.4-.5-.5-.8,0-.2-.2-.4,0-.6.3-.2.6-.2.8,0M72.8,40.4c.2.3.4.5.6.7.4.4.7.8,1.2,1.1,0,.1.2.1.3.2-.1.2-.3.2-.5.3,0,0-.2.1-.3.2-.3.2-.7.3-1,.4h-.1c-.3.2-.6.2-.9,0,0,0,0-.1-.2-.1,0,0-.1-.1-.2-.1-.2-.5-.2-1-.2-1.5,0-.5,0-1.1,0-1.6,0-.3,0-.6,0-.8h0c.4.4.7.9,1.1,1.3M90.3,38c0,.2-.2.4-.2.6,0,.3-.1.6-.1.9,0,.3,0,.6,0,.9,0,.5-.1.9-.2,1.4,0,0-.1.1,0,.2,0,0,0,.1,0,.2,0,.2-.2.4-.5.5-.4,0-.7,0-1.1-.1h0c-.2,0-.3-.1-.4-.2-.3-.2-.8-.4-1.1-.6.2-.2.5-.4.7-.6.6-.5,1.1-1,1.6-1.6.4-.4.7-.8,1-1.2.2-.2.3-.4.5-.6,0,.1-.1.1-.1.3M69.3,36.4h0c0,.2.2.5.4.6.2.1.2.2.4.3.3.3.7.3.9.7.2.2.3.4.4.6,0,.3.1.6.1.8,0,.3,0,.6,0,.9v.2c-.1,0,0,.2,0,.2,0,.2,0,.4,0,.5,0,.5-.2,1.1,0,1.6,0,.2.1.2,0,.4.1.2.1.3.3.4,0,0,0,.2.1.1,0,0,.1.2.2.2.2,0,.5.1.7.1.8-.2,1.5-.6,2.2-.9.5-.4,1.1-.7,1.6-.9.5-.3.9-.5,1.4-.7.3-.1.5-.1.8-.2.3,0,.6-.1.9,0,.2,0,.3.1.5.2,0,.2,0,.4,0,.6-.5.1-.9-.2-1.3-.1-.3,0-.6.2-.8.3h0c-.2.2-.5.2-.7.4-.3.2-.6.3-.9.5-.2.2-.5.3-.7.4,0,0,0,0,0,0-.3.1-.4.3-.7.3h0c-.1,0-.2.1-.3.1s-.2,0-.3.1c-.1,0-.2,0-.3,0-.3,0-.5.1-.7.2,0,0-.2.1-.1.2,0,0,0,0,0,0h0c.2.1.4.2.5.1.4,0,.7-.1,1-.3.5-.3.9-.5,1.4-.7.1,0,.2-.1.3-.1,0,0,.2-.1.2-.2.5-.3,1-.6,1.5-.8.1,0,.2-.1.4-.1,0,0,0,0,0,.1h0c0,.1,0,.2,0,.3v.2c-.3,0-.5.2-.8.3h0c-.3.1-.5.2-.8.4,0,0-.2,0-.2.1-.4.2-.7.5-1.1.6h0c0,.1-.1,0-.2.1-.2.1-.3.2-.5.3h0c-.8.4-1.7.5-2.5.3h0c-.3,0-.5-.2-.8-.3-.3-.3-.7-.4-.9-.8-.1-.1-.2-.3-.3-.3,0,0,0-.1,0-.2-.2-.2-.3-.6-.3-.9,0-.4-.2-.8,0-1.1,0-.3,0-.5.1-.7,0-.3.1-.6.2-.9,0,0,0-.1,0-.1,0-.2,0-.3,0-.4,0,0,0-.2,0-.2,0,0,0,0,0,0,.1,0,.2.2.3.2.1,0,.2-.2.2-.3,0,0,0,0,0,0,0,0,0-.2,0-.2,0-.5-.6-.8-1-1-.5-.2-.8-.7-.8-1.2,0-.1,0-.2,0-.3,0,.3,0,.3,0,.3M92.5,35.7c.2.8-.2,1.4-.6,2-.2.3-.3.6-.4.9,0,.3-.2.5,0,.8,0,.6,0,1.2,0,1.8,0,.4-.2.8-.3,1.2-.1.3-.3.6-.4.9-.2.4-.4.6-.7.8-.2.2-.4.2-.5.4-.5.3-1,.3-1.6.3-.5,0-.9-.1-1.4-.2-.4-.2-.8-.3-1.1-.5-.3-.2-.5-.3-.7-.5-.4-.3-.6-.7-1-.8-.3-.3-.6-.5-1-.6,0,0-.1-.1-.1-.1h.2c.1,0,.2,0,.4,0,0,0,0,0,.1,0,.3.1.5.2.8.3,0,0,.1.1.2.2.2.2.3.3.5.4h0c.2.2.4.3.6.4s.5.3.7.5c.2,0,.3.2.4.2.7.3,1.4.5,2.1.5.2,0,.4,0,.6-.1.2-.2.4-.3.4-.5-.2-.2-.3.1-.5,0-.5.1-1,0-1.5-.1-.2,0-.4-.1-.6-.2-.2-.1-.4-.2-.6-.3-.3-.2-.7-.4-1-.6h0c-.2-.2-.5-.3-.7-.5-.2-.2-.4-.3-.6-.4-.4-.2-.9-.4-1.3-.4s-.5,0-.7.1c-.1,0-.2-.1-.2-.2h0c.2-.2.4-.2.6-.3.2-.1.4-.2.6-.2.5,0,1,0,1.4.2.5.2,1,.5,1.5.7.8.4,1.5.9,2.3,1.1,0,0,0,0,0,0h.2c.1,0,.2,0,.3,0,.1,0,.2,0,.3,0,.2,0,.4,0,.5-.2.1-.3.3-.5.4-.7,0-.1,0-.3.2-.4.2-.6.3-1.3.3-1.9,0-.2,0-.3,0-.4,0-.2,0-.3,0-.4,0-.1,0-.2.1-.4.1-.4.3-.8.5-1.1.1-.3.2-.6.3-.9,0,0,0-.1.1-.2.1-.2.2-.4.4-.4.2-.2.4-.4.6-.6,0,.1,0,.2,0,.3M72.5,35c0,.1,0,.2.2.3.2.7.6,1.3.8,1.9.5.8,1.1,1.6,1.8,2.3.4.5.8.9,1.3,1.2.2.2.4.3.6.4,0,0,0,0,0,0h0c-.2.1-.5.2-.7.4h0s0,0,0,0c0,0,0,.1-.1,0,0,0-.2,0-.3,0-.3-.2-.5-.4-.7-.6h0c-.1-.1-.2-.2-.3-.3h0c-.1,0-.2-.1-.3-.2-.1,0-.2,0-.4,0,0,0-.1.1-.1.2.1.2.2.3.4.5.3.3.6.6.9.8,0,0-.1.1-.2.1-.2,0-.3-.1-.4-.2-.3-.3-.5-.3-.7-.6h0c-.1-.1-.2-.3-.4-.4q0,0,0-.1c-.1-.1-.2-.3-.4-.4h0c-.1-.1-.2-.3-.4-.4h0c0,0,0-.1,0-.1-.2-.2-.3-.3-.4-.5h0c-.2-.2-.2-.4-.4-.5-.1-.2-.3-.4-.4-.6h0c0,0,0-.2,0-.2,0,0,0-.2-.1-.2h0c0-.2-.2-.4-.3-.6,0-.2-.1-.4-.2-.5,0-.2-.2-.4-.2-.6,0-.1.1-.2.2-.3h0c.1.4.3.6.4,1,.2.4.4.7.5,1.1.1,0,.2.2.3.2s.2-.1.2-.2c0-.2,0-.3-.2-.4,0-.2-.1-.3-.2-.5,0-.1-.1-.1-.1-.2s-.1-.2-.1-.4c-.1-.2-.2-.5-.3-.6,0-.2-.1-.3-.1-.5.3,0,.5-.3.7-.4M72.3,33.7v.4c0,0,0,.2,0,.2h0c0,0,0,.1,0,.2-.4.5-1,.8-1.4,1.4-.1.2-.2.3-.3.5,0,0,0,.2-.1.3v.2c0,0,0,0,0,0-.2,0-.1-.4-.1-.6,0-.2.1-.3.1-.5.1-.2.2-.4.3-.6,0,0,0,0,0-.1.4-.5.9-1,1.5-1.3h0ZM90.2,33.6c.2.2.4.4.6.7,0,.2-.1.3-.2.4-.2.3-.4.6-.6,1,0,0,0,.1.1.1s.2,0,.2,0c.3-.3.5-.7.7-.9.1.1,0,.2,0,.2,0,.2-.2.4-.2.6-.2.2-.3.4-.4.7-.4.5-.8.9-1.1,1.3-.2.2-.3.4-.4.5,0,0-.1.1-.1.2-.1.1-.2.2-.3.3,0,.1,0,.2,0,.2h.3c.5-.6,1-1.2,1.4-1.8.2-.1.3-.4.4-.5.2-.3.4-.5.5-.8h0v.2c0,.2-.1.2-.2.4-.2.3-.4.5-.5.7-.3.3-.5.6-.7.9-.3.3-.5.6-.8.9h0c-.2.3-.4.5-.6.7-.3.4-.7.7-1.1,1.1-.1.2-.3.2-.4.4-.2.3-.5.4-.7.6-.2,0-.3,0-.4-.1-.1,0-.3-.1-.3-.2.3-.2.6-.5.8-.7.3-.3.6-.5.8-.8,0-.1.1-.2,0-.3,0-.1-.1-.1-.2,0-.3.3-.7.7-1,.9-.1.1-.2.2-.3.2,0,0-.1,0-.1.1-.2.2-.3.3-.5.4-.2,0-.4,0-.5-.1-.2,0-.4,0-.4-.2h0c.4-.3.7-.5,1-.8.4-.3.7-.8,1.1-1.1.7-.7,1.3-1.4,1.9-2.2.4-.7.8-1.2,1.2-1.9,0-.1,0-.2.2-.3,0-.1.1-.2.1-.3.1-.2.1-.3.2-.4,0,0,0-.2.2-.2.2,0,.2,0,.3.2M72.8,33.3s0,.1,0,.1c0,0,0,.1,0,.2.2.5.5.8.7,1.3.2.4.4.8.7,1.1.1.1.2.2.3.3.2,0,.2.2.3.3.6.6,1.2,1.1,1.9,1.5.3.3.6.5.8.7.3.3.5.6.9.8.6.7,1.6.5,2.4.5.7,0,1.4-.1,2-.4.3,0,.5-.2.7-.3.3-.2.4-.4.6-.6h0c.3-.3.6-.6.8-.8.4-.3.7-.6,1-.9.3-.2.5-.4.7-.7.4-.4.7-.8,1-1.2.2-.2.3-.5.5-.7.1-.2.2-.4.3-.5.1,0,0,.2.1.2.1,0,0,.2.2.3,0,.1,0,.3.2.4,0,.2.2.3,0,.5-.3.5-.7,1-1,1.5-.3.3-.5.6-.7.8-.4.5-.8.9-1.2,1.3-.4.5-.9.9-1.4,1.3-.2.1-.3.2-.4.3s-.3.3-.5.3c-.7,0-1.3.2-1.8.6-.2,0-.4-.1-.5-.2-.3-.1-.6,0-.9.1-.2,0-.2-.2-.4-.2-.4-.2-.8-.2-1.2-.2-.3,0-.6.1-.9.2-.2.1-.3-.1-.5-.1-.3-.1-.5-.3-.7-.5-.6-.5-1.1-1-1.5-1.5-.5-.6-1-1.3-1.4-1.9-.2-.5-.5-.9-.7-1.4,0-.2-.1-.4-.2-.6-.2-.3-.2-.7-.2-1,0-.2,0-.3,0-.4,0-.1,0-.2,0-.3h0c0,.1,0,0,0,0ZM89,32c0,0,0,.1.1.1.2.3.3.6.5.9,0,.1-.1.2-.1.4,0,0,0,0,0,0,0,.1-.1.2-.1.3,0,.2-.2.3-.2.4,0,.1-.1.2-.2.3-.1,0-.2-.2-.2-.3,0-.2-.1-.3-.2-.5-.1-.2,0-.4,0-.6,0-.2.2-.4.3-.6,0-.2,0-.4.2-.4,0,0,0,0,0,0M72.1,31c0,.3.2.6.3.9,0,.2.2.4,0,.6,0,.2,0,.4-.2.5s-.3.3-.5.4c0,0-.1,0-.1.1-.7.5-1.3,1.1-1.7,1.8h0c0,.2,0,.2,0,.2,0,.2-.1.3-.2.5h0s0,0,0,0h0s0,0,0,0,0,0,0,0c0-.1-.1-.2-.1-.4,0-.2,0-.6-.3-.7-.2-.2-.3-.4-.3-.6,0-.1,0-.2-.1-.3,0-.2,0-.5,0-.7s.1-.4.2-.5c0,0,0,0,0,0s0-.2.1-.3c.4-.5.8-.9,1.4-1.2.4-.1.6-.3.9-.4,0-.1.2,0,.2-.2.1,0,.2-.2.3-.3.1.1.2.2.2.2M91.1,29.8h0c0,0,0,.1,0,.1.1.1.2.3.4.4,0,.1.2.1.2.2.4.4.9.7,1.1,1.3.3.4.4.8.3,1.2h0c0,0,0,0,0,0,0-.2-.2-.3-.3-.5-.2-.2-.4-.5-.6-.7-.3-.3-.5-.5-.8-.8,0,0,0-.1,0-.2-.1-.2-.2-.5-.3-.7,0-.2-.1-.3,0-.4M71.8,29.6c.2.3.2.6,0,.9,0,0-.1,0,0,.1h0c-.3.4-.7.5-1.1.7-.4.1-.7.3-.9.6h-.1c-.3.3-.7.6-.9,1,0,.2-.1.3-.2.4,0,0,0,.1,0,.2-.1,0-.2,0-.2,0,0,0,0-.1-.1-.2-.1-.2-.2-.4-.1-.6h0c.2-.5.6-.7.9-1.1.4-.3.7-.5,1-.8.2,0,.2-.2.4-.3.3-.3.5-.5.8-.8.1-.2.2-.3.3-.4.2,0,.3.1.4.3M89.7,28.7h0c0,0,0,0,0,0h0c0,.2,0,.3.1.5,0,.2,0,.3.1.5,0,.2,0,.3.1.4.2.3.4.6.6.9.2.2.3.4.5.5.3.4.7.7,1,1.1.2.3.4.5.5.8.2.5.1,1-.2,1.4-.1.2-.2.4-.4.5-.2.1-.3.2-.4.3,0,0,0-.1,0-.2,0-.2-.1-.4-.2-.6-.2-.5-.6-.9-.9-1.3-.5-.5-.9-1-1.2-1.6-.1-.3-.2-.5-.2-.8.1-.6.3-1.1.4-1.7,0-.3.1-.5.1-.7h0s-.1,0-.1,0c0,0,0,0,0,0h0ZM68,28.7c0,.2,0,.3.1.4,0,0-.1,0-.1,0-.2-.2-.4-.4-.5-.7,0-.2.1-.2.2-.3.3.1.2.4.3.5M93.5,28.4c.3.3.4.6.4.9.1.4,0,.9.2,1.3,0,.2,0,.3.2.4,0,0,0,.1,0,.2,0,.2.2.2.2.4h-.6c-.3-.1-.8,0-.8-.4-.4-.6-1-.9-1.4-1.4-.2-.2-.3-.4-.4-.6,0-.2,0-.3,0-.4s-.2-.1,0-.3c.3,0,.5.4.9.4.2,0,.4,0,.6,0,0,0,.1,0,.2,0,0,0,.2-.1.2-.2s0-.2,0-.2v-.4c.2,0,.3.3.5.4M70.9,28.3c0,.3,0,.6-.2.9-.2.3-.5.5-.7.8-.2.2-.3.3-.5.4-.4.3-.7.6-1.1.8-.3.3-.6.6-.8.9h0c0,0,0,.1,0,.2s0,.1-.1.1-.1-.1-.1-.2c-.1-.4-.1-.7.1-1.1,0,0,0-.1.1-.2.3,0,.6,0,.9,0,.2-.1.4-.3.5-.5,0,0,0-.1,0-.2q0,0,0-.1c0,0,0-.2,0-.3.3,0,.6-.1.9-.3.4-.4.6-.8.7-1.2,0,0,0-.1.1-.2,0,0,0,0,0,0,0,.2,0,.2,0,.3M74.5,27.6s0,0,0,0h0c0,0-.1-.1-.2-.2.1,0,.2-.1.3,0v.2ZM71.4,27.2c0,0,0,0,0,0s0,0,0,0c0,0,0,.2,0,.3,0,.3,0,.6,0,.9,0,0,0,.2,0,.3,0,.1,0,0-.1,0-.1-.1,0-.4-.1-.5,0,0,0-.1,0-.1,0-.2-.2-.4-.3-.6,0,0,0-.1-.1-.1,0-.1,0-.2.1-.3,0,0,0,0,0,0h0q0,0,0,0c0,0,0,0,0,0,0,0,.2,0,.2,0M92.1,26.1c.3.2.4.4.6.7,0,0,.1,0,.1.2h0c-.2.2-.2.5-.4.6,0,.2,0,.3,0,.5,0,.1,0,.2.1.3,0,.1,0,.3-.1.3-.3,0-.5-.1-.6-.2-.2-.2-.4-.3-.5-.4,0,0,0-.1-.1,0-.1,0-.2.2-.3.3-.1.2-.2.5-.3.7v.2h0c0,.2,0,.2,0,.3v.5h0c0-.1,0-.2-.1-.3,0-.2,0-.3,0-.5,0,0,0-.1,0-.2,0-.4,0-.7,0-1,0-.2,0-.4,0-.6,0-.3,0-.6-.2-.8,0-.3.2-.5.4-.6.1-.2.3-.1.4-.3.4,0,.9.2,1.2.5M95.5,25.9c.5.4.5,1,.5,1.7,0,0,0,0,0,.1h0c0,.4-.2.8-.3,1.1-.1.2-.2.3-.3.5,0,.1-.1.1,0,.2,0,0,0,0,0,.1h0c0,.4-.3.6-.3.9-.2.3-.2.6,0,.9,0,0,0,0,0,.1,0,0-.1,0-.1,0s-.1,0,0-.1c-.2-.2-.3-.4-.4-.7-.1-.5,0-1-.2-1.5,0-.3-.2-.6-.3-.8-.2-.3-.5-.5-.8-.6h0c-.1,0-.2,0-.3,0s-.1,0-.1-.1c.1-.3.3-.4.4-.6.1-.3.2-.5.1-.8,0,0,0,0,0-.1s0-.2,0-.2c0,0,0-.1.1-.2.1-.3.3-.3.5-.4h0c0,0,.2,0,.3,0,.3,0,.5,0,.7.2.1.2.3.4.6.5M71.7,24.8h0c0,.1,0,.2,0,.2h0c0,.1,0,.2,0,.2-.1.3-.2.5-.2.8,0,0,0,0,0,.1-.2.1-.3.4-.5.4s-.8,0-1-.4c0-.3,0-.7.3-.9.2-.2.5-.5.8-.4.2.1.4.1.7.1M73.2,23.8c0,.2-.2.4-.2.7,0,.3,0,.6,0,.9,0,.3-.2.4-.3.5,0,.1-.2.1-.2.2h0c-.1.1-.2.2-.4.2-.1,0-.1,0-.1-.1h0c0,0,0,0,0-.1,0-.2-.2-.3-.1-.5.1-.4.3-.7.4-1,.2-.4.5-.7.8-1,.1,0,0,.1,0,.2M76.9,22.1c-.1.2-.3.3-.4.5-.1.1-.3.2-.4.3-.3.1-.5.3-.7.4h0c-.6.3-.8.9-1.1,1.3,0,.1-.1.3-.2.4s-.1.2-.3.3c0,0-.1,0-.2,0,0,0-.2.1-.3,0,0,0,0,0,0,0,0-.7.1-1.5.5-2.1.1-.2.2-.4.4-.5.4-.2.7-.4,1.1-.6.5.1,1.1,0,1.6-.1,0-.1,0,0,0,0M63.6,22.5c.3.2.7.4.7.7.1.5,0,1.1-.3,1.5-.3.3-.6.5-.9.6-.4,0-.8,0-1.1-.3-.3-.2-.6-.4-.6-.8h0c.7,0,1.3-.4,1.5-1,0-.1.1-.2,0-.3,0-.1,0-.2,0-.3,0-.2-.1-.4-.2-.6,0,0-.1-.2-.2-.3.3.2.6.4.9.5M74,21.9c.2,0,.3,0,.5,0,0,.1-.2.1-.3.2-.2.1-.3.4-.5.5-.3.2-.5.3-.7.5-.2.2-.3.4-.5.4-.2.2-.4.5-.6.7-.3-.1-.4.2-.7.1-.1-.1,0-.2,0-.4,0-.2,0-.3.1-.4,0-.3.3-.5.4-.7.2-.3.4-.6.7-.8.1,0,.2-.1.3-.2.4,0,.8,0,1.2,0h0ZM94.4,22.1c.1.2.3.2.3.4h0c0,.5.1.9.4,1.3,0,.1,0,.1,0,.2.1.2.3.4.4.6.2.2.3.4.6.5,0,.1.2,0,.2.2.2,0,.4.1.5.1.2,0,.3,0,.5,0h0c0,.2-.2.3-.2.3-.4.4-.9.2-1.4,0-.2-.1-.4-.3-.6-.4-.4-.2-.8-.3-1.2-.2,0,0,0,0,0,0s0,0,0,0c-.2.2-.4.2-.5.4,0,0,0,.1-.1.1,0,.1-.1.2-.2.3,0,.1-.1,0,0,.2h0c0,0-.1,0,0,.1h0c0,0,0,.1,0,.2,0,0-.1,0-.1,0s-.2-.1-.2-.2h0c0-.1-.2-.1-.2-.2-.3-.2-.6-.4-1-.4-.2,0-.4,0-.6,0-.2.1-.4.3-.6.4,0,0-.1.1-.2.2s0,0-.1.1h0c0-.1,0,0,0,0,0-.5,0-1-.2-1.5,0-.3,0-.5-.1-.8,0-.3,0-.6-.2-.9,0-.1.1-.1.1-.2.1,0,.2.2.4.2.4.2.9.3,1.4.2.4,0,.7-.3.9-.5,0,0,.1-.2.2-.2,0,0,.2,0,.3.2.3.2.5.5.6.8,0,0,0,.1.1.2,0,.2.1.3.1.4s0,.1.2.1c.3-.1.3-.4.5-.6,0-.3.1-.5,0-.8,0-.3-.1-.5-.2-.7,0,0,.2,0,.3,0-.1,0,.1.1.2.3M60.3,21.6c-.2.4-.2.8-.2,1.2,0,.3.1.5.2.8-.2,0-.5,0-.6-.2-.2-.3-.2-.6-.2-.8.2-.1.2-.3.4-.4.1-.1.2-.2.2-.3.2-.2.2-.3.3-.3M99.5,21.5c.1,0,.1,0,.2.1.2.2.3.5.4.7,0,.2,0,.3,0,.5,0,0,0,0,0,.1-.1.2-.3.3-.5.4h0c-.2,0-.3-.2-.5-.3-.1-.2-.3-.3-.5-.4-.3,0-.6.2-.7.4,0,0,0,.1,0,.2,0,.4,0,.7-.2,1.1-.2.1-.3.3-.4.4-.3.2-.7.3-1,.2-.2-.1-.5-.2-.6-.4-.1-.2-.3-.4-.4-.6,0-.3-.4-.5-.3-.8v-.2c.4,0,.7.3,1.1.2.3,0,.5-.2.7-.3h0c.3-.2.5-.4.8-.5.3-.3.6-.5.9-.7.3-.3.6-.3.9,0M62.1,21.3c.1.3.3.5.5.7h0c-.2-.1-.4-.1-.7,0-.3,0-.5.3-.6.5,0,.2,0,.4.2.5.1,0,.2,0,.3,0s0-.2.2-.2c.1,0,.2-.1.4,0,.1.1.2.3.1.4,0,0,0,.1-.1.2-.2.3-.5.6-.8.6-.4,0-.7-.4-.8-.7,0-.4-.1-.8.1-1.1.3-.3.6-.4.9-.6.2,0,.3,0,.4,0,0,0,0,0,0,0M65.3,21.2c.1.3.3.5.6.7,0,0,.2,0,.2.1.4.2.8.2,1.2.1,0,0,.2,0,.2-.2.1,0,.2.1.2.1.7.3,1.4.4,2,.3.4,0,.7-.2,1.1-.3h0c0,.2-.1.3-.1.4,0,0,0,.2,0,.2,0,.5,0,1,.2,1.5,0,0-.2,0-.3.1-.6.3-.9.8-1,1.3,0,.3-.1.7.1.9.1.2.3.4.5.4.1.2.4.2.5.2,0,.1-.1.2-.1.3,0,0,0,.1-.1.2,0,0,0,0,0,.1,0,.3-.2.5-.2.7,0,.2-.2.4-.3.6-.2.3-.4.5-.8.5-.3,0-.3-.2-.5-.4,0-.2-.1-.3-.2-.5,0-.3-.2-.6-.5-.8-.2,0-.3-.1-.5,0-.3.1-.4.3-.5.5,0,.2,0,.5.1.7.2.4.7.7,1.2.8.1,0,.2,0,.3,0,0,.2,0,.3-.1.4,0,.2-.2.4-.4.4-.2,0-.4,0-.6,0-.5,0-.7-.4-.9-.8-.4-.3-.8-.7-1-1.1-.2-.3-.3-.7-.3-1.1.2-.4.6-.7.6-1,0-.1.1-.2.1-.3,0-.1,0-.3.1-.4.2-.6.2-1.3,0-1.9-.1-.4-.3-.8-.5-1.2-.2-.4-.5-.6-.6-1,0-.1,0-.2-.1-.3,0-.2,0-.4.2-.5h0c.1.2.1.3.2.3M92.4,21c.2.2.4.3.6.5,0,.1.1.2.2.3.1,0,.1.2.2.3,0,.2.1.4.1.6h0c-.1,0-.2-.2-.3-.4-.1-.2-.3-.3-.4-.4-.2,0-.3-.2-.4-.3,0,0-.1-.1-.2,0-.2,0-.2.3-.3.4h0c-.3.5-.8.6-1.2.5-.2,0-.4,0-.6-.2-.3,0-.4-.3-.6-.4v-.2c0,0,0,0,0-.1,0-.2,0-.3.1-.5.4.2.9.3,1.3.3.4,0,.7,0,1-.3.1,0,.2-.1.3-.2.2.1.3.2.3.2M79.5,20.7c.2,0,.4.1.6.2.6,0,1.3.1,1.8.1,0,0,0,0,0,0h0c.4,0,.8,0,1.2.2h0c.6,0,1.2.2,1.7.4.5.1.9.3,1.4.5.2.1.4.2.6.4.4.3.7.5,1,.8,0,.1.2.2.2.3.2.2.3.4.4.5s.2.3.2.5c.1,0,0,.2.1.3,0,.1.1.1.2.2h.2c0,.5.1,1,.1,1.5,0,.8,0,1.5-.1,2.2,0,0,0,.2,0,.2,0,.4-.1.9-.2,1.3,0,.3-.1.5-.2.8,0,.4-.2.7-.3,1.1,0,.2-.1.4-.2.6,0,.1-.1.2-.2.4-.1.2-.2.4-.3.5,0,0,0,.1-.1.2-.2.3-.4.5-.5.8,0,0,0,.1,0,.2,0,0,0,.1-.1.2,0,0,0,.1-.1.2-.4.6-.8,1.1-1.3,1.5-.1.2-.3.3-.4.4h0c0,0-.1,0-.2.1-.4.4-.7.6-1,.9-.5.4-.9.9-1.4,1.3-.3.3-.7.5-1.1.6-.9.2-1.8.3-2.7.2-.4-.1-.7-.3-1-.6-.2-.2-.5-.4-.6-.7-.3-.3-.6-.5-.9-.8l-.3-.2c-.1-.1-.3-.2-.4-.3-.5-.4-.9-.8-1.3-1.2-.2,0-.2-.2-.3-.3,0-.1-.2-.2-.2-.4,0-.2-.2-.3-.2-.4,0,0,0-.1-.1-.2-.2-.3-.3-.6-.5-.9-.1-.2-.2-.5-.3-.7-.1-.2-.2-.4-.2-.6-.1-.2-.2-.4-.3-.6-.3-.8-.5-1.6-.6-2.5,0,0,0-.2,0-.2,0-.4-.1-.7-.1-1.1,0-.5,0-1,0-1.4.4-.1.7-.3.9-.6.2-.1.2-.3.4-.4.1,0,.2,0,.3,0,0,.2-.1.3-.2.4-.2.3-.4.5-.4.9,0,.1.2.2.3.2h.5c0,0,0,.1,0,.2.1.1.2,0,.3,0v.2c.6.6,1.3,1,2.1,1,0,0,.1,0,.2,0h.2c.7-.2,1.4-.4,2-.6.2-.1.4-.2.4-.4-.3-.4-.7-.6-1.1-.8-.3-.1-.5-.2-.8-.3-.5,0-1,0-1.5.1s-.9.4-1.4.6c0,0-.1,0-.1,0,0,0,0,0,.1-.1l.7-.5c0,0,.5-.3.5-.3.4-.2.8-.3,1.3-.3.2,0,.4.1.6.2,0,0,.1,0,.2,0,0-.2,0-.3-.2-.4-.3-.1-.6-.2-.9-.2-.3,0-.6.1-.8.2-.2,0-.3.1-.4.2-.3.1-.3.3-.5.4-.1.1-.4.3-.5.4-.2,0-.3.1-.5.1,0-.1.1-.2.2-.3,0,0,.1,0,0-.1.1-.1.2-.3.3-.4.2-.2.5-.4.7-.6.5-.2.9-.2,1.4-.2.7.1,1.3.2,2,.2s.8-.2,1.1-.4c0,0,0-.2.1-.2,0,0-.2-.1-.2,0h0c-.4.2-.8.3-1.2.2-.5,0-.8,0-1.1,0-.5,0-.8-.2-1.3-.1-.2,0-.5.2-.6.1,0-.5.4-.9.7-1.3.3-.2.6-.4.9-.6.2-.2.5-.3.6-.5.2-.2.4-.4.5-.6,0-.1,0-.2,0-.4h0c.4-.3.7-.5,1-.7,0,0,.1-.1.1-.2.2-.1.4-.3.5-.5.1-.1.2,0,.3,0,0,.1.2.2.3.2M78.7,20.2c0,.2-.2.3-.3.4h0c0,0,0,0,0,0h0c0,0,0,.1-.2.1,0,.1-.2.1-.3.2h0c-.2.2-.4.2-.5.4,0,0-.2.1-.3.1,0,0-.1,0-.2.1-.5.2-1.1.3-1.6.2-.2,0-.3,0-.4,0-.2-.1-.5-.2-.7-.2-.6-.1-1.1-.1-1.7,0,0,0-.2,0-.2,0-.3.2-.6.4-.8.6-.2.2-.3.4-.4.6,0,0,0,.1-.1.2s-.1.2-.2.3h0c0,0,0,0,0,0,0-.1,0-.3,0-.4,0-.3.2-.6.4-.9.3-.3.5-.5.8-.7.5-.4,1.1-.4,1.6-.5.6-.1,1.3,0,1.9-.1.4,0,.7,0,1-.1h.3c.3,0,.6,0,.8,0,.3,0,.6-.2.8-.3M61.9,20c0,.2,0,.4,0,.6-.4,0-.7.2-1,.5,0,0,0,0,0,0,.2-.2.4-.5.6-.7.2-.1.3-.3.5-.4h0ZM98.2,19.3c.3.1.5.3.6.6,0,.2.2.3.3.5.1.2.2.3.2.5q0,0,0,.1c-.3,0-.5,0-.7.2-.4.2-.7.4-.9.6-.3.3-.6.5-.9.6,0-.3-.2-.5-.2-.7,0-.3-.1-.5,0-.8,0-.3.1-.6.3-.9.1-.2.4-.3.5-.5.2,0,.5-.1.7-.2h.3ZM73.7,19.2c.2,0,.4.1.6.2.2.2.4.3.6.3.3.2.5.3.8.5h0c-.3.1-.5.2-.7.2-1,.1-2.1,0-2.9.6-.3.2-.5.4-.8.5-.3.2-.6.3-.9.5-.7.2-1.4.4-2.1.1-.4,0-.7-.2-.9-.5.3,0,.5,0,.7,0,.5,0,1-.3,1.4-.6.4-.3.8-.6,1.2-.9.5-.4,1-.7,1.6-.8.5-.1,1-.1,1.5,0h0ZM97.1,18.5c.2.1.4.2.6.2h0c-.2,0-.3.2-.4.2-.1.1-.2,0-.3.2,0,0,0-.1,0-.2-.2-.2-.3-.3-.5-.4h0c.3,0,.5,0,.7,0M87.3,18.3c.4.1.6.3,1,.4.1,0,.2.1.3.1.3.2.4.4.6.6,0,.1.1.2.1.3.1.5.2,1,0,1.5,0,.1-.1.3-.2.3-.2-.4-.6-.6-.8-1-.5-.4-1-.7-1.6-.8-.9-.3-1.8-.3-2.6-.7-.2,0-.3-.2-.4-.3,0-.2,0-.3-.2-.4h0c.6,0,1.2,0,1.8-.2.7-.2,1.3-.2,2,0M65.5,18c.4.2.7.2,1.1.3,0,0,0,0,0,0-.1.1-.2.3-.3.4-.3.4-.5.8-.6,1.3,0,.1,0,.2,0,.3-.1,0-.1.2-.1.3.1.3.5.4.7.5.1,0,.1,0,.2,0,.1.2.3.3.4.5-.4,0-.8,0-1.1-.3-.2-.2-.3-.6-.6-.7-.2,0-.5-.2-.6.1-.3.2-.2.6-.3.9h0v.3c.1.3.2.5.4.7h0c.4.4.5.8.8,1.2,0,.1.1.2.1.3.2.6.2,1.3-.1,1.9,0,.1-.2.3-.2.4-.1.2-.3.4-.4.6-.1.3-.3.4-.6.5-.4.1-.8,0-1.2-.2-.3-.3-.7-.5-.8-.9,0-.2-.1-.3,0-.5.5.1,1,0,1.3-.4.5-.3.7-.9.8-1.5,0-.7,0-1.4-.6-1.8-.3-.2-.6-.3-.9-.5-.3-.2-.5-.3-.6-.5-.2-.3-.4-.6-.4-.9s0-.3.1-.5c.2-.3.4-.5.7-.6.1,0,.2,0,.2-.1.2-.1.4,0,.5-.2,0-.1,0-.3-.1-.3-.3-.1-.5,0-.8,0-.3.2-.6.4-.8.6-.2,0-.3.2-.4.2-.4.2-.7.4-.9.6s-.1.1-.2.2c0,.2-.2.2-.3.4-.2.2-.3.3-.4.5-.3.2-.4.6-.7.8-.1.2-.2.3-.4.4-.2.1-.3.2-.5.3-.2.1-.4.2-.7.3.2-.3.4-.6.6-.9.2-.3.5-.6.7-.9.8-.9,1.7-1.6,2.7-2.2.6-.3,1.2-.7,1.9-.8.4-.1.7-.2,1-.1.5.3.7.3.9.3M80.9,17.7c0,.2.3.2.3.4.3.3.6.5.9.7.3.2.7.3,1,.3h.2c0,.2.3.3.4.4.1,0,.2.1.4.2.5.2.9.3,1.4.4.6.2,1.4.1,1.9.5.4.2.7.4.9.8.3.3.5.6.6.9.1.2,0,.4.1.5,0,.2,0,.4,0,.6h0c0,0,0,0,0,.1h0c0,.2,0,.2,0,.2-.1,0-.2-.1-.2-.2-.1-.2-.3-.4-.5-.5-.3-.4-.7-.6-1.1-.9-1.3-.8-2.8-1-4.4-1.2-.9-.1-1.8-.1-2.7-.3-.2,0-.5-.1-.6-.3,0-.2.2-.2.2-.4.2-.3.4-.6.5-.9,0,0,0-.1.1-.2q0,0,0-.1h0c0-.1.1-.2.1-.4h0c0-.2.1-.3.1-.4h0c0,0,0-.2.1-.2.1-.1.2,0,.3,0M97.4,16.3c.8.4,1.3,1.1,1.9,1.7.1.1.2.3.3.4.2.3.3.5.5.7h0c.1.2.3.4.4.6.3.4.5.7.7,1.1,0,0,0,.1.1.1.1.1.2.2.3.4.2.1.3.3.4.4.2.3.4.5.7.7h0c.4.3.8.7,1.2.9,0,0,.1.1.1.2,0,0,0,0,0,.1-.1.1-.2.3-.4.2-.3,0-.6-.2-.9-.3-.2,0-.3.1-.4.1h-.2c-.5-.2-.8-.5-1.2-.9-.4-.5-.8-1-1.1-1.6-.1-.2-.2-.4-.4-.6-.1-.3-.3-.6-.5-.8,0,0,0,0,0,0-.3-.3-.5-.6-.8-.9-.2-.2-.5-.3-.7-.4,0,0,0,0,0,0,.3-.1.5-.5.9-.6,0,0,.2-.2.1-.2s-.1-.1-.2-.1c-.3-.2-.6-.3-.8-.6-.2-.3-.4-.5-.6-.8h-.2c.3,0,.5,0,.7.2M88.2,16c0,0,0,0,0,0,.5.5.9.9,1.4,1.3.3.2.5.4.8.5h0c.7.4,1.5.5,2.3.6.3,0,.6,0,.8-.1h0c.6-.2,1.3-.2,1.9,0,0,0,.2.1.2.1.2.2.4.4.7.5,0,.1.1.3.2.4h0c-.6.6-.7,1.5-.6,2.3,0,.2.1.5.2.6q0,0,.1,0c-.4.3-.8,0-1.2,0,0,0-.1-.1-.2-.2-.3-.3-.4-.7-.8-.8-.3-.2-.6-.2-.9-.1-.3-.3-.5-.5-.8-.6-.2-.2-.4-.2-.6-.2-.2.1-.3.2-.4.4-.5.1-.9.1-1.3,0-.2,0-.4-.1-.6-.2-.1-.1,0-.3-.1-.5,0-.3-.1-.5-.2-.7-.2-.3-.3-.5-.4-.7,0-.2-.1-.4-.1-.5,0-.4-.2-.7-.3-1-.2-.4-.4-.8-.7-1-.1-.1-.2-.3-.3-.4.2,0,.4.1.5.2M79.9,15.9c.1.1.2.2.3.4h0c0,0,0,.1,0,.1h0c-.2,0-.4,0-.6.1-.7.2-1.2.9-1.7,1.4-.2.2-.4.3-.5.5-.8.6-1.7,0-2.5-.2-.4-.2-.7-.3-1-.5h-.1c.6-.5,1-1.2,1.7-1.3.5-.1,1,0,1.4.2.2,0,.4.5.6.3,0,0,.1,0,.1-.1s.1-.2.2-.2c.4-.5,1.1-.8,1.7-.7.2-.1.3,0,.4.1M74.8,15.3c.3.1.5.3.8.4-.3,0-.5.1-.7.3-.4.2-.8.5-1.1.9-.2,0-.4,0-.6,0-.4,0-.6-.2-.9-.3-.5-.3-1-.4-1.5-.5.1-.2.3-.2.4-.4.4-.2.7-.5,1.2-.4.8.1,1.4-.4,2.2-.2h.3ZM91.4,15.1s0,0,0,0c.3.1.6.2.8.2,0,0,.2,0,.2,0,.6.1,1.2,0,1.9,0,.4,0,.8.1,1.2.3.2,0,.4.2.6.3.3.2.4.3.7.5.1.3.4.4.5.6.2.3.4.5.7.6-.7.7-1.9.5-2.8.3h0c-.5-.2-1,0-1.5,0-.4.2-.9.1-1.3,0-.4,0-.8-.2-1.1-.3-.3-.1-.6-.3-.8-.4-.2-.2-.5-.3-.6-.5,0,0-.1,0-.1-.1-.3-.3-.5-.5-.8-.8-.1-.1-.2-.2-.3-.3-.1,0-.2,0-.3-.2.2-.1.4-.2.6-.2.4-.2.8-.3,1.3-.3.4-.1.9,0,1.2.1M82,14.8h0c.2.1.3.3.5.4.2.1.3.2.5.2h0c.3.1.7.2,1,.1.4,0,.8,0,1.2,0h1.1c.2.1.5,0,.7.2.3.1.5.3.7.5.1.2.3.3.4.5.2.2.3.3.5.5.2.3.3.5.4.8.1.2.1.4.2.5h0c-.6-.2-1-.5-1.6-.6-.5-.1-1-.2-1.5,0-.8.1-1.6.3-2.3.1-.7-.1-1.2-.5-1.5-1.2-.1-.2-.2-.4-.2-.6-.1-.2-.2-.5-.2-.7,0-.2,0-.4,0-.5,0-.3,0-.5,0-.7,0,.1.2.4.4.5M69,13.8c.4,0,.7.2,1.1.3.2.1.4,0,.5.2h.1c0,0,0,0,0,.1-.2.3-.4.6-.6.8-.3.3-.7.5-1,.6-.3.1-.6.2-.9.3-1.2.3-2.5,0-3.8,0-.5,0-1,0-1.5,0h0c0,0,0,0,.1,0,.3-.3.6-.6,1-.8.3-.2.6-.3.9-.5.3-.1.5-.2.7-.4.1,0,.3,0,.4-.1.3,0,.5-.1.8-.2.8-.2,1.6-.3,2.4-.2M90.1,13.6c.3.2.7.4,1,.6.3.2.6.3.9.4.4.1.8.2,1.1.2,0,0,.1,0,.2,0,.6.1,1.1.2,1.6.2.5,0,1,.1,1.5.1.6.1,1.2.3,1.7.5.4.2.7.3,1,.5.3.2.6.4.9.6.2.1.4.3.5.4.2.1.3.3.5.4.5.4.8.8,1.3,1.2.1.2.4.3.5.5.2.5.6.6.7,1.1.2.3.3.6.4,1,.1.2.2.4.2.6,0,.1,0,.2,0,.3,0,.1,0,.2,0,.4s0,.3,0,.5h0c0,0,0,.2,0,.2-.2,0-.2-.2-.3-.3-.2-.2-.5-.3-.7-.6-.1-.1-.3,0-.3-.2-.1,0-.2-.1-.3-.2-.1-.2-.3-.2-.3-.4-.2-.1-.3-.2-.4-.4-.2-.2-.3-.4-.5-.7-.1-.1-.2-.2-.3-.3,0-.2-.3-.3-.3-.5,0,0,0,0,0-.1-.2-.1-.2-.3-.3-.4,0-.2-.3-.2-.3-.4-.2-.2-.2-.5-.5-.6-.2-.3-.4-.6-.7-.8,0-.1-.1-.2-.2-.3-.2-.2-.4-.4-.6-.6-.5-.4-1-.6-1.5-.7-.2-.1-.5,0-.6-.2-.2-.1-.3-.2-.5-.2h0c-.7-.3-1.4-.4-2.2-.4-.4,0-.6,0-1,0-.3,0-.6-.1-.9-.1,0,0,0,0,0,0-.6-.2-1.1-.3-1.7-.2-.7,0-1.3.4-1.9.5-.3.1-.5.3-.8.3-.2.1-.4-.1-.5-.2-1.3-.5-2.8.3-4-.3,0,0-.1,0-.1,0-.2-.1-.4-.2-.4-.4.2,0,.4.1.6,0,.2,0,.5,0,.7-.1,0,0,.1,0,.1,0,.3-.1.7-.3,1-.4.2-.2.4-.3.7-.3.4-.2.8-.3,1.1-.4.4,0,.8,0,1.2.2.7.2,1.4,0,2-.4.1.2.4.2.5.4M90.6,13.4c.5.3,1.2.2,1.8.2,0,0,0,0,.1,0,.5,0,1,0,1.5,0h.8c.1,0,.3,0,.5,0s.3,0,.4,0c.3.1.7,0,1,.1.4,0,.7.2,1,.3.2.1.4.1.6.3.2,0,.3.1.5.2.3.1.7.3.9.5.4.3.7.5,1.1.8h0c.2.2.3.2.4.4.2.2.4.4.6.5h0c.4.3.5.7.8,1,0,.2.3.3.3.5.1,0,0,.2.2.2.1.2.2.4.2.6-.4-.3-.6-.6-1-.9-.3-.3-.5-.6-.8-.8-.2-.2-.5-.4-.7-.6-.4-.3-.8-.5-1.2-.7,0,0,0,0-.1,0h0c-.8-.4-1.5-.7-2.4-.9-.5-.1-1-.1-1.4-.2-.8-.1-1.5-.2-2.2-.3-.7,0-1.3-.2-1.9-.4-.3-.2-.6-.3-.8-.5-.2-.1-.4-.3-.5-.5h0v-.2c.3,0,.5.2.7.3M69.8,12.6c.5.1.7.6.9.9,0,0,0,0,0,.1,0,0-.1,0-.1,0h0c-.5-.1-1-.3-1.4-.4-.9-.1-1.7,0-2.6.1-.2.1-.4.1-.6.2s-.4.1-.6.2c-.5.3-.9.4-1.3.7-.1,0-.2.1-.3.2h0c.2-.3.5-.4.7-.6.7-.4,1.4-.8,2.1-1,.8-.4,1.7-.5,2.6-.4.2,0,.4.1.6.1M72.8,12.5c.3.2.6.5.9.8.2.2.3.5.4.7.1.2.1.3.2.5,0,0,0,.2.1.3-.5,0-1.1.2-1.6.3-.4,0-.8,0-1.1.1-.2,0-.4.2-.6.3,0,0-.1.1-.2.2-.2.2-.5.4-.6.6-.2,0-.2.2-.3.3,0,.1-.2.2-.3.4-.1,0,0,.2,0,.2s.1.2.3.1c.3-.2.7-.2,1-.2.6.2,1.1.5,1.7.7,0,.2,0,.4.2.5.4,0,.8.2,1.1.4.1,0,.2.1.3.2.2,0,.3.2.5.2.3.2.6.3,1,.4.1,0,.2.1.3.1.2,0,.4,0,.5.1.5,0,.9-.1,1.2-.4.1-.1.3-.2.4-.4.3-.2.4-.4.6-.6.2-.2.4-.4.6-.6.3-.2.6-.3.9-.2.1,0,.2.1.3.2,0,0,0,.1,0,.2h0c0,.1-.1.2-.1.4s-.2.3-.2.4c0,0,0,.1,0,.2,0,.1,0,.2-.1.3,0,.2-.3.3-.4.5-.1.2-.3.3-.5.4,0,0-.1.1-.2.2-.3.2-.5.3-.8.3-.4.2-.8.3-1.2.2-.5,0-1-.3-1.5-.5-.4-.2-.8-.4-1.2-.7-.2-.1-.4-.2-.6-.2-.8-.2-1.7-.2-2.5.2-.8.4-1.5,1.1-2.3,1.6-.6.4-1.3.6-1.9.4-.2,0-.3-.1-.5-.1-.2,0-.4-.2-.5-.3,0-.2.2-.5.3-.7.1-.4.3-.7.5-.9.2-.4.5-.7.8-.9.3-.2.5-.4.8-.5.2-.2.5-.3.7-.3.2,0,.3,0,.4,0,.1,0,0-.2,0-.3,0-.1-.1-.1-.2-.2-.3,0-.6,0-.8.2-.3,0-.4.2-.6.3-.3.3-.7.2-.9.5-.2.1-.4.2-.7.3-.5-.1-.9-.3-1.4-.3-.4-.2-.8,0-1.2,0-.4.2-.8.1-1.2.4-.6.3-1.1.6-1.6.9-.3.2-.5.3-.7.5,0,0,0,0-.1,0-.7.5-1.2,1-1.7,1.7-.3.3-.5.5-.6.8h0c0-.2,0-.4.2-.6,0-.3.2-.5.3-.8,0,0,0-.1.1-.2,0-.3.3-.4.4-.6.1-.1.2-.2.3-.3,0,0,0,0,0-.1.3-.4.6-.8,1-1.1.3-.3.7-.5,1-.7.2-.2.5-.3.7-.5s.4-.3.7-.3c.4-.1.7-.2,1.1-.2.7,0,1.3,0,1.9,0,.1,0,.2,0,.3,0,.7.1,1.4.2,2,.1.6,0,1.1-.2,1.7-.4.3-.1.6-.3.9-.5.4-.3.6-.7.8-1.1,0-.2.2-.3.1-.5s.2-.4,0-.6c0-.2,0-.3-.1-.4,0,0-.1-.2-.2-.2,0,0,0-.1,0-.2.4,0,.4-.5.7-.6.4,0,.8,0,1.1.2v-.2ZM93.1,11.9s0,0,0,0c.2,0,.3.1.4.1.5.3,1,.5,1.4.9,0,.1.2.1.2.2-.7.1-1.5,0-2.2,0-.6,0-1.2.1-1.8,0-.2-.1-.3-.1-.4-.2-.2,0-.4-.2-.4-.4,0,0-.1-.2-.1-.3.6-.2,1.1-.3,1.7-.4.4,0,.8,0,1.2,0M92.2,10.7c.5,0,.7.4,1,.7h0c-.4.2-.7,0-1.1,0-.5,0-1,.2-1.5.3h0c-.3,0-.6.2-.9.2-.1,0-.2,0-.2.1,0,.2.1.2.1.4s0,.2,0,.2c-.2.2-.4.3-.6.4-.2.1-.4.2-.7.2,0,0,0,0-.1,0s-.2,0-.3,0h0c-.5,0-.9-.3-1.4-.2-.8.1-1.6.4-2.4.7,0,0-.1,0-.2,0,0,0,0-.1.1-.2.4-.4.7-.7,1-1.1,0,0,.2-.1.2-.2,0,0,.1-.1.2-.2,0,0,.1-.1.1-.1.3-.3.6-.5,1-.7.2,0,.4-.1.5-.1.2-.1.4,0,.6,0,.8.1,1.5,0,2.2-.4.3-.2.7-.3,1-.4.1,0,.3-.1.4-.1.4,0,.6,0,.8.2M76,10.2c.2,0,.4,0,.6.1,0,0,0,0,0,0,.5,0,.8.6,1,1,0,.4.4.5.6.8.2.2.5.1.7.2,0,0,0,0,0,.1-.3.2-.6.5-.9.4-.3-.1-.7-.3-.8-.5,0-.3-.4-.4-.6-.4-.2-.1-.5-.3-.6-.4s-.3-.4-.3-.6-.1-.5,0-.7c0-.1.1,0,.2,0,.1,0,.2,0,.3,0M75,10h0c0,0,0,0,0,.1h-.2c0-.2-.1-.2-.2-.2.2,0,.3-.1.5-.2v.3ZM83.8,9.8c.2.2.4.4.5.6,0,.1.1.3.1.4h0c0,.5-.1.9-.1,1.2h0c0,.1,0,.3,0,.4s0,.1,0,.2c0,.2,0,.3-.2.4-.1.1-.2.2-.2.4,0,.2-.2.3-.3.4-.2.2-.4.4-.6.5-.4,0-.7,0-1-.2-.1,0-.2-.1-.2-.2,0-.1-.1-.2,0-.3,0,0,0,0,0-.2.2-.2.2-.4.4-.6.2-.4.3-.7.4-1.1,0-.3.1-.5.2-.8,0-.5,0-1-.1-1.4,0-.1-.1-.3-.1-.4.2-.1.4,0,.6.1.3.2.5.4.7.5M72.4,9.3c.3.3.7.5,1,.7.2.1.4.2.6.3h0c.2.1.3.2.5.2.2.1.4.2.6.3,0,.3.2.6.3.8h0c.2.3.3.4.5.6l.4.3c0,0,.1,0,.2,0,.1,0,.2,0,.3,0,0,.1.1.2.2.3.1.2.3.3.5.4.5.3,1.1.4,1.5,0,.2-.1.4-.3.5-.4h.1c.2.1.5.2.5.4.2.3.4.5.7.7.3,0,.6,0,.8,0s0,0,0,.1c0,0,0,0,0,.2h0v.2c0,0,0,.1,0,.2,0,.7,0,1.4.2,2.1,0,.3.2.5.3.8.1.3.3.5.5.7.3.4.8.5,1.3.7h0c0,.1,0,.2,0,.3-.3,0-.7-.2-1-.3-.1-.1-.3-.2-.4-.3-.2-.2-.4-.3-.6-.5-.2-.1-.2-.3-.3-.3-.2-.2-.3-.4-.3-.6h0c0-.3,0-.5-.1-.7-.1-.3-.4-.6-.7-.8-.6-.3-1.2-.3-1.8,0,0,0-.1,0-.2.1-.3.1-.5.3-.6.5-.1.1-.2.1-.3,0-.3-.1-.6-.2-.8-.3-.1-.2-.3-.3-.5-.4-.4-.3-.8-.4-1.2-.6,0-.3-.1-.5-.2-.8,0-.2-.1-.3-.2-.4-.3-.6-.7-1-1.2-1.4-.2-.1-.4-.2-.6-.3-.6-.2-1.1-.2-1.6.2,0,.1-.2.1-.2.2,0,.1-.2.2-.2.3-.1,0-.1,0-.2-.1-.3-.2-.5-.3-.8-.4,0,0,0,0,0-.1h0c.4-.4.9-.7,1.4-.8.1,0,.2-.2.2-.3,0-.1,0-.2-.1-.3,0-.2,0-.5,0-.7h0c.1-.4.3-.7.6-.9,0-.1.2-.2.3-.3.2.1.2.4.4.5M88.7,8.9c.3.2.5.5.8.6.4.3.7.5,1.1.7h0c-.4.2-.7.4-1.1.5-.5.2-1.1.3-1.6.2-.2,0-.3,0-.4,0-.3,0-.5,0-.7.2-.5.2-1,.5-1.3.9h0c-.2.2-.4.3-.5.4,0,0-.1.1-.2.1-.1,0,0-.2,0-.3,0-.5.2-1,.2-1.5,0-.1,0-.2,0-.3,0-.3.1-.6.2-.8,0-.4.2-.7.5-1,.2-.2.5-.4.7-.4.7-.2,1.3.2,1.9.5l.5.4ZM80.9,7.3h0c0,.1,0,.1,0,.2s0,0,0,.1c-.1.2-.2.4-.2.6s.1.4.2.6c.3.3.6.5.9.6,0,0,0,0,.1,0,.1.1,0,.3.1.4,0,.2,0,.4.1.5,0,.4,0,.8-.1,1.2,0,.2,0,.3-.1.4h0c0,0,0,.1,0,.2h0c0,.1,0,.2,0,.2s0,.1,0,.2c0,.1-.1.2-.2.3,0,0,0,.1-.1.2,0,0,0,0,0,.1h0c-.2.3-.6.2-.8.2-.2,0-.3-.2-.4-.3h0c0-.1-.1-.2-.2-.3h0c0-.1-.1-.2-.2-.3,0,0,0,0,0-.1-.2-.3-.5-.5-.8-.6h0c-.2-.1-.6,0-.7-.2,0-.1-.2-.1-.3-.2h0l-.2-.3c-.1-.3-.2-.5-.4-.7-.4-.4-.9-.6-1.5-.7-.2,0-.3-.1-.4-.3.7-.4,1.3-.9,2-1.3,0,0,0,0,.1,0,.3-.2.6-.3.9-.5.8-.3,1.6-.4,2.3-.2M83.1,6.4c.7.8,1.9.4,2.5,1.4,0,0,0,0,0,0h0c-.3.2-.5.5-.6.7,0,.1-.1.3-.1.4,0,0,0,0,0,.1,0,0,0,.1,0,.2s0,0,0,0c0,0,0,.1,0,.2,0,.1,0,.2-.1.3,0,0,0,0,0,.1-.1,0-.2-.1-.2-.1-.5-.5-1.1-.8-1.7-.9h-.8c0,0-.1,0-.2,0-.2,0-.3-.2-.4-.4,0-.4.2-.8.5-.9.4-.2.7-.5,1-.8,0-.1.1-.2.2-.3.1-.2.2,0,.3,0M82.8,5.1c-.1,0-.3,0-.3.1-.1.3,0,.5-.2.7-.1.2-.2.4-.3.5-.2.3-.5.5-.8.5-.3-.1-.5-.2-.8-.3h-.4c-.6,0-1.2.2-1.7.4-.4.2-.8.4-1.2.7-.3.3-.7.5-1.1.7-.3.2-.4.3-.6.4-.6.5-1.3.7-2,.6-.3,0-.6-.2-.8-.4,0,0-.1-.1-.1-.1-.2-.1-.3-.4-.4-.6-.1,0,0-.2-.2-.3s-.2,0-.3,0c-.4.4-.8.6-1,1.1-.3.4-.4.9-.3,1.4-.2.2-.4.2-.6.4-.1.1-.3.2-.5.4-.2.2-.4.4-.5.6,0,0,0,0,0,.1-.4,0-.9,0-1.3,0-.6.1-1.2.3-1.7.6s-1.1.5-1.6.8c-.3.2-.5.3-.7.5-.3.2-.6.5-.9.7-.2.2-.4.4-.5.6,0,.2-.2.4,0,.5-.1.2-.4.4-.4.6-.8.4-1.4.8-2,1.3s-1.2,1.1-1.6,1.8h0c-.1,0,0,.2-.2.2,0,0,0,.1-.1.2-.2.3-.3.6-.4,1,0,.1-.1.2-.2.4,0,0,0,.1,0,.2v.3c0,0,0,.2-.1.2,0,0-.1.2,0,.3,0,.2,0,.4.1.5,0,.2-.2.2-.2.4,0,.1-.2.3-.3.4,0,.2.1.4.2.5.3,0,.6,0,.8-.1.4-.1.7-.3,1-.4h0c0,.4.3.8.6,1.1.2.1.5.2.7.2.2.1.4-.1.6-.2,0,0,0,0,0,0h0c0,.4.1.9.4,1.2.3.2.5.4.8.5,0,.2,0,.5,0,.7,0,.1,0,.3.2.4.3.5.8.9,1.3,1.2.4.2.8.2,1.1,0q0,0,.1,0c0,.3.2.6.3.9,0,.1.2.2.2.3.1.2.2.3.3.5.2.2.4.3.6.6.1.4.4.7.8.8,0,0,.2,0,.2.2-.1.2-.1.3-.2.5,0,.3,0,.7.1,1,0,.1,0,.2.1.3h0c0,.3.3.4.4.6.1.3.3.5.4.6.2,0,.3.2.5.2v.2c0,.2.1.4.2.6,0,.2.1.3.2.4,0,.2.2.3.3.4-.1.2-.2.3-.2.5-.1.4-.2.8,0,1.2,0,0,0,.1.1.2.2.5.6.8,1,1,.1.2.2.3.2.5,0,.3,0,.7-.1,1h0c0,.2,0,.4-.1.6h0c0,.4,0,.6-.1.8v.2c0,.4,0,.7,0,1,0,.3.1.7.2,1,.2.4.5.8.8,1.1h0c0,0,.1.1.2.2s0,0,0,0c.4.3.8.5,1.2.7.3.1.5.2.8.2.5,0,.9,0,1.4,0,1.3-.3,2.1-1.2,3.3-1.7.4-.2.8-.3,1.2-.3.1.1.1.3.2.3.2.3.4.5.7.6.3,0,.5.1.7.1s.6,0,.9-.2c.2,0,.2-.2.4-.3.3.2.6.3,1,.3.2,0,.4.1.5,0,.4-.1.6-.4.8-.7,0-.1.2,0,.2,0,0,0,.2,0,.2.1.3.3.6.6,1,.8l.5.3c.2,0,.4.2.5.2.3.1.5.2.7.2,0,0,0,0,0,0,.2,0,.3,0,.5.1.2,0,.5,0,.7,0h.3c.3,0,.5-.1.8-.1.2,0,.4-.1.6-.2.5-.2.9-.5,1.2-.9.2,0,.2-.4.4-.5,0-.3.2-.5.4-.7h0c0-.2,0-.3.1-.4,0-.2.1-.4.2-.6.1-.5.2-1.1.2-1.6,0-.2,0-.5,0-.7s0-.3,0-.4c0-.2,0-.3,0-.5s.1-.3.2-.4c0-.1.1-.2.1-.2.2-.3.3-.6.5-.8,0-.1.1-.2.1-.3.1-.2.2-.3.2-.5s0-.2,0-.2c0-.3,0-.5,0-.8,0-.3-.2-.5-.2-.7.2-.2.3-.5.3-.7s0-.4,0-.6c0-.2.2-.2.2-.3.1-.4.2-.7,0-1.1,0-.2-.1-.3,0-.4.2,0,.3,0,.4,0,.4,0,.7,0,1,0,.2-.1.3,0,.5,0s.3.1.5,0c.1,0,.1-.2.1-.3-.3-.2-.3-.4-.5-.6-.2-.4.1-.7.2-1,0,0,0,0,0-.1.2-.3.3-.5.4-.8,0,0,0-.1,0-.2.1-.2.2-.4.3-.6,0-.2.1-.4.2-.6.1-.3.1-.6,0-.9,0-.3-.1-.6-.2-.8,0,0,0-.1,0-.2,0,0,.1,0,.2,0,.5,0,.8-.4,1.1-.7q0,0,0,0c0-.1.1-.2.2-.4,0-.2.2-.3.3-.4.2-.4.3-.8.3-1.2,0-.1.2-.1.2-.2h.2c0,0,.1,0,.2,0,.3.2.5.6.9.5.3,0,.5-.2.6-.4,0-.1.2-.2.2-.3s0-.2.1-.2c0,0,.2.2.2.3.3.3.6.5.9.7.2.1.4,0,.5.2.2,0,.4,0,.5-.1.1.2.3.2.4.3.1,0,.2,0,.3.1.2,0,.4,0,.5-.1,0-.1.2-.1.3-.2.1,0,0-.2.2-.2,0,.1.2.2.3.2,0,0,.1,0,.2,0-.1-.4-.2-.8-.2-1.2,0-.4-.1-.7-.2-1-.1-.1,0-.3-.1-.4,0-.3-.3-.6-.3-.8-.2-.5-.4-.9-.7-1.3h0c0-.4,0-.7-.2-1,0,0,0-.1-.1-.2,0,0,0-.1,0-.2s0-.1-.1-.2c-.2-.3-.3-.6-.6-.8-.3-.4-.6-.7-.9-1,0,0-.2-.1-.2-.2h0c-.4-.4-.8-.7-1.2-.9h0c-.1,0-.2-.1-.3-.2-.3-.2-.5-.3-.7-.4-.5-.2-1-.5-1.5-.7h0c-.3-.1-.6-.2-1-.3-.3,0-.5-.2-.8-.3-.2-.1-.4-.2-.6-.4-.2-.2-.4-.3-.6-.5-.2-.1-.3-.2-.5-.4-.6-.4-1-1.1-1.6-1.5-.4-.1-.8-.4-1.2-.3-.6-.3-1.1-.6-1.6-.9-.2-.2-.4-.3-.5-.4-.7-.8-1.6-1.2-2.6-1.2-.2,0-.3,0-.5,0-.5-.8-1.4-.9-2.1-1.1-.4-.2-.6-.5-.8-.9,0-.1,0-.2-.1-.3-.4-.4-.4-.5-.5-.5M98.3,8.9c-3.9-3.9-9.2-6.5-14.7-7-8.8-.9-16.7,2.6-22.2,9.4-3.6,4.6-5.5,10.2-5.3,15.9h.5c-.1-4,.8-7.9,2.6-11.5,3.5-7.3,11.2-12.6,19.2-13.4.9-.1,1.9-.1,2.7-.2,13.4.2,24.2,11.1,24.1,24.6v.5h.5c.2-6.8-2.5-13.5-7.3-18.3M80.4,5.8h0c0-.4,0-.7,0-.9.6,0,1.2,0,1.8,0,0,0,.2,0,.1-.1,0-.6.1-1.2,0-1.7-1.4-.1-2.7,0-4,0h0c0,1,.3,1.9.3,2.8-.5.1-1.1.2-1.6.3-.4,0-.8.2-1.2.2l-.2-.9c.3-.1.5-.2.8-.2.4-.1.8-.1,1.1-.3-.2-.6-.2-1.2-.3-1.7-1.3.2-2.6.6-3.9,1,.3.9.6,1.7.9,2.6-.9.4-1.7.7-2.6,1.1-.2-.3-.3-.5-.4-.8.6-.3,1.2-.6,1.8-.9h0c-.2-.6-.4-1.2-.7-1.7-1.3.6-2.6,1.2-3.8,1.9h0c.5.8.9,1.6,1.4,2.3-.9.6-1.7,1.2-2.5,1.8-.2-.3-.4-.4-.6-.7h0c.5-.5,1.1-1,1.7-1.4h0c0-.1-1-1.5-1-1.5h-.1c-1.3.9-2.4,1.9-3.5,3,.7.8,1.3,1.3,1.9,1.9l-.3.3c-.3.3-.5.5-.7.8.3-.1.6-.2.8-.3.3-.3.5-.6.7-.8-.6-.6-1.3-1.3-1.9-1.9.8-.9,1.8-1.7,2.8-2.4.2.2.4.5.5.7-.2.2-.5.4-.7.6-.4.3-.8.6-1.1,1,.4.5.8.9,1.2,1.3l.4-.3c.9-.7,1.8-1.4,2.7-2-.5-.8-1-1.6-1.4-2.3.9-.6,1.9-1.1,2.9-1.5.2.3.3.6.4.9-.6.3-1.2.6-1.9.9.3.6.6,1.1.9,1.6,1.1-.6,2.2-1.1,3.3-1.4-.2-.9-.5-1.7-.8-2.5v-.2c1-.4,1.9-.6,2.9-.7.1.3.2.6.2.9-.6.2-1.2.3-1.8.4h-.1c.2.6.3,1.2.5,1.8,1.1-.3,2.2-.5,3.3-.6h.1c-.1-1-.2-1.9-.3-2.7h0c1-.2,2-.2,3-.1h0c0,.4,0,.7,0,1-.7,0-1.3,0-2,0,0,.6,0,1.2.1,1.8.8,0,1.7,0,2.6,0,0-.2.1-.3.1-.4-.7-.2-1.4-.2-2.1-.2M78.5,7.2c-2.1.3-4.2.9-6.1,1.8.2.1.3.3.4.3l.6-.3c1.4-.6,2.8-1.1,4.3-1.3.1-.4.6-.4.9-.6M70.9,9.8c-1.1.7-2.1,1.4-3.1,2.3.2,0,.4,0,.6.1.3-.2.5-.4.7-.6.6-.5,1.2-.9,1.8-1.2-.1-.2,0-.4,0-.6M63.1,14.6h0c.1-.2.2-.3.4-.3h0c-.2.1-.3.2-.4.3M63.1,11.9h.1c.3.2.5.4.6.6-.5.6-.9,1.2-1.3,1.8h0c.2.2.4.3.6.4.1-.2.3-.3.4-.3l-.3-.2h0c.4-.7.9-1.2,1.3-1.8-.4-.4-.9-.8-1.3-1.1h0c-.8.9-1.5,1.8-2.1,2.7-.2.4-.4.7-.6,1.1.6.4,1.2.7,1.8,1,.1-.1.2-.2.3-.3l-1.5-.9c.5-1,1.2-2,2-2.9M59.9,16.1h0c-.6,1.1-1,2.2-1.4,3.3.2-.3.5-.6.7-.8.3-.6.5-1.3.8-1.9.1,0,.2,0,.3,0,.1.1.3.1.5.2.2-.2.4-.2.6-.3-.5-.2-1-.4-1.4-.7M60.1,24.4c-.3,0-.6,0-.9-.1,0-.4.1-.8.2-1.2,0-.2-.2-.4-.2-.6,0,0-.1,0-.2.1-.2.7-.2,1.4-.3,2.1h1.2c.2.2.4.2.6.1,0-.4.1-.8.2-1.1-.2,0-.3.1-.5.1,0,.2,0,.4-.1.6M57.8,24.6c0-.5.1-1.1.2-1.6-.2,0-.3,0-.5,0-.2,1.1-.3,2.2-.3,3.3s.1,0,.2.1h2.6c0,0,0,.8,0,.8h.5v-1.2c-.9,0-1.8,0-2.7-.1,0-.5,0-1,0-1.4M104.2,26.6h-2.6c0,0,0-.8,0-.8h-.4v1.2c.9,0,1.8,0,2.7.1,0,.5,0,1,0,1.4,0,.8-.2,1.5-.4,2.3-.3,0-.6-.1-.9-.2,0-.8.3-1.5.3-2.2h-1.2c-.2-.2-.4-.2-.6-.1-.2,1.3-.4,2.6-.8,3.9l2.6.8c-.3,1.2-.8,2.3-1.3,3.3-.1,0-.2,0-.3,0-.2-.1-.4-.1-.5-.3.3-.7.6-1.3.8-1.9-.6-.2-1.1-.4-1.7-.6h0c-.5,1.2-1,2.4-1.6,3.4h0c0,.1,2.3,1.5,2.3,1.5-.6,1.1-1.3,2-2,2.9h0c-.3-.2-.5-.4-.6-.6.5-.6.9-1.2,1.3-1.8h0c-.5-.4-1-.7-1.4-1h-.1c-.8,1.1-1.6,2.1-2.5,3,.6.6,1.3,1.3,1.9,1.9-.8.9-1.8,1.7-2.8,2.4-.2-.2-.4-.5-.5-.7.2-.2.5-.4.7-.6.4-.3.8-.6,1.1-1-.4-.5-.8-.9-1.2-1.3l-.4.3c-.9.7-1.8,1.4-2.8,2,.5.8,1,1.6,1.4,2.3-.9.6-1.9,1.1-2.9,1.5-.2-.3-.3-.6-.4-.9.6-.3,1.2-.6,1.9-.9-.3-.6-.6-1.1-.9-1.6-1.1.6-2.2,1.1-3.3,1.4.2.9.5,1.7.8,2.5v.2c-1,.4-1.9.6-2.9.7-.1-.3-.2-.6-.2-.9.6-.2,1.2-.3,1.8-.4h.1c-.2-.6-.3-1.2-.5-1.8-1.1.3-2.2.5-3.3.6h-.1c.1,1,.2,1.9.3,2.7h0c-1,.2-2,.2-3,.1h0c0-.4,0-.7,0-1,.7,0,1.3,0,2,0,0-.6,0-1.2-.1-1.8-1.1,0-2.3,0-3.4-.1-.2.9-.3,1.8-.4,2.7-1.1-.1-2.1-.3-3.1-.6,0-.3.2-.6.3-.9.7.2,1.3.3,2,.5h0c0-.7.2-1.3.3-1.9-.6-.1-1.1-.2-1.7-.4-.6-.2-1.2-.4-1.8-.5h0c0,0-.9,2.5-.9,2.5h0c-.8-.2-1.5-.6-2.3-.9-.3-.1-.5-.3-.7-.4l.4-.8c.7.3,1.3.6,1.9.9.3-.6.5-1.1.7-1.7-1.1-.5-2.1-1-3.1-1.6h0c-.4.8-.9,1.5-1.4,2.3h-.1c-.9-.6-1.7-1.2-2.5-1.9h0c.2-.3.4-.6.6-.8l1.6,1.2c.4-.5.7-1,1.1-1.5h-.1c-1-.8-1.9-1.5-2.7-2.4-.7.6-1.3,1.2-1.9,1.9h-.1c-.8-.8-1.6-1.7-2.2-2.7.2-.2.5-.4.8-.5.4.6.9,1.2,1.4,1.7l1.4-1.2c-.8-1-1.6-2-2.2-3.1h0c0,0-2.3,1.3-2.3,1.3h-.1c-.3-.4-.5-.9-.8-1.3-.4-.6-.6-1.3-.8-1.9l.8-.3c.3.7.6,1.4.9,2h0l1.6-.8h0c-.6-1.2-1.1-2.4-1.4-3.7-.2-.1-.3,0-.5,0-.8.2-1.5.5-2.2.6-.4-1.3-.6-2.5-.8-3.8.3-.1.6-.1.9-.1.2.8.3,1.7.4,2.5.6-.2,1.2-.3,1.7-.4h0c-.3-1.4-.5-2.7-.5-4.1l-.4.5c0,1.1.2,2.2.4,3.2-.3.1-.6.2-.9.2l-.2-.3c-.2-.8-.3-1.5-.4-2.3-.6,0-1.2,0-1.8.1.1,1.7.5,3.3,1,5,.9-.3,1.7-.5,2.6-.8.4,1,.7,2,1.2,3-.3.1-.6.4-.9.4-.3-.6-.6-1.3-.9-1.9-.4.1-.9.3-1.3.4-.1.1-.3.1-.4.2.5,1.5,1.1,2.8,2,4.1.8-.5,1.6-.9,2.3-1.4h0c.5.9,1.1,1.8,1.8,2.5l-.7.6h0c-.5-.5-.9-1.2-1.3-1.6l-1.3.9h0c.9,1.3,1.8,2.5,2.9,3.5l1.9-1.9c.7.7,1.5,1.3,2.2,1.9l-.5.7h-.1c-.5-.4-1-.8-1.4-1.2h-.1l-1.1,1.2h0c1.1,1,2.2,1.9,3.4,2.6.5-.8.9-1.6,1.5-2.3.8.5,1.6.9,2.4,1.3l-.3.7c0,0,0,.2-.2.2-.6-.3-1.2-.6-1.8-.9-.3.5-.6,1.1-.9,1.6h0c1.3.8,2.5,1.3,3.9,1.7.3-.9.6-1.7.9-2.6.7.2,1.3.4,2,.6.3.1.5.1.8.2,0,.3-.1.6-.2.9-.3,0-.6-.1-.9-.2-.4,0-.8-.2-1.2-.3-.2.6-.3,1.1-.5,1.7,1.2.4,2.5.6,3.7.8.2,0,.2,0,.4,0,.2-.9.2-1.8.3-2.7.9,0,1.7.1,2.6.1h0c0,.4,0,.7,0,1-.6,0-1.2,0-1.8,0,0,0-.2,0-.2.1,0,.6-.1,1.2,0,1.7,1.4.1,2.7,0,4,0h0c0-1-.3-1.9-.3-2.8.5-.1,1.1-.2,1.6-.3.4,0,.8-.2,1.2-.2l.2.9c-.3.1-.5.2-.8.2-.4.1-.8.1-1.1.3.2.6.2,1.2.3,1.7,1.3-.2,2.6-.6,3.9-1-.3-.9-.6-1.7-.9-2.6.9-.4,1.7-.7,2.6-1.1.2.3.3.5.4.8-.6.4-1.2.7-1.9.9h0c.2.5.4,1,.7,1.5,1.3-.6,2.6-1.2,3.8-1.9h0c-.5-.8-.9-1.6-1.4-2.4.9-.6,1.7-1.2,2.5-1.8.2.2.4.4.6.7h0c-.6.5-1.1,1-1.7,1.4h0c0,.1.9,1.5.9,1.5h.1c1.3-.9,2.4-1.9,3.5-3-.7-.8-1.3-1.3-1.9-1.9l.3-.3c.6-.7,1.2-1.5,1.8-2.2l.7.5h0c-.4.7-.9,1.2-1.3,1.8.4.4.9.8,1.3,1.1h0c.8-.9,1.5-1.8,2.1-2.7.2-.4.4-.7.6-1.1-.8-.5-1.6-.9-2.3-1.3.5-.9.9-1.8,1.3-2.8.3,0,.6.2.9.4-.2.7-.6,1.3-.8,1.9l1.5.8h0c.7-1.4,1.2-2.8,1.7-4.3h0c-.6-.3-1.2-.4-1.8-.6-.3-.1-.6-.1-.8-.3.3-1,.5-2.1.6-3.1.3,0,.6,0,.9.1,0,.6-.1,1.1-.3,1.7,0,.2-.2.4,0,.5.6.1,1.2.2,1.7.4h0c.3-1.6.5-3.1.6-4.7,0-.1,0-.1-.1-.1M105.5,25.8h-.5c.1,4-.8,7.9-2.6,11.5-3.5,7.3-11.2,12.6-19.2,13.4-.9.1-1.9.2-2.7.2-13.4-.2-24.2-11.1-24.1-24.6v-.5h-.5c-.2,6.9,2.5,13.5,7.3,18.3,3.9,3.9,9.2,6.4,14.7,7,8.8.9,16.7-2.6,22.1-9.4,3.6-4.6,5.5-10.2,5.4-15.9M86.4,44.7c-3.6,1.1-7.4,1.1-11.1,0-.3,0-.5.2-.7.3.5.2,1,.3,1.5.4,3.6.9,7.4.7,10.9-.5-.2-.1-.4-.2-.6-.3M61.8,25.4l-.5-.3c-.2,2.9.3,5.8,1.3,8.4,1.3,3.6,4,6.9,7.3,9.1,0-.2-.1-.4-.2-.6-5.1-3.7-8.4-10-8-16.7M100.3,25.8h-.5c.2,6.1-2.5,11.8-7.3,15.6-.5.4-.9.7-1.3,1,0,.2-.1.4-.2.7,1.9-1.2,3.6-2.7,5-4.5,2.8-3.7,4.3-8.2,4.2-12.7M96.7,13.2l.7-.6h0c.5.5.9,1.2,1.3,1.6l1.4-.9h0c-.9-1.3-1.8-2.5-2.9-3.5l-1.9,1.9c-.7-.7-1.5-1.3-2.2-1.9l.5-.7h.1c.5.4,1,.8,1.4,1.2h.2l1.1-1.2h0c-1.1-1-2.2-1.9-3.4-2.6-.5.8-.9,1.6-1.5,2.3-.8-.5-1.6-.9-2.4-1.3l.3-.7c0,0,0-.2.2-.2.6.3,1.2.6,1.8.9.3-.5.6-1.1.9-1.6h0c-1.2-.7-2.5-1.3-3.8-1.7-.3.9-.6,1.7-.9,2.6-.7-.2-1.3-.4-2-.6-.3-.1-.5-.1-.8-.2,0-.3.1-.6.2-.9.3,0,.6.1.9.2.4,0,.8.2,1.2.3.2-.6.3-1.1.5-1.7-1.2-.4-2.5-.6-3.7-.8-.2,0-.2,0-.4,0-.2.8-.2,1.8-.3,2.6.1.2.2.4.4.5.2-.9.3-1.8.4-2.7,1.1.1,2.1.3,3.1.6,0,.3-.2.6-.3.9-.7-.2-1.3-.3-2-.5l-.3.2c0,.6-.2,1.2-.3,1.8.6.1,1.1.2,1.7.4s1.2.4,1.8.5h0c0,0,.9-2.5.9-2.5h0c.8.2,1.5.6,2.3.9.3.1.5.3.7.4l-.4.8c-.7-.3-1.3-.6-1.9-.9-.3.6-.5,1.1-.7,1.7,1.1.5,2.1,1,3.1,1.6h0c.4-.8.9-1.5,1.4-2.3h.1c.9.6,1.7,1.2,2.5,1.9h0c-.2.4-.4.6-.6.8-.6-.4-1.1-.8-1.6-1.2-.4.5-.7,1-1.1,1.5h.1c1,.8,1.9,1.5,2.7,2.4.7-.6,1.3-1.2,1.9-1.9h.1c.8.8,1.6,1.7,2.2,2.7-.2.2-.5.4-.8.5-.4-.6-.9-1.2-1.4-1.7l-1.3,1.2.2.2c.2.1.5.1.7.2-.1-.1-.2-.3-.3-.4M100.9,14.3c-.4.2-.7.4-1,.6.1.1.2.2.4.3l.5-.3h.1c.3.4.5.9.8,1.3,0,0,0,0,0,.1.4.4.7.8,1,1.3-.5-1.2-1-2.3-1.7-3.3M104.1,23.2c-.1.2-.3.3-.4.5,0,.2,0,.3,0,.5-.3.1-.6.1-.9.1,0-.2,0-.4-.1-.6-.2,0-.3,0-.4,0,0,.4.1.8.1,1.1.6,0,1.2,0,1.8-.1,0-.5-.1-.9-.2-1.4M100.8,23c.2,1.1.3,2.2.4,3.3l.4-.5c0-.8-.1-1.6-.2-2.4-.3-.2-.4-.3-.6-.5M100,23.2c-.2,0-.3.2-.4.2.2,1.3.3,2.6.3,3.8h.4c0-1.3,0-2.7-.3-4M89,8.8c.3.3.4.5.6.8.5.3.9.5,1.4.8.2,0,.4-.1.6-.1-.9-.6-1.7-1-2.6-1.4M94,8.7h0ZM67.6,44.3h0Z"/>
  <polygon class="st0" points="67.8 88 66.6 88 66.6 91.2 62.7 91.2 62.7 88 61.4 88 61.4 95.6 62.7 95.6 62.7 92.4 66.6 92.4 66.6 95.6 68 95.6 68 88 67.8 88"/>
  <path class="st0" d="M72.4,91.8c0-1.5,1.2-2.8,2.7-2.8,1.5,0,2.8,1.2,2.8,2.7,0,1.5-1.2,2.8-2.7,2.8h0c-1.5,0-2.7-1.1-2.8-2.6v-.2M71,91.8c0,2.2,1.8,3.9,4,3.9s4.1-2,4.1-3.9-1.7-3.9-4.1-3.9c-2.4,0-4.1,1.7-4.1,3.9"/>
  <path class="st0" d="M89.4,88h-1.1l-2.4,3-2.4-3h-1.2v7.6h1.3v-5.6l2.1,2.7h.3l2.1-2.7v5.6h1.3v-7.6h-.1Z"/>
  <polygon class="st0" points="98 88 93.6 88 93.6 95.6 98.2 95.6 98.2 94.5 94.9 94.5 94.9 92.3 98 92.3 98 91.2 94.9 91.2 94.9 89.1 98.1 89.1 98.1 88 98 88"/>
  <path class="st0" d="M80.8,82.7c4.5,0,7.9-2.3,7.9-6.4,0-3.6-3.8-4.7-7.2-5.4-2.8-.6-5.4-1.6-5.4-4v-.2c.2-1.9,2.3-2.9,4.4-2.9s3.4.8,4.8,2.4l2.1-1.6c-3-2.1-4.6-2.1-6.8-2.1s-3.3.4-4.8,1.2c-1.6.9-2.8,2.3-2.8,4.7h0c0,4.3,4.9,5,6.5,5.4,1.9.4,5.6,1.2,5.6,4.4,0,2.1-2.4,3.2-4.3,3.2h0c-1.7,0-4.2-.4-6-2.8l-2.2,1.7c1.8,1.6,3.9,2.5,8.3,2.5"/>
  <polygon class="st0" points="27.5 82.2 40.3 82.2 40.3 81 31.3 81 31.3 73.2 31.3 72.9 38.6 72.9 38.6 71.8 31.3 71.8 31.3 64.1 40.3 64.1 40.3 62.8 27.5 62.8 27.5 82.2"/>
  <path class="st0" d="M120.1,72.6c0,7.3,3.7,10.1,9.7,10.1,4.4,0,6.5-1.1,7.5-2.5.5-.7.8-1.4.8-2.2h-2.6c-.2,2.2-2.1,3.9-4.6,4-1.5,0-3.2-.3-4.6-1.5s-2.2-3.6-2.2-7.6.9-6.7,2.1-8.1c1.2-1.4,2.7-1.6,3.9-1.6,2.5-.1,4.7,1.9,4.8,4.4v.3h3.3c-.2-2.8-1.9-5.3-8.1-5.3-6.3,0-9.9,2.6-10,10"/>
  <polygon class="st0" points="1.9 62.8 8.8 82.2 12.4 82.2 19.6 62.8 17.7 62.8 11.7 79.6 11.5 80.3 5.8 62.8 1.9 62.8"/>
  <path class="st0" d="M55,72.9h-2.6v-9.1h3.1c3.1,0,5.1,2,5.1,4.3,0,2.4-2.1,4.8-5.6,4.8M56.3,73.7l5.2,8.5h3.9l-5.3-8.6-.2-.3h.3c1.8-.8,4.3-2.2,4.3-5.3s-2.4-5.2-8.6-5.2h-7.4v19.4h3.8v-8.5h3.9Z"/>
  <path class="st0" d="M99.4,74.3l4.3-9.2.3-.5,4,9.7h-8.6ZM108.4,75.4l2.8,6.8h3.6l-8.2-19.4h-3.6l-9,19.4h1.7l3.1-6.6v-.2h9.5Z"/>
  <polygon class="st0" points="146.7 62.8 146.7 82.2 159.6 82.2 159.6 81 150.5 81 150.5 73.2 150.5 72.9 157.7 72.9 157.7 71.8 150.5 71.8 150.5 64.1 159.6 64.1 159.6 62.8 146.7 62.8"/>
</svg>