<svg width="80" height="80" viewBox="0 0 80 80" fill="none" xmlns="http://www.w3.org/2000/svg">
<g clip-path="url(#clip0_102_265)">
<path d="M80 40C80 47.9113 77.6541 55.6448 73.2588 62.2228C68.8635 68.8008 62.6164 73.9277 55.3074 76.9552C47.9983 79.9827 39.9556 80.7748 32.1964 79.2314C24.4372 77.688 17.3098 73.8784 11.7157 68.2843C6.12165 62.6902 2.31202 55.5628 0.768607 47.8036C-0.774802 40.0444 0.0173312 32.0017 3.04484 24.6927C6.07234 17.3836 11.1992 11.1365 17.7772 6.74122C24.3552 2.34596 32.0888 0 40 0C50.6087 0 60.7828 4.21427 68.2843 11.7157C75.7857 19.2172 80 29.3913 80 40Z" fill="#F7931A"/>
<path fill-rule="evenodd" clip-rule="evenodd" d="M23.1985 22.0086L32.7151 22.0073L32.7176 14.0783L37.4801 14.0935L37.4731 21.6962L41.3551 21.6988L41.345 14.0178L46.1858 14.0158L46.1711 21.7448C46.1711 21.7448 53.9849 21.4016 57.3276 26.936C60.6702 32.4703 55.9648 37.108 54.2827 37.6867C54.2827 37.6867 61.6952 39.4991 61.3436 47.0661C60.9919 54.6331 54.5118 57.7059 46.9147 58.0287L46.9716 66.0246L42.1308 66.0266L42.1436 58.1363L38.2993 58.1198L38.3006 66.0628L33.4959 66.059L33.5075 58.1501L23.7338 58.1337L24.6644 52.4181C24.6644 52.4181 27.4238 52.4317 28.4588 52.4028C29.4939 52.3739 29.8481 51.1948 29.851 50.1098C29.8539 49.0248 29.4889 31.154 29.5089 29.6691C29.5289 28.1842 29.0819 27.1483 27.3312 27.1618C25.5805 27.1754 23.1757 27.1083 23.1757 27.1083L23.1985 22.0086ZM38.1043 41.8109L38.2648 52.2449C38.2648 52.2449 51.6358 53.3792 51.5361 46.7689C51.4364 40.1585 38.1043 41.8109 38.1043 41.8109ZM37.993 36.8714L38.0061 27.2681C38.0061 27.2681 48.9458 26.3396 48.9957 31.6682C49.0457 36.9968 42.3799 36.735 37.993 36.8714Z" fill="white"/>
</g>
<defs>
<clipPath id="clip0_102_265">
<rect width="80" height="80" fill="white"/>
</clipPath>
</defs>
</svg>
