<svg width="80" height="80" viewBox="0 0 80 80" fill="none" xmlns="http://www.w3.org/2000/svg">
<g clip-path="url(#clip0_102_267)">
<path d="M40 80C62.0914 80 80 62.0914 80 40C80 17.9086 62.0914 0 40 0C17.9086 0 0 17.9086 0 40C0 62.0914 17.9086 80 40 80Z" fill="#26A17B"/>
<path fill-rule="evenodd" clip-rule="evenodd" d="M44.805 43.4578V43.4529C44.53 43.4729 43.1125 43.5579 39.95 43.5579C37.425 43.5579 35.6475 43.4829 35.0225 43.4529V43.4604C25.3025 43.0329 18.0475 41.3404 18.0475 39.3154C18.0475 37.2929 25.3025 35.6004 35.0225 35.1654V41.7753C35.6575 41.8203 37.4775 41.9279 39.9925 41.9279C43.01 41.9279 44.5225 41.8029 44.805 41.7779V35.1704C54.505 35.6029 61.7425 37.2954 61.7425 39.3154C61.7425 41.3404 54.505 43.0278 44.805 43.4578ZM44.805 34.4829V28.5679H58.34V19.5479H21.4875V28.5679H35.0225V34.4804C24.0225 34.9854 15.75 37.1653 15.75 39.7754C15.75 42.3854 24.0225 44.5629 35.0225 45.0704V64.0254H44.805V45.0653C55.7875 44.5603 64.04 42.3829 64.04 39.7754C64.04 37.1679 55.7875 34.9904 44.805 34.4829Z" fill="white"/>
</g>
<defs>
<clipPath id="clip0_102_267">
<rect width="80" height="80" fill="white"/>
</clipPath>
</defs>
</svg>
