<?xml version="1.0" encoding="UTF-8"?>
<svg id="ELEMENTS" xmlns="http://www.w3.org/2000/svg" viewBox="0 0 58 60">
  <defs>
    <style>
      .cls-1 {
        fill: #fff;
      }

      .cls-2 {
        fill: #bf8c1c;
      }
    </style>
  </defs>
  <rect class="cls-2" x="5.17" y="6.17" width="47.66" height="47.66" rx="16" ry="16" transform="translate(29.71 -11.72) rotate(45)"/>
  <g>
    <path class="cls-1" d="M36.1,21.38c-.87,0-1.57.7-1.57,1.57s.7,1.57,1.57,1.57,1.57-.7,1.57-1.57-.7-1.57-1.57-1.57Z"/>
    <path class="cls-1" d="M29.11,23.4c-3.64,0-6.6,2.96-6.6,6.6s2.96,6.6,6.6,6.6,6.6-2.96,6.6-6.6-2.96-6.6-6.6-6.6ZM29.11,34.23c-2.33,0-4.23-1.9-4.23-4.23s1.9-4.23,4.23-4.23,4.23,1.9,4.23,4.23-1.9,4.23-4.23,4.23Z"/>
    <path class="cls-1" d="M34.35,43.4h-10.7c-4.44,0-8.05-3.61-8.05-8.05v-10.7c0-4.44,3.61-8.05,8.05-8.05h10.7c4.44,0,8.05,3.61,8.05,8.05v10.7c0,4.44-3.61,8.05-8.05,8.05ZM23.65,19.12c-3.05,0-5.53,2.48-5.53,5.53v10.7c0,3.05,2.48,5.53,5.53,5.53h10.7c3.05,0,5.53-2.48,5.53-5.53v-10.7c0-3.05-2.48-5.53-5.53-5.53h-10.7Z"/>
  </g>
</svg>