<?xml version="1.0" encoding="UTF-8"?>
<svg id="ELEMENTS" xmlns="http://www.w3.org/2000/svg" viewBox="0 0 58 60">
  <defs>
    <style>
      .cls-1 {
        fill: #fff;
      }

      .cls-2 {
        fill: #bf8c1c;
      }
    </style>
  </defs>
  <rect class="cls-2" x="5.17" y="6.17" width="47.66" height="47.66" rx="16" ry="16" transform="translate(29.71 -11.72) rotate(45)"/>
  <g>
    <path class="cls-1" d="M19.45,24.27h4.1v13.16h-4.1v-13.16ZM21.5,17.73c1.31,0,2.37,1.06,2.37,2.37s-1.06,2.37-2.37,2.37-2.38-1.06-2.38-2.37,1.06-2.37,2.38-2.37"/>
    <path class="cls-1" d="M26.12,24.27h3.92v1.8h.05c.55-1.04,1.88-2.13,3.87-2.13,4.14,0,4.91,2.72,4.91,6.27v7.22h-4.09v-6.4c0-1.53-.03-3.49-2.13-3.49s-2.45,1.66-2.45,3.38v6.51h-4.09v-13.16Z"/>
  </g>
</svg>